G75*
%MOIN*%
%OFA0B0*%
%FSLAX25Y25*%
%IPPOS*%
%LPD*%
%AMOC8*
5,1,8,0,0,1.08239X$1,22.5*
%
%ADD10C,0.00000*%
%ADD11C,0.00500*%
%ADD12C,0.00400*%
%ADD13C,0.00800*%
%ADD14C,0.00600*%
%ADD15C,0.01000*%
%ADD16C,0.00787*%
%ADD17C,0.00900*%
%ADD18C,0.00984*%
%ADD19C,0.00039*%
D10*
X0006040Y0013081D02*
X0006040Y0133159D01*
X0010961Y0133159D02*
X0010963Y0133312D01*
X0010969Y0133466D01*
X0010979Y0133619D01*
X0010993Y0133771D01*
X0011011Y0133924D01*
X0011033Y0134075D01*
X0011058Y0134226D01*
X0011088Y0134377D01*
X0011122Y0134527D01*
X0011159Y0134675D01*
X0011200Y0134823D01*
X0011245Y0134969D01*
X0011294Y0135115D01*
X0011347Y0135259D01*
X0011403Y0135401D01*
X0011463Y0135542D01*
X0011527Y0135682D01*
X0011594Y0135820D01*
X0011665Y0135956D01*
X0011740Y0136090D01*
X0011817Y0136222D01*
X0011899Y0136352D01*
X0011983Y0136480D01*
X0012071Y0136606D01*
X0012162Y0136729D01*
X0012256Y0136850D01*
X0012354Y0136968D01*
X0012454Y0137084D01*
X0012558Y0137197D01*
X0012664Y0137308D01*
X0012773Y0137416D01*
X0012885Y0137521D01*
X0012999Y0137622D01*
X0013117Y0137721D01*
X0013236Y0137817D01*
X0013358Y0137910D01*
X0013483Y0137999D01*
X0013610Y0138086D01*
X0013739Y0138168D01*
X0013870Y0138248D01*
X0014003Y0138324D01*
X0014138Y0138397D01*
X0014275Y0138466D01*
X0014414Y0138531D01*
X0014554Y0138593D01*
X0014696Y0138651D01*
X0014839Y0138706D01*
X0014984Y0138757D01*
X0015130Y0138804D01*
X0015277Y0138847D01*
X0015425Y0138886D01*
X0015574Y0138922D01*
X0015724Y0138953D01*
X0015875Y0138981D01*
X0016026Y0139005D01*
X0016179Y0139025D01*
X0016331Y0139041D01*
X0016484Y0139053D01*
X0016637Y0139061D01*
X0016790Y0139065D01*
X0016944Y0139065D01*
X0017097Y0139061D01*
X0017250Y0139053D01*
X0017403Y0139041D01*
X0017555Y0139025D01*
X0017708Y0139005D01*
X0017859Y0138981D01*
X0018010Y0138953D01*
X0018160Y0138922D01*
X0018309Y0138886D01*
X0018457Y0138847D01*
X0018604Y0138804D01*
X0018750Y0138757D01*
X0018895Y0138706D01*
X0019038Y0138651D01*
X0019180Y0138593D01*
X0019320Y0138531D01*
X0019459Y0138466D01*
X0019596Y0138397D01*
X0019731Y0138324D01*
X0019864Y0138248D01*
X0019995Y0138168D01*
X0020124Y0138086D01*
X0020251Y0137999D01*
X0020376Y0137910D01*
X0020498Y0137817D01*
X0020617Y0137721D01*
X0020735Y0137622D01*
X0020849Y0137521D01*
X0020961Y0137416D01*
X0021070Y0137308D01*
X0021176Y0137197D01*
X0021280Y0137084D01*
X0021380Y0136968D01*
X0021478Y0136850D01*
X0021572Y0136729D01*
X0021663Y0136606D01*
X0021751Y0136480D01*
X0021835Y0136352D01*
X0021917Y0136222D01*
X0021994Y0136090D01*
X0022069Y0135956D01*
X0022140Y0135820D01*
X0022207Y0135682D01*
X0022271Y0135542D01*
X0022331Y0135401D01*
X0022387Y0135259D01*
X0022440Y0135115D01*
X0022489Y0134969D01*
X0022534Y0134823D01*
X0022575Y0134675D01*
X0022612Y0134527D01*
X0022646Y0134377D01*
X0022676Y0134226D01*
X0022701Y0134075D01*
X0022723Y0133924D01*
X0022741Y0133771D01*
X0022755Y0133619D01*
X0022765Y0133466D01*
X0022771Y0133312D01*
X0022773Y0133159D01*
X0022771Y0133006D01*
X0022765Y0132852D01*
X0022755Y0132699D01*
X0022741Y0132547D01*
X0022723Y0132394D01*
X0022701Y0132243D01*
X0022676Y0132092D01*
X0022646Y0131941D01*
X0022612Y0131791D01*
X0022575Y0131643D01*
X0022534Y0131495D01*
X0022489Y0131349D01*
X0022440Y0131203D01*
X0022387Y0131059D01*
X0022331Y0130917D01*
X0022271Y0130776D01*
X0022207Y0130636D01*
X0022140Y0130498D01*
X0022069Y0130362D01*
X0021994Y0130228D01*
X0021917Y0130096D01*
X0021835Y0129966D01*
X0021751Y0129838D01*
X0021663Y0129712D01*
X0021572Y0129589D01*
X0021478Y0129468D01*
X0021380Y0129350D01*
X0021280Y0129234D01*
X0021176Y0129121D01*
X0021070Y0129010D01*
X0020961Y0128902D01*
X0020849Y0128797D01*
X0020735Y0128696D01*
X0020617Y0128597D01*
X0020498Y0128501D01*
X0020376Y0128408D01*
X0020251Y0128319D01*
X0020124Y0128232D01*
X0019995Y0128150D01*
X0019864Y0128070D01*
X0019731Y0127994D01*
X0019596Y0127921D01*
X0019459Y0127852D01*
X0019320Y0127787D01*
X0019180Y0127725D01*
X0019038Y0127667D01*
X0018895Y0127612D01*
X0018750Y0127561D01*
X0018604Y0127514D01*
X0018457Y0127471D01*
X0018309Y0127432D01*
X0018160Y0127396D01*
X0018010Y0127365D01*
X0017859Y0127337D01*
X0017708Y0127313D01*
X0017555Y0127293D01*
X0017403Y0127277D01*
X0017250Y0127265D01*
X0017097Y0127257D01*
X0016944Y0127253D01*
X0016790Y0127253D01*
X0016637Y0127257D01*
X0016484Y0127265D01*
X0016331Y0127277D01*
X0016179Y0127293D01*
X0016026Y0127313D01*
X0015875Y0127337D01*
X0015724Y0127365D01*
X0015574Y0127396D01*
X0015425Y0127432D01*
X0015277Y0127471D01*
X0015130Y0127514D01*
X0014984Y0127561D01*
X0014839Y0127612D01*
X0014696Y0127667D01*
X0014554Y0127725D01*
X0014414Y0127787D01*
X0014275Y0127852D01*
X0014138Y0127921D01*
X0014003Y0127994D01*
X0013870Y0128070D01*
X0013739Y0128150D01*
X0013610Y0128232D01*
X0013483Y0128319D01*
X0013358Y0128408D01*
X0013236Y0128501D01*
X0013117Y0128597D01*
X0012999Y0128696D01*
X0012885Y0128797D01*
X0012773Y0128902D01*
X0012664Y0129010D01*
X0012558Y0129121D01*
X0012454Y0129234D01*
X0012354Y0129350D01*
X0012256Y0129468D01*
X0012162Y0129589D01*
X0012071Y0129712D01*
X0011983Y0129838D01*
X0011899Y0129966D01*
X0011817Y0130096D01*
X0011740Y0130228D01*
X0011665Y0130362D01*
X0011594Y0130498D01*
X0011527Y0130636D01*
X0011463Y0130776D01*
X0011403Y0130917D01*
X0011347Y0131059D01*
X0011294Y0131203D01*
X0011245Y0131349D01*
X0011200Y0131495D01*
X0011159Y0131643D01*
X0011122Y0131791D01*
X0011088Y0131941D01*
X0011058Y0132092D01*
X0011033Y0132243D01*
X0011011Y0132394D01*
X0010993Y0132547D01*
X0010979Y0132699D01*
X0010969Y0132852D01*
X0010963Y0133006D01*
X0010961Y0133159D01*
X0006040Y0133159D02*
X0006043Y0133421D01*
X0006053Y0133682D01*
X0006068Y0133943D01*
X0006091Y0134204D01*
X0006119Y0134464D01*
X0006154Y0134723D01*
X0006195Y0134982D01*
X0006242Y0135239D01*
X0006295Y0135495D01*
X0006355Y0135750D01*
X0006420Y0136003D01*
X0006492Y0136255D01*
X0006570Y0136505D01*
X0006654Y0136753D01*
X0006744Y0136998D01*
X0006839Y0137242D01*
X0006941Y0137483D01*
X0007048Y0137722D01*
X0007161Y0137957D01*
X0007280Y0138191D01*
X0007405Y0138421D01*
X0007534Y0138648D01*
X0007670Y0138872D01*
X0007811Y0139092D01*
X0007957Y0139309D01*
X0008108Y0139523D01*
X0008264Y0139733D01*
X0008425Y0139939D01*
X0008592Y0140141D01*
X0008763Y0140339D01*
X0008939Y0140532D01*
X0009119Y0140722D01*
X0009304Y0140907D01*
X0009494Y0141087D01*
X0009687Y0141263D01*
X0009885Y0141434D01*
X0010087Y0141601D01*
X0010293Y0141762D01*
X0010503Y0141918D01*
X0010717Y0142069D01*
X0010934Y0142215D01*
X0011154Y0142356D01*
X0011378Y0142492D01*
X0011605Y0142621D01*
X0011835Y0142746D01*
X0012069Y0142865D01*
X0012304Y0142978D01*
X0012543Y0143085D01*
X0012784Y0143187D01*
X0013028Y0143282D01*
X0013273Y0143372D01*
X0013521Y0143456D01*
X0013771Y0143534D01*
X0014023Y0143606D01*
X0014276Y0143671D01*
X0014531Y0143731D01*
X0014787Y0143784D01*
X0015044Y0143831D01*
X0015303Y0143872D01*
X0015562Y0143907D01*
X0015822Y0143935D01*
X0016083Y0143958D01*
X0016344Y0143973D01*
X0016605Y0143983D01*
X0016867Y0143986D01*
X0136946Y0143986D01*
X0131040Y0133159D02*
X0131042Y0133312D01*
X0131048Y0133466D01*
X0131058Y0133619D01*
X0131072Y0133771D01*
X0131090Y0133924D01*
X0131112Y0134075D01*
X0131137Y0134226D01*
X0131167Y0134377D01*
X0131201Y0134527D01*
X0131238Y0134675D01*
X0131279Y0134823D01*
X0131324Y0134969D01*
X0131373Y0135115D01*
X0131426Y0135259D01*
X0131482Y0135401D01*
X0131542Y0135542D01*
X0131606Y0135682D01*
X0131673Y0135820D01*
X0131744Y0135956D01*
X0131819Y0136090D01*
X0131896Y0136222D01*
X0131978Y0136352D01*
X0132062Y0136480D01*
X0132150Y0136606D01*
X0132241Y0136729D01*
X0132335Y0136850D01*
X0132433Y0136968D01*
X0132533Y0137084D01*
X0132637Y0137197D01*
X0132743Y0137308D01*
X0132852Y0137416D01*
X0132964Y0137521D01*
X0133078Y0137622D01*
X0133196Y0137721D01*
X0133315Y0137817D01*
X0133437Y0137910D01*
X0133562Y0137999D01*
X0133689Y0138086D01*
X0133818Y0138168D01*
X0133949Y0138248D01*
X0134082Y0138324D01*
X0134217Y0138397D01*
X0134354Y0138466D01*
X0134493Y0138531D01*
X0134633Y0138593D01*
X0134775Y0138651D01*
X0134918Y0138706D01*
X0135063Y0138757D01*
X0135209Y0138804D01*
X0135356Y0138847D01*
X0135504Y0138886D01*
X0135653Y0138922D01*
X0135803Y0138953D01*
X0135954Y0138981D01*
X0136105Y0139005D01*
X0136258Y0139025D01*
X0136410Y0139041D01*
X0136563Y0139053D01*
X0136716Y0139061D01*
X0136869Y0139065D01*
X0137023Y0139065D01*
X0137176Y0139061D01*
X0137329Y0139053D01*
X0137482Y0139041D01*
X0137634Y0139025D01*
X0137787Y0139005D01*
X0137938Y0138981D01*
X0138089Y0138953D01*
X0138239Y0138922D01*
X0138388Y0138886D01*
X0138536Y0138847D01*
X0138683Y0138804D01*
X0138829Y0138757D01*
X0138974Y0138706D01*
X0139117Y0138651D01*
X0139259Y0138593D01*
X0139399Y0138531D01*
X0139538Y0138466D01*
X0139675Y0138397D01*
X0139810Y0138324D01*
X0139943Y0138248D01*
X0140074Y0138168D01*
X0140203Y0138086D01*
X0140330Y0137999D01*
X0140455Y0137910D01*
X0140577Y0137817D01*
X0140696Y0137721D01*
X0140814Y0137622D01*
X0140928Y0137521D01*
X0141040Y0137416D01*
X0141149Y0137308D01*
X0141255Y0137197D01*
X0141359Y0137084D01*
X0141459Y0136968D01*
X0141557Y0136850D01*
X0141651Y0136729D01*
X0141742Y0136606D01*
X0141830Y0136480D01*
X0141914Y0136352D01*
X0141996Y0136222D01*
X0142073Y0136090D01*
X0142148Y0135956D01*
X0142219Y0135820D01*
X0142286Y0135682D01*
X0142350Y0135542D01*
X0142410Y0135401D01*
X0142466Y0135259D01*
X0142519Y0135115D01*
X0142568Y0134969D01*
X0142613Y0134823D01*
X0142654Y0134675D01*
X0142691Y0134527D01*
X0142725Y0134377D01*
X0142755Y0134226D01*
X0142780Y0134075D01*
X0142802Y0133924D01*
X0142820Y0133771D01*
X0142834Y0133619D01*
X0142844Y0133466D01*
X0142850Y0133312D01*
X0142852Y0133159D01*
X0142850Y0133006D01*
X0142844Y0132852D01*
X0142834Y0132699D01*
X0142820Y0132547D01*
X0142802Y0132394D01*
X0142780Y0132243D01*
X0142755Y0132092D01*
X0142725Y0131941D01*
X0142691Y0131791D01*
X0142654Y0131643D01*
X0142613Y0131495D01*
X0142568Y0131349D01*
X0142519Y0131203D01*
X0142466Y0131059D01*
X0142410Y0130917D01*
X0142350Y0130776D01*
X0142286Y0130636D01*
X0142219Y0130498D01*
X0142148Y0130362D01*
X0142073Y0130228D01*
X0141996Y0130096D01*
X0141914Y0129966D01*
X0141830Y0129838D01*
X0141742Y0129712D01*
X0141651Y0129589D01*
X0141557Y0129468D01*
X0141459Y0129350D01*
X0141359Y0129234D01*
X0141255Y0129121D01*
X0141149Y0129010D01*
X0141040Y0128902D01*
X0140928Y0128797D01*
X0140814Y0128696D01*
X0140696Y0128597D01*
X0140577Y0128501D01*
X0140455Y0128408D01*
X0140330Y0128319D01*
X0140203Y0128232D01*
X0140074Y0128150D01*
X0139943Y0128070D01*
X0139810Y0127994D01*
X0139675Y0127921D01*
X0139538Y0127852D01*
X0139399Y0127787D01*
X0139259Y0127725D01*
X0139117Y0127667D01*
X0138974Y0127612D01*
X0138829Y0127561D01*
X0138683Y0127514D01*
X0138536Y0127471D01*
X0138388Y0127432D01*
X0138239Y0127396D01*
X0138089Y0127365D01*
X0137938Y0127337D01*
X0137787Y0127313D01*
X0137634Y0127293D01*
X0137482Y0127277D01*
X0137329Y0127265D01*
X0137176Y0127257D01*
X0137023Y0127253D01*
X0136869Y0127253D01*
X0136716Y0127257D01*
X0136563Y0127265D01*
X0136410Y0127277D01*
X0136258Y0127293D01*
X0136105Y0127313D01*
X0135954Y0127337D01*
X0135803Y0127365D01*
X0135653Y0127396D01*
X0135504Y0127432D01*
X0135356Y0127471D01*
X0135209Y0127514D01*
X0135063Y0127561D01*
X0134918Y0127612D01*
X0134775Y0127667D01*
X0134633Y0127725D01*
X0134493Y0127787D01*
X0134354Y0127852D01*
X0134217Y0127921D01*
X0134082Y0127994D01*
X0133949Y0128070D01*
X0133818Y0128150D01*
X0133689Y0128232D01*
X0133562Y0128319D01*
X0133437Y0128408D01*
X0133315Y0128501D01*
X0133196Y0128597D01*
X0133078Y0128696D01*
X0132964Y0128797D01*
X0132852Y0128902D01*
X0132743Y0129010D01*
X0132637Y0129121D01*
X0132533Y0129234D01*
X0132433Y0129350D01*
X0132335Y0129468D01*
X0132241Y0129589D01*
X0132150Y0129712D01*
X0132062Y0129838D01*
X0131978Y0129966D01*
X0131896Y0130096D01*
X0131819Y0130228D01*
X0131744Y0130362D01*
X0131673Y0130498D01*
X0131606Y0130636D01*
X0131542Y0130776D01*
X0131482Y0130917D01*
X0131426Y0131059D01*
X0131373Y0131203D01*
X0131324Y0131349D01*
X0131279Y0131495D01*
X0131238Y0131643D01*
X0131201Y0131791D01*
X0131167Y0131941D01*
X0131137Y0132092D01*
X0131112Y0132243D01*
X0131090Y0132394D01*
X0131072Y0132547D01*
X0131058Y0132699D01*
X0131048Y0132852D01*
X0131042Y0133006D01*
X0131040Y0133159D01*
X0136946Y0143986D02*
X0137208Y0143983D01*
X0137469Y0143973D01*
X0137730Y0143958D01*
X0137991Y0143935D01*
X0138251Y0143907D01*
X0138510Y0143872D01*
X0138769Y0143831D01*
X0139026Y0143784D01*
X0139282Y0143731D01*
X0139537Y0143671D01*
X0139790Y0143606D01*
X0140042Y0143534D01*
X0140292Y0143456D01*
X0140540Y0143372D01*
X0140785Y0143282D01*
X0141029Y0143187D01*
X0141270Y0143085D01*
X0141509Y0142978D01*
X0141744Y0142865D01*
X0141978Y0142746D01*
X0142208Y0142621D01*
X0142435Y0142492D01*
X0142659Y0142356D01*
X0142879Y0142215D01*
X0143096Y0142069D01*
X0143310Y0141918D01*
X0143520Y0141762D01*
X0143726Y0141601D01*
X0143928Y0141434D01*
X0144126Y0141263D01*
X0144319Y0141087D01*
X0144509Y0140907D01*
X0144694Y0140722D01*
X0144874Y0140532D01*
X0145050Y0140339D01*
X0145221Y0140141D01*
X0145388Y0139939D01*
X0145549Y0139733D01*
X0145705Y0139523D01*
X0145856Y0139309D01*
X0146002Y0139092D01*
X0146143Y0138872D01*
X0146279Y0138648D01*
X0146408Y0138421D01*
X0146533Y0138191D01*
X0146652Y0137957D01*
X0146765Y0137722D01*
X0146872Y0137483D01*
X0146974Y0137242D01*
X0147069Y0136998D01*
X0147159Y0136753D01*
X0147243Y0136505D01*
X0147321Y0136255D01*
X0147393Y0136003D01*
X0147458Y0135750D01*
X0147518Y0135495D01*
X0147571Y0135239D01*
X0147618Y0134982D01*
X0147659Y0134723D01*
X0147694Y0134464D01*
X0147722Y0134204D01*
X0147745Y0133943D01*
X0147760Y0133682D01*
X0147770Y0133421D01*
X0147773Y0133159D01*
X0147772Y0133159D02*
X0147772Y0013081D01*
X0131040Y0013081D02*
X0131042Y0013234D01*
X0131048Y0013388D01*
X0131058Y0013541D01*
X0131072Y0013693D01*
X0131090Y0013846D01*
X0131112Y0013997D01*
X0131137Y0014148D01*
X0131167Y0014299D01*
X0131201Y0014449D01*
X0131238Y0014597D01*
X0131279Y0014745D01*
X0131324Y0014891D01*
X0131373Y0015037D01*
X0131426Y0015181D01*
X0131482Y0015323D01*
X0131542Y0015464D01*
X0131606Y0015604D01*
X0131673Y0015742D01*
X0131744Y0015878D01*
X0131819Y0016012D01*
X0131896Y0016144D01*
X0131978Y0016274D01*
X0132062Y0016402D01*
X0132150Y0016528D01*
X0132241Y0016651D01*
X0132335Y0016772D01*
X0132433Y0016890D01*
X0132533Y0017006D01*
X0132637Y0017119D01*
X0132743Y0017230D01*
X0132852Y0017338D01*
X0132964Y0017443D01*
X0133078Y0017544D01*
X0133196Y0017643D01*
X0133315Y0017739D01*
X0133437Y0017832D01*
X0133562Y0017921D01*
X0133689Y0018008D01*
X0133818Y0018090D01*
X0133949Y0018170D01*
X0134082Y0018246D01*
X0134217Y0018319D01*
X0134354Y0018388D01*
X0134493Y0018453D01*
X0134633Y0018515D01*
X0134775Y0018573D01*
X0134918Y0018628D01*
X0135063Y0018679D01*
X0135209Y0018726D01*
X0135356Y0018769D01*
X0135504Y0018808D01*
X0135653Y0018844D01*
X0135803Y0018875D01*
X0135954Y0018903D01*
X0136105Y0018927D01*
X0136258Y0018947D01*
X0136410Y0018963D01*
X0136563Y0018975D01*
X0136716Y0018983D01*
X0136869Y0018987D01*
X0137023Y0018987D01*
X0137176Y0018983D01*
X0137329Y0018975D01*
X0137482Y0018963D01*
X0137634Y0018947D01*
X0137787Y0018927D01*
X0137938Y0018903D01*
X0138089Y0018875D01*
X0138239Y0018844D01*
X0138388Y0018808D01*
X0138536Y0018769D01*
X0138683Y0018726D01*
X0138829Y0018679D01*
X0138974Y0018628D01*
X0139117Y0018573D01*
X0139259Y0018515D01*
X0139399Y0018453D01*
X0139538Y0018388D01*
X0139675Y0018319D01*
X0139810Y0018246D01*
X0139943Y0018170D01*
X0140074Y0018090D01*
X0140203Y0018008D01*
X0140330Y0017921D01*
X0140455Y0017832D01*
X0140577Y0017739D01*
X0140696Y0017643D01*
X0140814Y0017544D01*
X0140928Y0017443D01*
X0141040Y0017338D01*
X0141149Y0017230D01*
X0141255Y0017119D01*
X0141359Y0017006D01*
X0141459Y0016890D01*
X0141557Y0016772D01*
X0141651Y0016651D01*
X0141742Y0016528D01*
X0141830Y0016402D01*
X0141914Y0016274D01*
X0141996Y0016144D01*
X0142073Y0016012D01*
X0142148Y0015878D01*
X0142219Y0015742D01*
X0142286Y0015604D01*
X0142350Y0015464D01*
X0142410Y0015323D01*
X0142466Y0015181D01*
X0142519Y0015037D01*
X0142568Y0014891D01*
X0142613Y0014745D01*
X0142654Y0014597D01*
X0142691Y0014449D01*
X0142725Y0014299D01*
X0142755Y0014148D01*
X0142780Y0013997D01*
X0142802Y0013846D01*
X0142820Y0013693D01*
X0142834Y0013541D01*
X0142844Y0013388D01*
X0142850Y0013234D01*
X0142852Y0013081D01*
X0142850Y0012928D01*
X0142844Y0012774D01*
X0142834Y0012621D01*
X0142820Y0012469D01*
X0142802Y0012316D01*
X0142780Y0012165D01*
X0142755Y0012014D01*
X0142725Y0011863D01*
X0142691Y0011713D01*
X0142654Y0011565D01*
X0142613Y0011417D01*
X0142568Y0011271D01*
X0142519Y0011125D01*
X0142466Y0010981D01*
X0142410Y0010839D01*
X0142350Y0010698D01*
X0142286Y0010558D01*
X0142219Y0010420D01*
X0142148Y0010284D01*
X0142073Y0010150D01*
X0141996Y0010018D01*
X0141914Y0009888D01*
X0141830Y0009760D01*
X0141742Y0009634D01*
X0141651Y0009511D01*
X0141557Y0009390D01*
X0141459Y0009272D01*
X0141359Y0009156D01*
X0141255Y0009043D01*
X0141149Y0008932D01*
X0141040Y0008824D01*
X0140928Y0008719D01*
X0140814Y0008618D01*
X0140696Y0008519D01*
X0140577Y0008423D01*
X0140455Y0008330D01*
X0140330Y0008241D01*
X0140203Y0008154D01*
X0140074Y0008072D01*
X0139943Y0007992D01*
X0139810Y0007916D01*
X0139675Y0007843D01*
X0139538Y0007774D01*
X0139399Y0007709D01*
X0139259Y0007647D01*
X0139117Y0007589D01*
X0138974Y0007534D01*
X0138829Y0007483D01*
X0138683Y0007436D01*
X0138536Y0007393D01*
X0138388Y0007354D01*
X0138239Y0007318D01*
X0138089Y0007287D01*
X0137938Y0007259D01*
X0137787Y0007235D01*
X0137634Y0007215D01*
X0137482Y0007199D01*
X0137329Y0007187D01*
X0137176Y0007179D01*
X0137023Y0007175D01*
X0136869Y0007175D01*
X0136716Y0007179D01*
X0136563Y0007187D01*
X0136410Y0007199D01*
X0136258Y0007215D01*
X0136105Y0007235D01*
X0135954Y0007259D01*
X0135803Y0007287D01*
X0135653Y0007318D01*
X0135504Y0007354D01*
X0135356Y0007393D01*
X0135209Y0007436D01*
X0135063Y0007483D01*
X0134918Y0007534D01*
X0134775Y0007589D01*
X0134633Y0007647D01*
X0134493Y0007709D01*
X0134354Y0007774D01*
X0134217Y0007843D01*
X0134082Y0007916D01*
X0133949Y0007992D01*
X0133818Y0008072D01*
X0133689Y0008154D01*
X0133562Y0008241D01*
X0133437Y0008330D01*
X0133315Y0008423D01*
X0133196Y0008519D01*
X0133078Y0008618D01*
X0132964Y0008719D01*
X0132852Y0008824D01*
X0132743Y0008932D01*
X0132637Y0009043D01*
X0132533Y0009156D01*
X0132433Y0009272D01*
X0132335Y0009390D01*
X0132241Y0009511D01*
X0132150Y0009634D01*
X0132062Y0009760D01*
X0131978Y0009888D01*
X0131896Y0010018D01*
X0131819Y0010150D01*
X0131744Y0010284D01*
X0131673Y0010420D01*
X0131606Y0010558D01*
X0131542Y0010698D01*
X0131482Y0010839D01*
X0131426Y0010981D01*
X0131373Y0011125D01*
X0131324Y0011271D01*
X0131279Y0011417D01*
X0131238Y0011565D01*
X0131201Y0011713D01*
X0131167Y0011863D01*
X0131137Y0012014D01*
X0131112Y0012165D01*
X0131090Y0012316D01*
X0131072Y0012469D01*
X0131058Y0012621D01*
X0131048Y0012774D01*
X0131042Y0012928D01*
X0131040Y0013081D01*
X0136946Y0002254D02*
X0137208Y0002257D01*
X0137469Y0002267D01*
X0137730Y0002282D01*
X0137991Y0002305D01*
X0138251Y0002333D01*
X0138510Y0002368D01*
X0138769Y0002409D01*
X0139026Y0002456D01*
X0139282Y0002509D01*
X0139537Y0002569D01*
X0139790Y0002634D01*
X0140042Y0002706D01*
X0140292Y0002784D01*
X0140540Y0002868D01*
X0140785Y0002958D01*
X0141029Y0003053D01*
X0141270Y0003155D01*
X0141509Y0003262D01*
X0141744Y0003375D01*
X0141978Y0003494D01*
X0142208Y0003619D01*
X0142435Y0003748D01*
X0142659Y0003884D01*
X0142879Y0004025D01*
X0143096Y0004171D01*
X0143310Y0004322D01*
X0143520Y0004478D01*
X0143726Y0004639D01*
X0143928Y0004806D01*
X0144126Y0004977D01*
X0144319Y0005153D01*
X0144509Y0005333D01*
X0144694Y0005518D01*
X0144874Y0005708D01*
X0145050Y0005901D01*
X0145221Y0006099D01*
X0145388Y0006301D01*
X0145549Y0006507D01*
X0145705Y0006717D01*
X0145856Y0006931D01*
X0146002Y0007148D01*
X0146143Y0007368D01*
X0146279Y0007592D01*
X0146408Y0007819D01*
X0146533Y0008049D01*
X0146652Y0008283D01*
X0146765Y0008518D01*
X0146872Y0008757D01*
X0146974Y0008998D01*
X0147069Y0009242D01*
X0147159Y0009487D01*
X0147243Y0009735D01*
X0147321Y0009985D01*
X0147393Y0010237D01*
X0147458Y0010490D01*
X0147518Y0010745D01*
X0147571Y0011001D01*
X0147618Y0011258D01*
X0147659Y0011517D01*
X0147694Y0011776D01*
X0147722Y0012036D01*
X0147745Y0012297D01*
X0147760Y0012558D01*
X0147770Y0012819D01*
X0147773Y0013081D01*
X0136946Y0002254D02*
X0016867Y0002254D01*
X0010961Y0013081D02*
X0010963Y0013234D01*
X0010969Y0013388D01*
X0010979Y0013541D01*
X0010993Y0013693D01*
X0011011Y0013846D01*
X0011033Y0013997D01*
X0011058Y0014148D01*
X0011088Y0014299D01*
X0011122Y0014449D01*
X0011159Y0014597D01*
X0011200Y0014745D01*
X0011245Y0014891D01*
X0011294Y0015037D01*
X0011347Y0015181D01*
X0011403Y0015323D01*
X0011463Y0015464D01*
X0011527Y0015604D01*
X0011594Y0015742D01*
X0011665Y0015878D01*
X0011740Y0016012D01*
X0011817Y0016144D01*
X0011899Y0016274D01*
X0011983Y0016402D01*
X0012071Y0016528D01*
X0012162Y0016651D01*
X0012256Y0016772D01*
X0012354Y0016890D01*
X0012454Y0017006D01*
X0012558Y0017119D01*
X0012664Y0017230D01*
X0012773Y0017338D01*
X0012885Y0017443D01*
X0012999Y0017544D01*
X0013117Y0017643D01*
X0013236Y0017739D01*
X0013358Y0017832D01*
X0013483Y0017921D01*
X0013610Y0018008D01*
X0013739Y0018090D01*
X0013870Y0018170D01*
X0014003Y0018246D01*
X0014138Y0018319D01*
X0014275Y0018388D01*
X0014414Y0018453D01*
X0014554Y0018515D01*
X0014696Y0018573D01*
X0014839Y0018628D01*
X0014984Y0018679D01*
X0015130Y0018726D01*
X0015277Y0018769D01*
X0015425Y0018808D01*
X0015574Y0018844D01*
X0015724Y0018875D01*
X0015875Y0018903D01*
X0016026Y0018927D01*
X0016179Y0018947D01*
X0016331Y0018963D01*
X0016484Y0018975D01*
X0016637Y0018983D01*
X0016790Y0018987D01*
X0016944Y0018987D01*
X0017097Y0018983D01*
X0017250Y0018975D01*
X0017403Y0018963D01*
X0017555Y0018947D01*
X0017708Y0018927D01*
X0017859Y0018903D01*
X0018010Y0018875D01*
X0018160Y0018844D01*
X0018309Y0018808D01*
X0018457Y0018769D01*
X0018604Y0018726D01*
X0018750Y0018679D01*
X0018895Y0018628D01*
X0019038Y0018573D01*
X0019180Y0018515D01*
X0019320Y0018453D01*
X0019459Y0018388D01*
X0019596Y0018319D01*
X0019731Y0018246D01*
X0019864Y0018170D01*
X0019995Y0018090D01*
X0020124Y0018008D01*
X0020251Y0017921D01*
X0020376Y0017832D01*
X0020498Y0017739D01*
X0020617Y0017643D01*
X0020735Y0017544D01*
X0020849Y0017443D01*
X0020961Y0017338D01*
X0021070Y0017230D01*
X0021176Y0017119D01*
X0021280Y0017006D01*
X0021380Y0016890D01*
X0021478Y0016772D01*
X0021572Y0016651D01*
X0021663Y0016528D01*
X0021751Y0016402D01*
X0021835Y0016274D01*
X0021917Y0016144D01*
X0021994Y0016012D01*
X0022069Y0015878D01*
X0022140Y0015742D01*
X0022207Y0015604D01*
X0022271Y0015464D01*
X0022331Y0015323D01*
X0022387Y0015181D01*
X0022440Y0015037D01*
X0022489Y0014891D01*
X0022534Y0014745D01*
X0022575Y0014597D01*
X0022612Y0014449D01*
X0022646Y0014299D01*
X0022676Y0014148D01*
X0022701Y0013997D01*
X0022723Y0013846D01*
X0022741Y0013693D01*
X0022755Y0013541D01*
X0022765Y0013388D01*
X0022771Y0013234D01*
X0022773Y0013081D01*
X0022771Y0012928D01*
X0022765Y0012774D01*
X0022755Y0012621D01*
X0022741Y0012469D01*
X0022723Y0012316D01*
X0022701Y0012165D01*
X0022676Y0012014D01*
X0022646Y0011863D01*
X0022612Y0011713D01*
X0022575Y0011565D01*
X0022534Y0011417D01*
X0022489Y0011271D01*
X0022440Y0011125D01*
X0022387Y0010981D01*
X0022331Y0010839D01*
X0022271Y0010698D01*
X0022207Y0010558D01*
X0022140Y0010420D01*
X0022069Y0010284D01*
X0021994Y0010150D01*
X0021917Y0010018D01*
X0021835Y0009888D01*
X0021751Y0009760D01*
X0021663Y0009634D01*
X0021572Y0009511D01*
X0021478Y0009390D01*
X0021380Y0009272D01*
X0021280Y0009156D01*
X0021176Y0009043D01*
X0021070Y0008932D01*
X0020961Y0008824D01*
X0020849Y0008719D01*
X0020735Y0008618D01*
X0020617Y0008519D01*
X0020498Y0008423D01*
X0020376Y0008330D01*
X0020251Y0008241D01*
X0020124Y0008154D01*
X0019995Y0008072D01*
X0019864Y0007992D01*
X0019731Y0007916D01*
X0019596Y0007843D01*
X0019459Y0007774D01*
X0019320Y0007709D01*
X0019180Y0007647D01*
X0019038Y0007589D01*
X0018895Y0007534D01*
X0018750Y0007483D01*
X0018604Y0007436D01*
X0018457Y0007393D01*
X0018309Y0007354D01*
X0018160Y0007318D01*
X0018010Y0007287D01*
X0017859Y0007259D01*
X0017708Y0007235D01*
X0017555Y0007215D01*
X0017403Y0007199D01*
X0017250Y0007187D01*
X0017097Y0007179D01*
X0016944Y0007175D01*
X0016790Y0007175D01*
X0016637Y0007179D01*
X0016484Y0007187D01*
X0016331Y0007199D01*
X0016179Y0007215D01*
X0016026Y0007235D01*
X0015875Y0007259D01*
X0015724Y0007287D01*
X0015574Y0007318D01*
X0015425Y0007354D01*
X0015277Y0007393D01*
X0015130Y0007436D01*
X0014984Y0007483D01*
X0014839Y0007534D01*
X0014696Y0007589D01*
X0014554Y0007647D01*
X0014414Y0007709D01*
X0014275Y0007774D01*
X0014138Y0007843D01*
X0014003Y0007916D01*
X0013870Y0007992D01*
X0013739Y0008072D01*
X0013610Y0008154D01*
X0013483Y0008241D01*
X0013358Y0008330D01*
X0013236Y0008423D01*
X0013117Y0008519D01*
X0012999Y0008618D01*
X0012885Y0008719D01*
X0012773Y0008824D01*
X0012664Y0008932D01*
X0012558Y0009043D01*
X0012454Y0009156D01*
X0012354Y0009272D01*
X0012256Y0009390D01*
X0012162Y0009511D01*
X0012071Y0009634D01*
X0011983Y0009760D01*
X0011899Y0009888D01*
X0011817Y0010018D01*
X0011740Y0010150D01*
X0011665Y0010284D01*
X0011594Y0010420D01*
X0011527Y0010558D01*
X0011463Y0010698D01*
X0011403Y0010839D01*
X0011347Y0010981D01*
X0011294Y0011125D01*
X0011245Y0011271D01*
X0011200Y0011417D01*
X0011159Y0011565D01*
X0011122Y0011713D01*
X0011088Y0011863D01*
X0011058Y0012014D01*
X0011033Y0012165D01*
X0011011Y0012316D01*
X0010993Y0012469D01*
X0010979Y0012621D01*
X0010969Y0012774D01*
X0010963Y0012928D01*
X0010961Y0013081D01*
X0006040Y0013081D02*
X0006043Y0012819D01*
X0006053Y0012558D01*
X0006068Y0012297D01*
X0006091Y0012036D01*
X0006119Y0011776D01*
X0006154Y0011517D01*
X0006195Y0011258D01*
X0006242Y0011001D01*
X0006295Y0010745D01*
X0006355Y0010490D01*
X0006420Y0010237D01*
X0006492Y0009985D01*
X0006570Y0009735D01*
X0006654Y0009487D01*
X0006744Y0009242D01*
X0006839Y0008998D01*
X0006941Y0008757D01*
X0007048Y0008518D01*
X0007161Y0008283D01*
X0007280Y0008049D01*
X0007405Y0007819D01*
X0007534Y0007592D01*
X0007670Y0007368D01*
X0007811Y0007148D01*
X0007957Y0006931D01*
X0008108Y0006717D01*
X0008264Y0006507D01*
X0008425Y0006301D01*
X0008592Y0006099D01*
X0008763Y0005901D01*
X0008939Y0005708D01*
X0009119Y0005518D01*
X0009304Y0005333D01*
X0009494Y0005153D01*
X0009687Y0004977D01*
X0009885Y0004806D01*
X0010087Y0004639D01*
X0010293Y0004478D01*
X0010503Y0004322D01*
X0010717Y0004171D01*
X0010934Y0004025D01*
X0011154Y0003884D01*
X0011378Y0003748D01*
X0011605Y0003619D01*
X0011835Y0003494D01*
X0012069Y0003375D01*
X0012304Y0003262D01*
X0012543Y0003155D01*
X0012784Y0003053D01*
X0013028Y0002958D01*
X0013273Y0002868D01*
X0013521Y0002784D01*
X0013771Y0002706D01*
X0014023Y0002634D01*
X0014276Y0002569D01*
X0014531Y0002509D01*
X0014787Y0002456D01*
X0015044Y0002409D01*
X0015303Y0002368D01*
X0015562Y0002333D01*
X0015822Y0002305D01*
X0016083Y0002282D01*
X0016344Y0002267D01*
X0016605Y0002257D01*
X0016867Y0002254D01*
D11*
X0021926Y0022254D02*
X0005568Y0022254D01*
X0005568Y0062254D01*
X0021926Y0062254D01*
X0025863Y0058317D01*
X0025863Y0026191D01*
X0021926Y0022254D01*
X0032166Y0047254D02*
X0032166Y0061254D01*
X0039666Y0061254D01*
X0039666Y0047254D01*
X0032166Y0047254D01*
X0038032Y0046825D02*
X0038032Y0051325D01*
X0039032Y0049575D02*
X0040532Y0046825D01*
X0041353Y0047754D02*
X0041353Y0054754D01*
X0043103Y0054754D01*
X0043147Y0054752D01*
X0043190Y0054746D01*
X0043232Y0054737D01*
X0043274Y0054724D01*
X0043314Y0054707D01*
X0043353Y0054687D01*
X0043390Y0054664D01*
X0043424Y0054637D01*
X0043457Y0054608D01*
X0043486Y0054575D01*
X0043513Y0054541D01*
X0043536Y0054504D01*
X0043556Y0054465D01*
X0043573Y0054425D01*
X0043586Y0054383D01*
X0043595Y0054341D01*
X0043601Y0054298D01*
X0043603Y0054254D01*
X0043605Y0054210D01*
X0043611Y0054167D01*
X0043620Y0054125D01*
X0043633Y0054083D01*
X0043650Y0054043D01*
X0043670Y0054004D01*
X0043693Y0053967D01*
X0043720Y0053933D01*
X0043749Y0053900D01*
X0043782Y0053871D01*
X0043816Y0053844D01*
X0043853Y0053821D01*
X0043892Y0053801D01*
X0043932Y0053784D01*
X0043974Y0053771D01*
X0044016Y0053762D01*
X0044059Y0053756D01*
X0044103Y0053754D01*
X0044147Y0053756D01*
X0044190Y0053762D01*
X0044232Y0053771D01*
X0044274Y0053784D01*
X0044314Y0053801D01*
X0044353Y0053821D01*
X0044390Y0053844D01*
X0044424Y0053871D01*
X0044457Y0053900D01*
X0044486Y0053933D01*
X0044513Y0053967D01*
X0044536Y0054004D01*
X0044556Y0054043D01*
X0044573Y0054083D01*
X0044586Y0054125D01*
X0044595Y0054167D01*
X0044601Y0054210D01*
X0044603Y0054254D01*
X0044605Y0054298D01*
X0044611Y0054341D01*
X0044620Y0054383D01*
X0044633Y0054425D01*
X0044650Y0054465D01*
X0044670Y0054504D01*
X0044693Y0054541D01*
X0044720Y0054575D01*
X0044749Y0054608D01*
X0044782Y0054637D01*
X0044816Y0054664D01*
X0044853Y0054687D01*
X0044892Y0054707D01*
X0044932Y0054724D01*
X0044974Y0054737D01*
X0045016Y0054746D01*
X0045059Y0054752D01*
X0045103Y0054754D01*
X0045147Y0054752D01*
X0045190Y0054746D01*
X0045232Y0054737D01*
X0045274Y0054724D01*
X0045314Y0054707D01*
X0045353Y0054687D01*
X0045390Y0054664D01*
X0045424Y0054637D01*
X0045457Y0054608D01*
X0045486Y0054575D01*
X0045513Y0054541D01*
X0045536Y0054504D01*
X0045556Y0054465D01*
X0045573Y0054425D01*
X0045586Y0054383D01*
X0045595Y0054341D01*
X0045601Y0054298D01*
X0045603Y0054254D01*
X0045605Y0054210D01*
X0045611Y0054167D01*
X0045620Y0054125D01*
X0045633Y0054083D01*
X0045650Y0054043D01*
X0045670Y0054004D01*
X0045693Y0053967D01*
X0045720Y0053933D01*
X0045749Y0053900D01*
X0045782Y0053871D01*
X0045816Y0053844D01*
X0045853Y0053821D01*
X0045892Y0053801D01*
X0045932Y0053784D01*
X0045974Y0053771D01*
X0046016Y0053762D01*
X0046059Y0053756D01*
X0046103Y0053754D01*
X0046147Y0053756D01*
X0046190Y0053762D01*
X0046232Y0053771D01*
X0046274Y0053784D01*
X0046314Y0053801D01*
X0046353Y0053821D01*
X0046390Y0053844D01*
X0046424Y0053871D01*
X0046457Y0053900D01*
X0046486Y0053933D01*
X0046513Y0053967D01*
X0046536Y0054004D01*
X0046556Y0054043D01*
X0046573Y0054083D01*
X0046586Y0054125D01*
X0046595Y0054167D01*
X0046601Y0054210D01*
X0046603Y0054254D01*
X0046605Y0054298D01*
X0046611Y0054341D01*
X0046620Y0054383D01*
X0046633Y0054425D01*
X0046650Y0054465D01*
X0046670Y0054504D01*
X0046693Y0054541D01*
X0046720Y0054575D01*
X0046749Y0054608D01*
X0046782Y0054637D01*
X0046816Y0054664D01*
X0046853Y0054687D01*
X0046892Y0054707D01*
X0046932Y0054724D01*
X0046974Y0054737D01*
X0047016Y0054746D01*
X0047059Y0054752D01*
X0047103Y0054754D01*
X0048853Y0054754D01*
X0048853Y0047754D01*
X0041353Y0047754D01*
X0042307Y0046825D02*
X0044807Y0046825D01*
X0042307Y0046825D02*
X0044432Y0049325D01*
X0043682Y0051324D02*
X0043609Y0051322D01*
X0043537Y0051317D01*
X0043465Y0051308D01*
X0043393Y0051295D01*
X0043322Y0051279D01*
X0043252Y0051259D01*
X0043184Y0051235D01*
X0043116Y0051209D01*
X0043050Y0051178D01*
X0042985Y0051145D01*
X0042923Y0051108D01*
X0042862Y0051069D01*
X0042803Y0051026D01*
X0042746Y0050980D01*
X0042692Y0050932D01*
X0042641Y0050881D01*
X0042591Y0050827D01*
X0042545Y0050771D01*
X0042502Y0050713D01*
X0042461Y0050652D01*
X0042424Y0050590D01*
X0042390Y0050526D01*
X0042359Y0050460D01*
X0042331Y0050393D01*
X0042307Y0050324D01*
X0044432Y0049325D02*
X0044478Y0049371D01*
X0044522Y0049420D01*
X0044562Y0049471D01*
X0044600Y0049524D01*
X0044635Y0049579D01*
X0044667Y0049636D01*
X0044696Y0049694D01*
X0044722Y0049754D01*
X0044744Y0049816D01*
X0044763Y0049878D01*
X0044779Y0049941D01*
X0044791Y0050005D01*
X0044800Y0050070D01*
X0044805Y0050135D01*
X0044807Y0050200D01*
X0044805Y0050265D01*
X0044799Y0050331D01*
X0044790Y0050395D01*
X0044777Y0050459D01*
X0044760Y0050523D01*
X0044739Y0050585D01*
X0044715Y0050646D01*
X0044687Y0050705D01*
X0044656Y0050763D01*
X0044622Y0050818D01*
X0044584Y0050872D01*
X0044544Y0050923D01*
X0044500Y0050972D01*
X0044454Y0051018D01*
X0044405Y0051062D01*
X0044354Y0051102D01*
X0044300Y0051140D01*
X0044245Y0051174D01*
X0044187Y0051205D01*
X0044128Y0051233D01*
X0044067Y0051257D01*
X0044005Y0051278D01*
X0043941Y0051295D01*
X0043877Y0051308D01*
X0043813Y0051317D01*
X0043747Y0051323D01*
X0043682Y0051325D01*
X0040532Y0051325D02*
X0038032Y0048575D01*
X0041353Y0054754D02*
X0041353Y0060754D01*
X0048853Y0060754D01*
X0048853Y0054754D01*
X0050540Y0059754D02*
X0050540Y0048754D01*
X0055540Y0048754D01*
X0055540Y0059754D01*
X0050540Y0059754D01*
X0047665Y0066504D02*
X0047665Y0080504D01*
X0040165Y0080504D01*
X0040165Y0066504D01*
X0047665Y0066504D01*
X0049665Y0081296D02*
X0038165Y0081296D01*
X0038165Y0086796D01*
X0049665Y0086796D01*
X0049665Y0081296D01*
X0049665Y0087587D02*
X0038165Y0087587D01*
X0038165Y0093087D01*
X0049665Y0093087D01*
X0049665Y0087587D01*
X0049665Y0097629D02*
X0038165Y0097629D01*
X0038165Y0103129D01*
X0049665Y0103129D01*
X0049665Y0097629D01*
X0049665Y0103921D02*
X0038165Y0103921D01*
X0038165Y0109421D01*
X0049665Y0109421D01*
X0049665Y0103921D01*
X0050790Y0105254D02*
X0050790Y0116754D01*
X0056290Y0116754D01*
X0056290Y0105254D01*
X0050790Y0105254D01*
X0049415Y0113504D02*
X0038415Y0113504D01*
X0038415Y0118504D01*
X0049415Y0118504D01*
X0049415Y0113504D01*
X0058415Y0113962D02*
X0058415Y0118962D01*
X0069415Y0118962D01*
X0069415Y0113962D01*
X0058415Y0113962D01*
X0071706Y0101444D02*
X0071706Y0098744D01*
X0071706Y0099794D02*
X0073206Y0101444D01*
X0074427Y0100844D02*
X0075177Y0101444D01*
X0075177Y0098744D01*
X0074427Y0098744D02*
X0075927Y0098744D01*
X0073206Y0098744D02*
X0072306Y0100394D01*
X0093134Y0108504D02*
X0093134Y0116004D01*
X0107134Y0116004D01*
X0107134Y0108504D01*
X0093134Y0108504D01*
X0104784Y0097654D02*
X0104719Y0097652D01*
X0104653Y0097646D01*
X0104589Y0097637D01*
X0104525Y0097624D01*
X0104461Y0097607D01*
X0104399Y0097586D01*
X0104338Y0097562D01*
X0104279Y0097534D01*
X0104222Y0097503D01*
X0104166Y0097469D01*
X0104112Y0097431D01*
X0104061Y0097391D01*
X0104012Y0097347D01*
X0103966Y0097301D01*
X0103922Y0097252D01*
X0103882Y0097201D01*
X0103844Y0097147D01*
X0103810Y0097092D01*
X0103779Y0097034D01*
X0103751Y0096975D01*
X0103727Y0096914D01*
X0103706Y0096852D01*
X0103689Y0096788D01*
X0103676Y0096724D01*
X0103667Y0096660D01*
X0103661Y0096594D01*
X0103659Y0096529D01*
X0104784Y0097654D02*
X0104849Y0097652D01*
X0104914Y0097647D01*
X0104979Y0097638D01*
X0105043Y0097626D01*
X0105106Y0097610D01*
X0105168Y0097591D01*
X0105230Y0097569D01*
X0105290Y0097543D01*
X0105348Y0097514D01*
X0105405Y0097482D01*
X0105460Y0097447D01*
X0105513Y0097409D01*
X0105564Y0097369D01*
X0105613Y0097325D01*
X0105659Y0097279D01*
X0108159Y0095154D01*
X0108159Y0097654D01*
X0104659Y0095154D02*
X0104590Y0095178D01*
X0104523Y0095206D01*
X0104457Y0095237D01*
X0104393Y0095271D01*
X0104331Y0095308D01*
X0104270Y0095349D01*
X0104212Y0095392D01*
X0104156Y0095438D01*
X0104102Y0095488D01*
X0104051Y0095539D01*
X0104003Y0095593D01*
X0103957Y0095650D01*
X0103914Y0095709D01*
X0103875Y0095770D01*
X0103838Y0095832D01*
X0103805Y0095897D01*
X0103774Y0095963D01*
X0103748Y0096031D01*
X0103724Y0096099D01*
X0103704Y0096169D01*
X0103688Y0096240D01*
X0103675Y0096312D01*
X0103666Y0096384D01*
X0103661Y0096456D01*
X0103659Y0096529D01*
X0103659Y0093004D02*
X0103659Y0091504D01*
X0103661Y0091444D01*
X0103666Y0091383D01*
X0103675Y0091324D01*
X0103688Y0091265D01*
X0103704Y0091206D01*
X0103724Y0091149D01*
X0103747Y0091094D01*
X0103774Y0091039D01*
X0103803Y0090987D01*
X0103836Y0090936D01*
X0103872Y0090887D01*
X0103910Y0090841D01*
X0103952Y0090797D01*
X0103996Y0090755D01*
X0104042Y0090717D01*
X0104091Y0090681D01*
X0104142Y0090648D01*
X0104194Y0090619D01*
X0104249Y0090592D01*
X0104304Y0090569D01*
X0104361Y0090549D01*
X0104420Y0090533D01*
X0104479Y0090520D01*
X0104538Y0090511D01*
X0104599Y0090506D01*
X0104659Y0090504D01*
X0107159Y0090504D01*
X0107219Y0090506D01*
X0107280Y0090511D01*
X0107339Y0090520D01*
X0107398Y0090533D01*
X0107457Y0090549D01*
X0107514Y0090569D01*
X0107569Y0090592D01*
X0107624Y0090619D01*
X0107676Y0090648D01*
X0107727Y0090681D01*
X0107776Y0090717D01*
X0107822Y0090755D01*
X0107866Y0090797D01*
X0107908Y0090841D01*
X0107946Y0090887D01*
X0107982Y0090936D01*
X0108015Y0090987D01*
X0108044Y0091039D01*
X0108071Y0091094D01*
X0108094Y0091149D01*
X0108114Y0091206D01*
X0108130Y0091265D01*
X0108143Y0091324D01*
X0108152Y0091383D01*
X0108157Y0091444D01*
X0108159Y0091504D01*
X0108159Y0093004D01*
X0105659Y0093004D01*
X0105659Y0092254D01*
X0105841Y0077606D02*
X0104341Y0077606D01*
X0104341Y0077306D01*
X0102865Y0077606D02*
X0102865Y0074906D01*
X0102865Y0076406D02*
X0101365Y0076406D01*
X0101365Y0077606D02*
X0101365Y0074906D01*
X0100078Y0074906D02*
X0098878Y0074906D01*
X0098878Y0077606D01*
X0097543Y0077606D02*
X0096643Y0074906D01*
X0095743Y0077606D01*
X0094213Y0077606D02*
X0094146Y0077604D01*
X0094079Y0077598D01*
X0094012Y0077589D01*
X0093946Y0077576D01*
X0093881Y0077559D01*
X0093817Y0077539D01*
X0093754Y0077515D01*
X0093692Y0077487D01*
X0093633Y0077456D01*
X0093575Y0077422D01*
X0093519Y0077385D01*
X0093465Y0077344D01*
X0093413Y0077301D01*
X0093364Y0077255D01*
X0093318Y0077206D01*
X0093275Y0077154D01*
X0093234Y0077100D01*
X0093197Y0077044D01*
X0093163Y0076986D01*
X0093132Y0076927D01*
X0093104Y0076865D01*
X0093080Y0076802D01*
X0093060Y0076738D01*
X0093043Y0076673D01*
X0093030Y0076607D01*
X0093021Y0076540D01*
X0093015Y0076473D01*
X0093013Y0076406D01*
X0093013Y0075656D01*
X0093013Y0076406D02*
X0093913Y0076406D01*
X0093960Y0076404D01*
X0094007Y0076399D01*
X0094053Y0076389D01*
X0094098Y0076377D01*
X0094143Y0076360D01*
X0094185Y0076341D01*
X0094226Y0076318D01*
X0094266Y0076291D01*
X0094303Y0076262D01*
X0094337Y0076230D01*
X0094369Y0076196D01*
X0094398Y0076159D01*
X0094425Y0076119D01*
X0094448Y0076078D01*
X0094467Y0076036D01*
X0094484Y0075991D01*
X0094496Y0075946D01*
X0094506Y0075900D01*
X0094511Y0075853D01*
X0094513Y0075806D01*
X0094513Y0075656D01*
X0094511Y0075602D01*
X0094505Y0075549D01*
X0094496Y0075497D01*
X0094483Y0075445D01*
X0094466Y0075394D01*
X0094445Y0075344D01*
X0094421Y0075297D01*
X0094394Y0075251D01*
X0094363Y0075207D01*
X0094330Y0075165D01*
X0094293Y0075126D01*
X0094254Y0075089D01*
X0094212Y0075056D01*
X0094168Y0075025D01*
X0094122Y0074998D01*
X0094075Y0074974D01*
X0094025Y0074953D01*
X0093974Y0074936D01*
X0093922Y0074923D01*
X0093870Y0074914D01*
X0093817Y0074908D01*
X0093763Y0074906D01*
X0093709Y0074908D01*
X0093656Y0074914D01*
X0093604Y0074923D01*
X0093552Y0074936D01*
X0093501Y0074953D01*
X0093451Y0074974D01*
X0093404Y0074998D01*
X0093358Y0075025D01*
X0093314Y0075056D01*
X0093272Y0075089D01*
X0093233Y0075126D01*
X0093196Y0075165D01*
X0093163Y0075207D01*
X0093132Y0075251D01*
X0093105Y0075297D01*
X0093081Y0075344D01*
X0093060Y0075394D01*
X0093043Y0075445D01*
X0093030Y0075497D01*
X0093021Y0075549D01*
X0093015Y0075602D01*
X0093013Y0075656D01*
X0091634Y0075506D02*
X0091634Y0075806D01*
X0091632Y0075853D01*
X0091627Y0075900D01*
X0091617Y0075946D01*
X0091605Y0075991D01*
X0091588Y0076036D01*
X0091569Y0076078D01*
X0091546Y0076119D01*
X0091519Y0076159D01*
X0091490Y0076196D01*
X0091458Y0076230D01*
X0091424Y0076262D01*
X0091387Y0076291D01*
X0091347Y0076318D01*
X0091306Y0076341D01*
X0091264Y0076360D01*
X0091219Y0076377D01*
X0091174Y0076389D01*
X0091128Y0076399D01*
X0091081Y0076404D01*
X0091034Y0076406D01*
X0090134Y0076406D01*
X0090134Y0077606D01*
X0091634Y0077606D01*
X0091634Y0075506D02*
X0091632Y0075459D01*
X0091627Y0075412D01*
X0091617Y0075366D01*
X0091605Y0075321D01*
X0091588Y0075276D01*
X0091569Y0075234D01*
X0091546Y0075193D01*
X0091519Y0075153D01*
X0091490Y0075116D01*
X0091458Y0075082D01*
X0091424Y0075050D01*
X0091387Y0075021D01*
X0091347Y0074994D01*
X0091306Y0074971D01*
X0091264Y0074952D01*
X0091219Y0074935D01*
X0091174Y0074923D01*
X0091128Y0074913D01*
X0091081Y0074908D01*
X0091034Y0074906D01*
X0090134Y0074906D01*
X0088754Y0074906D02*
X0087254Y0074906D01*
X0088529Y0076406D01*
X0088079Y0077605D02*
X0088022Y0077603D01*
X0087965Y0077597D01*
X0087908Y0077588D01*
X0087852Y0077575D01*
X0087797Y0077558D01*
X0087744Y0077538D01*
X0087692Y0077514D01*
X0087641Y0077486D01*
X0087593Y0077456D01*
X0087546Y0077422D01*
X0087502Y0077385D01*
X0087461Y0077346D01*
X0087422Y0077303D01*
X0087386Y0077259D01*
X0087353Y0077212D01*
X0087323Y0077163D01*
X0087297Y0077112D01*
X0087274Y0077059D01*
X0087254Y0077005D01*
X0088529Y0076406D02*
X0088566Y0076444D01*
X0088601Y0076485D01*
X0088632Y0076528D01*
X0088660Y0076574D01*
X0088684Y0076621D01*
X0088705Y0076670D01*
X0088723Y0076721D01*
X0088736Y0076772D01*
X0088746Y0076825D01*
X0088752Y0076878D01*
X0088754Y0076931D01*
X0088752Y0076981D01*
X0088746Y0077032D01*
X0088737Y0077081D01*
X0088724Y0077130D01*
X0088707Y0077178D01*
X0088687Y0077224D01*
X0088664Y0077269D01*
X0088637Y0077311D01*
X0088607Y0077352D01*
X0088574Y0077390D01*
X0088538Y0077426D01*
X0088500Y0077459D01*
X0088459Y0077489D01*
X0088417Y0077516D01*
X0088372Y0077539D01*
X0088326Y0077559D01*
X0088278Y0077576D01*
X0088229Y0077589D01*
X0088180Y0077598D01*
X0088129Y0077604D01*
X0088079Y0077606D01*
X0086024Y0077606D02*
X0084224Y0074906D01*
X0082898Y0075656D02*
X0082898Y0076856D01*
X0082896Y0076910D01*
X0082890Y0076963D01*
X0082881Y0077015D01*
X0082868Y0077067D01*
X0082851Y0077118D01*
X0082830Y0077168D01*
X0082806Y0077215D01*
X0082779Y0077261D01*
X0082748Y0077305D01*
X0082715Y0077347D01*
X0082678Y0077386D01*
X0082639Y0077423D01*
X0082597Y0077456D01*
X0082553Y0077487D01*
X0082507Y0077514D01*
X0082460Y0077538D01*
X0082410Y0077559D01*
X0082359Y0077576D01*
X0082307Y0077589D01*
X0082255Y0077598D01*
X0082202Y0077604D01*
X0082148Y0077606D01*
X0081398Y0077606D01*
X0081398Y0074906D01*
X0082148Y0074906D01*
X0082202Y0074908D01*
X0082255Y0074914D01*
X0082307Y0074923D01*
X0082359Y0074936D01*
X0082410Y0074953D01*
X0082460Y0074974D01*
X0082507Y0074998D01*
X0082553Y0075025D01*
X0082597Y0075056D01*
X0082639Y0075089D01*
X0082678Y0075126D01*
X0082715Y0075165D01*
X0082748Y0075207D01*
X0082779Y0075251D01*
X0082806Y0075297D01*
X0082830Y0075344D01*
X0082851Y0075394D01*
X0082868Y0075445D01*
X0082881Y0075497D01*
X0082890Y0075549D01*
X0082896Y0075602D01*
X0082898Y0075656D01*
X0078647Y0075281D02*
X0078609Y0075364D01*
X0078573Y0075449D01*
X0078542Y0075535D01*
X0078514Y0075623D01*
X0078490Y0075711D01*
X0078469Y0075800D01*
X0078452Y0075891D01*
X0078439Y0075981D01*
X0078430Y0076073D01*
X0078424Y0076164D01*
X0078422Y0076256D01*
X0079922Y0076256D02*
X0079920Y0076164D01*
X0079914Y0076073D01*
X0079905Y0075981D01*
X0079892Y0075891D01*
X0079875Y0075800D01*
X0079854Y0075711D01*
X0079830Y0075623D01*
X0079802Y0075535D01*
X0079771Y0075449D01*
X0079735Y0075364D01*
X0079697Y0075281D01*
X0079680Y0075238D01*
X0079660Y0075197D01*
X0079637Y0075158D01*
X0079610Y0075120D01*
X0079580Y0075085D01*
X0079548Y0075053D01*
X0079513Y0075023D01*
X0079476Y0074996D01*
X0079436Y0074973D01*
X0079395Y0074953D01*
X0079352Y0074936D01*
X0079308Y0074923D01*
X0079263Y0074914D01*
X0079218Y0074908D01*
X0079172Y0074906D01*
X0079126Y0074908D01*
X0079081Y0074914D01*
X0079036Y0074923D01*
X0078992Y0074936D01*
X0078949Y0074953D01*
X0078908Y0074973D01*
X0078868Y0074996D01*
X0078831Y0075023D01*
X0078796Y0075053D01*
X0078764Y0075085D01*
X0078734Y0075120D01*
X0078707Y0075158D01*
X0078684Y0075197D01*
X0078664Y0075238D01*
X0078647Y0075281D01*
X0078572Y0075506D02*
X0079772Y0077006D01*
X0079697Y0077231D02*
X0079680Y0077274D01*
X0079660Y0077315D01*
X0079637Y0077354D01*
X0079610Y0077392D01*
X0079580Y0077427D01*
X0079548Y0077459D01*
X0079513Y0077489D01*
X0079476Y0077516D01*
X0079436Y0077539D01*
X0079395Y0077559D01*
X0079352Y0077576D01*
X0079308Y0077589D01*
X0079263Y0077598D01*
X0079218Y0077604D01*
X0079172Y0077606D01*
X0079126Y0077604D01*
X0079081Y0077598D01*
X0079036Y0077589D01*
X0078992Y0077576D01*
X0078949Y0077559D01*
X0078908Y0077539D01*
X0078868Y0077516D01*
X0078831Y0077489D01*
X0078796Y0077459D01*
X0078764Y0077427D01*
X0078734Y0077392D01*
X0078707Y0077354D01*
X0078684Y0077315D01*
X0078664Y0077274D01*
X0078647Y0077231D01*
X0079697Y0077231D02*
X0079735Y0077148D01*
X0079771Y0077063D01*
X0079802Y0076977D01*
X0079830Y0076889D01*
X0079854Y0076801D01*
X0079875Y0076712D01*
X0079892Y0076621D01*
X0079905Y0076531D01*
X0079914Y0076439D01*
X0079920Y0076348D01*
X0079922Y0076256D01*
X0078422Y0076256D02*
X0078424Y0076348D01*
X0078430Y0076439D01*
X0078439Y0076531D01*
X0078452Y0076621D01*
X0078469Y0076712D01*
X0078490Y0076801D01*
X0078514Y0076889D01*
X0078542Y0076977D01*
X0078573Y0077063D01*
X0078609Y0077148D01*
X0078647Y0077231D01*
X0076817Y0076406D02*
X0075542Y0074906D01*
X0077042Y0074906D01*
X0075542Y0077005D02*
X0075562Y0077059D01*
X0075585Y0077112D01*
X0075611Y0077163D01*
X0075641Y0077212D01*
X0075674Y0077259D01*
X0075710Y0077303D01*
X0075749Y0077346D01*
X0075790Y0077385D01*
X0075834Y0077422D01*
X0075881Y0077456D01*
X0075929Y0077486D01*
X0075980Y0077514D01*
X0076032Y0077538D01*
X0076085Y0077558D01*
X0076140Y0077575D01*
X0076196Y0077588D01*
X0076253Y0077597D01*
X0076310Y0077603D01*
X0076367Y0077605D01*
X0076367Y0077606D02*
X0076417Y0077604D01*
X0076468Y0077598D01*
X0076517Y0077589D01*
X0076566Y0077576D01*
X0076614Y0077559D01*
X0076660Y0077539D01*
X0076705Y0077516D01*
X0076747Y0077489D01*
X0076788Y0077459D01*
X0076826Y0077426D01*
X0076862Y0077390D01*
X0076895Y0077352D01*
X0076925Y0077311D01*
X0076952Y0077269D01*
X0076975Y0077224D01*
X0076995Y0077178D01*
X0077012Y0077130D01*
X0077025Y0077081D01*
X0077034Y0077032D01*
X0077040Y0076981D01*
X0077042Y0076931D01*
X0077040Y0076878D01*
X0077034Y0076825D01*
X0077024Y0076772D01*
X0077011Y0076721D01*
X0076993Y0076670D01*
X0076972Y0076621D01*
X0076948Y0076574D01*
X0076920Y0076528D01*
X0076889Y0076485D01*
X0076854Y0076444D01*
X0076817Y0076406D01*
X0074321Y0077606D02*
X0072821Y0075956D01*
X0073421Y0076556D02*
X0074321Y0074906D01*
X0072821Y0074906D02*
X0072821Y0077606D01*
X0071144Y0077606D02*
X0070244Y0076106D01*
X0069344Y0077606D01*
X0069344Y0074906D01*
X0071144Y0074906D02*
X0071144Y0077606D01*
X0084224Y0077606D02*
X0086024Y0074906D01*
X0087954Y0060288D02*
X0082454Y0060288D01*
X0082454Y0048788D01*
X0087954Y0048788D01*
X0087954Y0060288D01*
X0092544Y0060504D02*
X0098044Y0060504D01*
X0098044Y0049004D01*
X0092544Y0049004D01*
X0092544Y0060504D01*
X0093790Y0047889D02*
X0100790Y0047889D01*
X0100790Y0035389D01*
X0093790Y0035389D01*
X0093790Y0047889D01*
X0095290Y0042389D02*
X0096290Y0041639D01*
X0096290Y0042389D01*
X0095290Y0042389D01*
X0096290Y0042389D02*
X0097290Y0042389D01*
X0096290Y0041639D01*
X0097290Y0040889D01*
X0099290Y0042389D01*
X0097040Y0041139D01*
X0098290Y0042389D01*
X0096790Y0041389D01*
X0097290Y0042389D01*
X0098290Y0042389D01*
X0099290Y0042389D01*
X0102790Y0034754D02*
X0091790Y0034754D01*
X0091790Y0029754D01*
X0102790Y0029754D01*
X0102790Y0034754D01*
X0084290Y0018250D02*
X0084290Y0012750D01*
X0072790Y0012750D01*
X0072790Y0018250D01*
X0084290Y0018250D01*
X0084290Y0012000D02*
X0084290Y0006500D01*
X0072790Y0006500D01*
X0072790Y0012000D01*
X0084290Y0012000D01*
X0077622Y0048788D02*
X0072122Y0048788D01*
X0072122Y0060288D01*
X0077622Y0060288D01*
X0077622Y0048788D01*
X0067290Y0048788D02*
X0067290Y0051788D01*
X0067290Y0048788D02*
X0063790Y0048788D01*
X0062290Y0053788D02*
X0062290Y0055288D01*
X0063790Y0060288D02*
X0067290Y0060288D01*
X0067290Y0057288D01*
X0105091Y0074906D02*
X0105841Y0077606D01*
X0036290Y0105254D02*
X0030790Y0105254D01*
X0030790Y0116754D01*
X0036290Y0116754D01*
X0036290Y0105254D01*
X0027040Y0109198D02*
X0027040Y0109726D01*
X0027040Y0109198D02*
X0026407Y0109198D01*
X0027040Y0109198D02*
X0027038Y0109143D01*
X0027033Y0109088D01*
X0027024Y0109033D01*
X0027011Y0108980D01*
X0026995Y0108927D01*
X0026976Y0108875D01*
X0026953Y0108825D01*
X0026927Y0108776D01*
X0026898Y0108729D01*
X0026866Y0108684D01*
X0026831Y0108642D01*
X0026793Y0108601D01*
X0026752Y0108563D01*
X0026710Y0108528D01*
X0026665Y0108496D01*
X0026618Y0108467D01*
X0026569Y0108441D01*
X0026519Y0108418D01*
X0026467Y0108399D01*
X0026414Y0108383D01*
X0026361Y0108370D01*
X0026306Y0108361D01*
X0026251Y0108356D01*
X0026196Y0108354D01*
X0026407Y0109199D02*
X0026368Y0109201D01*
X0026329Y0109206D01*
X0026292Y0109215D01*
X0026255Y0109227D01*
X0026219Y0109243D01*
X0026185Y0109262D01*
X0026153Y0109284D01*
X0026123Y0109309D01*
X0026095Y0109337D01*
X0026070Y0109367D01*
X0026048Y0109399D01*
X0026029Y0109433D01*
X0026013Y0109469D01*
X0026001Y0109506D01*
X0025992Y0109543D01*
X0025987Y0109582D01*
X0025985Y0109621D01*
X0025984Y0109621D02*
X0025984Y0109726D01*
X0025986Y0109771D01*
X0025992Y0109815D01*
X0026001Y0109859D01*
X0026014Y0109902D01*
X0026031Y0109943D01*
X0026051Y0109984D01*
X0026075Y0110022D01*
X0026101Y0110058D01*
X0026131Y0110091D01*
X0026163Y0110122D01*
X0026198Y0110151D01*
X0026235Y0110176D01*
X0026274Y0110197D01*
X0026315Y0110216D01*
X0026357Y0110231D01*
X0026401Y0110242D01*
X0026445Y0110250D01*
X0026490Y0110254D01*
X0026534Y0110254D01*
X0026579Y0110250D01*
X0026623Y0110242D01*
X0026667Y0110231D01*
X0026709Y0110216D01*
X0026750Y0110197D01*
X0026789Y0110176D01*
X0026826Y0110151D01*
X0026861Y0110122D01*
X0026893Y0110091D01*
X0026923Y0110058D01*
X0026949Y0110022D01*
X0026973Y0109984D01*
X0026993Y0109943D01*
X0027010Y0109902D01*
X0027023Y0109859D01*
X0027032Y0109815D01*
X0027038Y0109771D01*
X0027040Y0109726D01*
X0024824Y0110254D02*
X0024824Y0108776D01*
X0024822Y0108737D01*
X0024817Y0108698D01*
X0024808Y0108661D01*
X0024796Y0108624D01*
X0024780Y0108588D01*
X0024761Y0108554D01*
X0024739Y0108522D01*
X0024714Y0108492D01*
X0024686Y0108464D01*
X0024656Y0108439D01*
X0024624Y0108417D01*
X0024590Y0108398D01*
X0024554Y0108382D01*
X0024517Y0108370D01*
X0024480Y0108361D01*
X0024441Y0108356D01*
X0024402Y0108354D01*
X0024191Y0108354D01*
X0031523Y0121887D02*
X0033001Y0121887D01*
X0033040Y0121885D01*
X0033079Y0121880D01*
X0033116Y0121871D01*
X0033153Y0121859D01*
X0033189Y0121843D01*
X0033223Y0121824D01*
X0033255Y0121802D01*
X0033285Y0121777D01*
X0033313Y0121749D01*
X0033338Y0121719D01*
X0033360Y0121687D01*
X0033379Y0121653D01*
X0033395Y0121617D01*
X0033407Y0121580D01*
X0033416Y0121543D01*
X0033421Y0121504D01*
X0033423Y0121465D01*
X0033423Y0121254D01*
X0033001Y0123048D02*
X0031523Y0123470D01*
X0032579Y0123787D02*
X0033423Y0123787D01*
X0033001Y0124103D02*
X0033001Y0123048D01*
X0010389Y0113654D02*
X0009862Y0111754D01*
X0008173Y0112176D02*
X0008173Y0113654D01*
X0009334Y0113654D02*
X0010389Y0113654D01*
X0009334Y0113654D02*
X0009334Y0113443D01*
X0008173Y0112176D02*
X0008171Y0112137D01*
X0008166Y0112098D01*
X0008157Y0112061D01*
X0008145Y0112024D01*
X0008129Y0111988D01*
X0008110Y0111954D01*
X0008088Y0111922D01*
X0008063Y0111892D01*
X0008035Y0111864D01*
X0008005Y0111839D01*
X0007973Y0111817D01*
X0007939Y0111798D01*
X0007903Y0111782D01*
X0007866Y0111770D01*
X0007829Y0111761D01*
X0007790Y0111756D01*
X0007751Y0111754D01*
X0007540Y0111754D01*
D12*
X0037240Y0113456D02*
X0037240Y0114317D01*
X0037240Y0113456D02*
X0040340Y0113456D01*
X0040493Y0113471D02*
X0039804Y0113471D01*
X0039752Y0113469D01*
X0039701Y0113463D01*
X0039651Y0113454D01*
X0039601Y0113440D01*
X0039552Y0113423D01*
X0039505Y0113403D01*
X0039459Y0113379D01*
X0039416Y0113351D01*
X0039374Y0113321D01*
X0039335Y0113287D01*
X0039299Y0113251D01*
X0039265Y0113212D01*
X0039235Y0113170D01*
X0039207Y0113126D01*
X0039183Y0113081D01*
X0039163Y0113034D01*
X0039146Y0112985D01*
X0039132Y0112935D01*
X0039123Y0112885D01*
X0039117Y0112833D01*
X0039115Y0112782D01*
X0039115Y0111059D01*
X0039117Y0111008D01*
X0039123Y0110956D01*
X0039132Y0110906D01*
X0039146Y0110856D01*
X0039163Y0110807D01*
X0039183Y0110760D01*
X0039207Y0110715D01*
X0039235Y0110671D01*
X0039265Y0110629D01*
X0039299Y0110590D01*
X0039335Y0110554D01*
X0039374Y0110520D01*
X0039416Y0110490D01*
X0039460Y0110462D01*
X0039505Y0110438D01*
X0039552Y0110418D01*
X0039601Y0110401D01*
X0039651Y0110387D01*
X0039701Y0110378D01*
X0039753Y0110372D01*
X0039804Y0110370D01*
X0039804Y0110371D02*
X0040493Y0110371D01*
X0041751Y0110371D02*
X0043473Y0110371D01*
X0042612Y0110371D02*
X0042612Y0113471D01*
X0041751Y0112782D01*
X0040340Y0115179D02*
X0038962Y0114490D01*
X0038962Y0114317D02*
X0038962Y0113456D01*
X0038962Y0114317D02*
X0038960Y0114375D01*
X0038954Y0114432D01*
X0038945Y0114488D01*
X0038931Y0114544D01*
X0038914Y0114599D01*
X0038894Y0114653D01*
X0038869Y0114705D01*
X0038842Y0114756D01*
X0038811Y0114804D01*
X0038777Y0114851D01*
X0038740Y0114895D01*
X0038700Y0114936D01*
X0038657Y0114975D01*
X0038612Y0115010D01*
X0038564Y0115043D01*
X0038515Y0115072D01*
X0038463Y0115098D01*
X0038410Y0115120D01*
X0038356Y0115139D01*
X0038301Y0115155D01*
X0038244Y0115166D01*
X0038187Y0115174D01*
X0038130Y0115178D01*
X0038072Y0115178D01*
X0038015Y0115174D01*
X0037958Y0115166D01*
X0037901Y0115155D01*
X0037846Y0115139D01*
X0037792Y0115120D01*
X0037739Y0115098D01*
X0037687Y0115072D01*
X0037638Y0115043D01*
X0037590Y0115010D01*
X0037545Y0114975D01*
X0037502Y0114936D01*
X0037462Y0114895D01*
X0037425Y0114851D01*
X0037391Y0114804D01*
X0037360Y0114756D01*
X0037333Y0114705D01*
X0037308Y0114653D01*
X0037288Y0114599D01*
X0037271Y0114544D01*
X0037257Y0114488D01*
X0037248Y0114432D01*
X0037242Y0114375D01*
X0037240Y0114317D01*
X0038617Y0118046D02*
X0038577Y0118085D01*
X0038535Y0118122D01*
X0038490Y0118155D01*
X0038443Y0118186D01*
X0038394Y0118213D01*
X0038343Y0118237D01*
X0038290Y0118257D01*
X0038237Y0118274D01*
X0038182Y0118287D01*
X0038127Y0118296D01*
X0038071Y0118302D01*
X0038015Y0118304D01*
X0038618Y0118046D02*
X0040340Y0116582D01*
X0040340Y0118304D01*
X0037929Y0116581D02*
X0037873Y0116602D01*
X0037818Y0116625D01*
X0037765Y0116652D01*
X0037713Y0116681D01*
X0037663Y0116714D01*
X0037616Y0116750D01*
X0037570Y0116788D01*
X0037527Y0116830D01*
X0037486Y0116873D01*
X0037448Y0116919D01*
X0037413Y0116968D01*
X0037381Y0117018D01*
X0037352Y0117070D01*
X0037326Y0117124D01*
X0037304Y0117179D01*
X0037284Y0117235D01*
X0037268Y0117293D01*
X0037256Y0117351D01*
X0037247Y0117410D01*
X0037242Y0117469D01*
X0037240Y0117529D01*
X0037242Y0117584D01*
X0037248Y0117639D01*
X0037258Y0117694D01*
X0037271Y0117747D01*
X0037289Y0117800D01*
X0037310Y0117851D01*
X0037335Y0117900D01*
X0037363Y0117948D01*
X0037395Y0117993D01*
X0037429Y0118037D01*
X0037467Y0118077D01*
X0037507Y0118115D01*
X0037551Y0118149D01*
X0037596Y0118181D01*
X0037644Y0118209D01*
X0037693Y0118234D01*
X0037744Y0118255D01*
X0037797Y0118273D01*
X0037850Y0118286D01*
X0037905Y0118296D01*
X0037960Y0118302D01*
X0038015Y0118304D01*
X0046623Y0112696D02*
X0046621Y0112640D01*
X0046615Y0112584D01*
X0046606Y0112529D01*
X0046593Y0112474D01*
X0046576Y0112421D01*
X0046556Y0112368D01*
X0046532Y0112317D01*
X0046505Y0112268D01*
X0046474Y0112221D01*
X0046441Y0112176D01*
X0046404Y0112134D01*
X0046365Y0112094D01*
X0046365Y0112093D02*
X0044901Y0110371D01*
X0046623Y0110371D01*
X0046367Y0110082D02*
X0047229Y0110082D01*
X0047401Y0110082D02*
X0048090Y0108704D01*
X0049493Y0108704D02*
X0050354Y0108704D01*
X0050412Y0108706D01*
X0050469Y0108712D01*
X0050525Y0108721D01*
X0050581Y0108735D01*
X0050636Y0108752D01*
X0050690Y0108772D01*
X0050742Y0108797D01*
X0050793Y0108824D01*
X0050841Y0108855D01*
X0050888Y0108889D01*
X0050932Y0108926D01*
X0050973Y0108966D01*
X0051012Y0109009D01*
X0051047Y0109054D01*
X0051080Y0109102D01*
X0051109Y0109151D01*
X0051135Y0109203D01*
X0051157Y0109256D01*
X0051176Y0109310D01*
X0051192Y0109365D01*
X0051203Y0109422D01*
X0051211Y0109479D01*
X0051215Y0109536D01*
X0051215Y0109594D01*
X0051211Y0109651D01*
X0051203Y0109708D01*
X0051192Y0109765D01*
X0051176Y0109820D01*
X0051157Y0109874D01*
X0051135Y0109927D01*
X0051109Y0109979D01*
X0051080Y0110028D01*
X0051047Y0110076D01*
X0051012Y0110121D01*
X0050973Y0110164D01*
X0050932Y0110204D01*
X0050888Y0110241D01*
X0050841Y0110275D01*
X0050793Y0110306D01*
X0050742Y0110333D01*
X0050690Y0110358D01*
X0050636Y0110378D01*
X0050581Y0110395D01*
X0050525Y0110409D01*
X0050469Y0110418D01*
X0050412Y0110424D01*
X0050354Y0110426D01*
X0050526Y0110426D02*
X0049837Y0110426D01*
X0050526Y0110426D02*
X0050577Y0110428D01*
X0050629Y0110434D01*
X0050679Y0110443D01*
X0050729Y0110457D01*
X0050778Y0110474D01*
X0050825Y0110494D01*
X0050871Y0110518D01*
X0050914Y0110546D01*
X0050956Y0110576D01*
X0050995Y0110610D01*
X0051031Y0110646D01*
X0051065Y0110685D01*
X0051095Y0110727D01*
X0051123Y0110771D01*
X0051147Y0110816D01*
X0051167Y0110863D01*
X0051184Y0110912D01*
X0051198Y0110962D01*
X0051207Y0111012D01*
X0051213Y0111064D01*
X0051215Y0111115D01*
X0051213Y0111166D01*
X0051207Y0111218D01*
X0051198Y0111268D01*
X0051184Y0111318D01*
X0051167Y0111367D01*
X0051147Y0111414D01*
X0051123Y0111460D01*
X0051095Y0111503D01*
X0051065Y0111545D01*
X0051031Y0111584D01*
X0050995Y0111620D01*
X0050956Y0111654D01*
X0050914Y0111684D01*
X0050870Y0111712D01*
X0050825Y0111736D01*
X0050778Y0111756D01*
X0050729Y0111773D01*
X0050679Y0111787D01*
X0050629Y0111796D01*
X0050577Y0111802D01*
X0050526Y0111804D01*
X0049493Y0111804D01*
X0047229Y0111804D02*
X0046367Y0111804D01*
X0046367Y0108704D01*
X0045762Y0107179D02*
X0045762Y0104079D01*
X0044901Y0104079D02*
X0046623Y0104079D01*
X0044901Y0106490D02*
X0045762Y0107179D01*
X0042612Y0107179D02*
X0042612Y0104079D01*
X0041751Y0104079D02*
X0043473Y0104079D01*
X0041751Y0106490D02*
X0042612Y0107179D01*
X0040493Y0107179D02*
X0039804Y0107179D01*
X0039752Y0107177D01*
X0039701Y0107171D01*
X0039651Y0107162D01*
X0039601Y0107148D01*
X0039552Y0107131D01*
X0039505Y0107111D01*
X0039459Y0107087D01*
X0039416Y0107059D01*
X0039374Y0107029D01*
X0039335Y0106995D01*
X0039299Y0106959D01*
X0039265Y0106920D01*
X0039235Y0106878D01*
X0039207Y0106834D01*
X0039183Y0106789D01*
X0039163Y0106742D01*
X0039146Y0106693D01*
X0039132Y0106643D01*
X0039123Y0106593D01*
X0039117Y0106541D01*
X0039115Y0106490D01*
X0039115Y0104768D01*
X0039117Y0104717D01*
X0039123Y0104665D01*
X0039132Y0104615D01*
X0039146Y0104565D01*
X0039163Y0104516D01*
X0039183Y0104469D01*
X0039207Y0104424D01*
X0039235Y0104380D01*
X0039265Y0104338D01*
X0039299Y0104299D01*
X0039335Y0104263D01*
X0039374Y0104229D01*
X0039416Y0104199D01*
X0039460Y0104171D01*
X0039505Y0104147D01*
X0039552Y0104127D01*
X0039601Y0104110D01*
X0039651Y0104096D01*
X0039701Y0104087D01*
X0039753Y0104081D01*
X0039804Y0104079D01*
X0040493Y0104079D01*
X0040493Y0097137D02*
X0039804Y0097137D01*
X0039752Y0097135D01*
X0039701Y0097129D01*
X0039651Y0097120D01*
X0039601Y0097106D01*
X0039552Y0097089D01*
X0039505Y0097069D01*
X0039459Y0097045D01*
X0039416Y0097017D01*
X0039374Y0096987D01*
X0039335Y0096953D01*
X0039299Y0096917D01*
X0039265Y0096878D01*
X0039235Y0096836D01*
X0039207Y0096792D01*
X0039183Y0096747D01*
X0039163Y0096700D01*
X0039146Y0096651D01*
X0039132Y0096601D01*
X0039123Y0096551D01*
X0039117Y0096499D01*
X0039115Y0096448D01*
X0039115Y0094726D01*
X0039117Y0094675D01*
X0039123Y0094623D01*
X0039132Y0094573D01*
X0039146Y0094523D01*
X0039163Y0094474D01*
X0039183Y0094427D01*
X0039207Y0094382D01*
X0039235Y0094338D01*
X0039265Y0094296D01*
X0039299Y0094257D01*
X0039335Y0094221D01*
X0039374Y0094187D01*
X0039416Y0094157D01*
X0039460Y0094129D01*
X0039505Y0094105D01*
X0039552Y0094085D01*
X0039601Y0094068D01*
X0039651Y0094054D01*
X0039701Y0094045D01*
X0039753Y0094039D01*
X0039804Y0094037D01*
X0040493Y0094037D01*
X0041751Y0094037D02*
X0043473Y0094037D01*
X0042612Y0094037D02*
X0042612Y0097137D01*
X0041751Y0096448D01*
X0046624Y0095587D02*
X0046622Y0095490D01*
X0046617Y0095394D01*
X0046608Y0095298D01*
X0046595Y0095202D01*
X0046579Y0095107D01*
X0046559Y0095012D01*
X0046535Y0094919D01*
X0046508Y0094826D01*
X0046478Y0094734D01*
X0046444Y0094644D01*
X0046406Y0094555D01*
X0046366Y0094467D01*
X0046365Y0094467D02*
X0046347Y0094421D01*
X0046325Y0094377D01*
X0046301Y0094334D01*
X0046273Y0094293D01*
X0046242Y0094255D01*
X0046208Y0094219D01*
X0046171Y0094186D01*
X0046132Y0094156D01*
X0046091Y0094129D01*
X0046048Y0094105D01*
X0046003Y0094084D01*
X0045956Y0094067D01*
X0045909Y0094054D01*
X0045860Y0094045D01*
X0045811Y0094039D01*
X0045762Y0094037D01*
X0045713Y0094039D01*
X0045664Y0094045D01*
X0045615Y0094054D01*
X0045568Y0094067D01*
X0045521Y0094084D01*
X0045476Y0094105D01*
X0045433Y0094129D01*
X0045392Y0094156D01*
X0045353Y0094186D01*
X0045316Y0094219D01*
X0045282Y0094255D01*
X0045251Y0094293D01*
X0045223Y0094334D01*
X0045199Y0094377D01*
X0045177Y0094421D01*
X0045159Y0094467D01*
X0045073Y0094726D02*
X0046451Y0096448D01*
X0046365Y0096707D02*
X0046347Y0096753D01*
X0046325Y0096797D01*
X0046301Y0096840D01*
X0046273Y0096881D01*
X0046242Y0096919D01*
X0046208Y0096955D01*
X0046171Y0096988D01*
X0046132Y0097018D01*
X0046091Y0097045D01*
X0046048Y0097069D01*
X0046003Y0097090D01*
X0045956Y0097107D01*
X0045909Y0097120D01*
X0045860Y0097129D01*
X0045811Y0097135D01*
X0045762Y0097137D01*
X0045713Y0097135D01*
X0045664Y0097129D01*
X0045615Y0097120D01*
X0045568Y0097107D01*
X0045521Y0097090D01*
X0045476Y0097069D01*
X0045433Y0097045D01*
X0045392Y0097018D01*
X0045353Y0096988D01*
X0045316Y0096955D01*
X0045282Y0096919D01*
X0045251Y0096881D01*
X0045223Y0096840D01*
X0045199Y0096797D01*
X0045177Y0096753D01*
X0045159Y0096707D01*
X0046366Y0096707D02*
X0046406Y0096619D01*
X0046444Y0096530D01*
X0046478Y0096440D01*
X0046508Y0096348D01*
X0046535Y0096255D01*
X0046559Y0096162D01*
X0046578Y0096067D01*
X0046595Y0095972D01*
X0046608Y0095876D01*
X0046617Y0095780D01*
X0046622Y0095684D01*
X0046624Y0095587D01*
X0044901Y0095587D02*
X0044903Y0095684D01*
X0044908Y0095780D01*
X0044917Y0095876D01*
X0044930Y0095972D01*
X0044946Y0096067D01*
X0044966Y0096162D01*
X0044990Y0096255D01*
X0045017Y0096348D01*
X0045047Y0096440D01*
X0045081Y0096530D01*
X0045119Y0096619D01*
X0045159Y0096707D01*
X0044901Y0095587D02*
X0044903Y0095490D01*
X0044908Y0095394D01*
X0044917Y0095298D01*
X0044930Y0095202D01*
X0044946Y0095107D01*
X0044966Y0095012D01*
X0044990Y0094919D01*
X0045017Y0094826D01*
X0045047Y0094734D01*
X0045081Y0094644D01*
X0045119Y0094555D01*
X0045159Y0094467D01*
X0040493Y0090846D02*
X0039804Y0090846D01*
X0039752Y0090844D01*
X0039701Y0090838D01*
X0039651Y0090829D01*
X0039601Y0090815D01*
X0039552Y0090798D01*
X0039505Y0090778D01*
X0039459Y0090754D01*
X0039416Y0090726D01*
X0039374Y0090696D01*
X0039335Y0090662D01*
X0039299Y0090626D01*
X0039265Y0090587D01*
X0039235Y0090545D01*
X0039207Y0090501D01*
X0039183Y0090456D01*
X0039163Y0090409D01*
X0039146Y0090360D01*
X0039132Y0090310D01*
X0039123Y0090260D01*
X0039117Y0090208D01*
X0039115Y0090157D01*
X0039115Y0088434D01*
X0039117Y0088383D01*
X0039123Y0088331D01*
X0039132Y0088281D01*
X0039146Y0088231D01*
X0039163Y0088182D01*
X0039183Y0088135D01*
X0039207Y0088090D01*
X0039235Y0088046D01*
X0039265Y0088004D01*
X0039299Y0087965D01*
X0039335Y0087929D01*
X0039374Y0087895D01*
X0039416Y0087865D01*
X0039460Y0087837D01*
X0039505Y0087813D01*
X0039552Y0087793D01*
X0039601Y0087776D01*
X0039651Y0087762D01*
X0039701Y0087753D01*
X0039753Y0087747D01*
X0039804Y0087745D01*
X0039804Y0087746D02*
X0040493Y0087746D01*
X0042096Y0087745D02*
X0042168Y0087747D01*
X0042240Y0087753D01*
X0042312Y0087762D01*
X0042382Y0087775D01*
X0042453Y0087792D01*
X0042522Y0087812D01*
X0042590Y0087837D01*
X0042656Y0087864D01*
X0042722Y0087895D01*
X0042785Y0087930D01*
X0042847Y0087967D01*
X0042906Y0088008D01*
X0042963Y0088052D01*
X0043018Y0088099D01*
X0043070Y0088149D01*
X0043120Y0088201D01*
X0043167Y0088256D01*
X0043211Y0088313D01*
X0043252Y0088372D01*
X0043289Y0088434D01*
X0043324Y0088497D01*
X0043355Y0088563D01*
X0043382Y0088629D01*
X0043407Y0088697D01*
X0043427Y0088766D01*
X0043444Y0088836D01*
X0043457Y0088907D01*
X0043466Y0088979D01*
X0043472Y0089051D01*
X0043474Y0089123D01*
X0043473Y0089123D02*
X0043473Y0089984D01*
X0043473Y0089123D02*
X0042440Y0089123D01*
X0042389Y0089125D01*
X0042337Y0089131D01*
X0042287Y0089140D01*
X0042237Y0089154D01*
X0042188Y0089171D01*
X0042141Y0089191D01*
X0042095Y0089215D01*
X0042052Y0089243D01*
X0042010Y0089273D01*
X0041971Y0089307D01*
X0041935Y0089343D01*
X0041901Y0089382D01*
X0041871Y0089424D01*
X0041843Y0089468D01*
X0041819Y0089513D01*
X0041799Y0089560D01*
X0041782Y0089609D01*
X0041768Y0089659D01*
X0041759Y0089709D01*
X0041753Y0089761D01*
X0041751Y0089812D01*
X0041751Y0089984D01*
X0041753Y0090042D01*
X0041759Y0090099D01*
X0041768Y0090155D01*
X0041782Y0090211D01*
X0041799Y0090266D01*
X0041819Y0090320D01*
X0041844Y0090372D01*
X0041871Y0090423D01*
X0041902Y0090471D01*
X0041936Y0090518D01*
X0041973Y0090562D01*
X0042013Y0090603D01*
X0042056Y0090642D01*
X0042101Y0090677D01*
X0042149Y0090710D01*
X0042198Y0090739D01*
X0042250Y0090765D01*
X0042303Y0090787D01*
X0042357Y0090806D01*
X0042412Y0090822D01*
X0042469Y0090833D01*
X0042526Y0090841D01*
X0042583Y0090845D01*
X0042641Y0090845D01*
X0042698Y0090841D01*
X0042755Y0090833D01*
X0042812Y0090822D01*
X0042867Y0090806D01*
X0042921Y0090787D01*
X0042974Y0090765D01*
X0043026Y0090739D01*
X0043075Y0090710D01*
X0043123Y0090677D01*
X0043168Y0090642D01*
X0043211Y0090603D01*
X0043251Y0090562D01*
X0043288Y0090518D01*
X0043322Y0090471D01*
X0043353Y0090423D01*
X0043380Y0090372D01*
X0043405Y0090320D01*
X0043425Y0090266D01*
X0043442Y0090211D01*
X0043456Y0090155D01*
X0043465Y0090099D01*
X0043471Y0090042D01*
X0043473Y0089984D01*
X0048615Y0080459D02*
X0048617Y0080387D01*
X0048623Y0080315D01*
X0048632Y0080243D01*
X0048645Y0080172D01*
X0048662Y0080102D01*
X0048682Y0080033D01*
X0048707Y0079965D01*
X0048734Y0079899D01*
X0048765Y0079833D01*
X0048800Y0079770D01*
X0048837Y0079708D01*
X0048878Y0079649D01*
X0048922Y0079592D01*
X0048969Y0079537D01*
X0049019Y0079485D01*
X0049071Y0079435D01*
X0049126Y0079388D01*
X0049183Y0079344D01*
X0049242Y0079303D01*
X0049304Y0079266D01*
X0049367Y0079231D01*
X0049433Y0079200D01*
X0049499Y0079173D01*
X0049567Y0079148D01*
X0049636Y0079128D01*
X0049706Y0079111D01*
X0049777Y0079098D01*
X0049849Y0079089D01*
X0049921Y0079083D01*
X0049993Y0079081D01*
X0049993Y0079082D02*
X0050854Y0079082D01*
X0050912Y0079084D01*
X0050969Y0079090D01*
X0051025Y0079099D01*
X0051081Y0079113D01*
X0051136Y0079130D01*
X0051190Y0079150D01*
X0051242Y0079175D01*
X0051293Y0079202D01*
X0051341Y0079233D01*
X0051388Y0079267D01*
X0051432Y0079304D01*
X0051473Y0079344D01*
X0051512Y0079387D01*
X0051547Y0079432D01*
X0051580Y0079480D01*
X0051609Y0079529D01*
X0051635Y0079581D01*
X0051657Y0079634D01*
X0051676Y0079688D01*
X0051692Y0079743D01*
X0051703Y0079800D01*
X0051711Y0079857D01*
X0051715Y0079914D01*
X0051715Y0079972D01*
X0051711Y0080029D01*
X0051703Y0080086D01*
X0051692Y0080143D01*
X0051676Y0080198D01*
X0051657Y0080252D01*
X0051635Y0080305D01*
X0051609Y0080357D01*
X0051580Y0080406D01*
X0051547Y0080454D01*
X0051512Y0080499D01*
X0051473Y0080542D01*
X0051432Y0080582D01*
X0051388Y0080619D01*
X0051341Y0080653D01*
X0051293Y0080684D01*
X0051242Y0080711D01*
X0051190Y0080736D01*
X0051136Y0080756D01*
X0051081Y0080773D01*
X0051025Y0080787D01*
X0050969Y0080796D01*
X0050912Y0080802D01*
X0050854Y0080804D01*
X0050682Y0080804D01*
X0050631Y0080802D01*
X0050579Y0080796D01*
X0050529Y0080787D01*
X0050479Y0080773D01*
X0050430Y0080756D01*
X0050383Y0080736D01*
X0050338Y0080712D01*
X0050294Y0080684D01*
X0050252Y0080654D01*
X0050213Y0080620D01*
X0050177Y0080584D01*
X0050143Y0080545D01*
X0050113Y0080503D01*
X0050085Y0080460D01*
X0050061Y0080414D01*
X0050041Y0080367D01*
X0050024Y0080318D01*
X0050010Y0080268D01*
X0050001Y0080218D01*
X0049995Y0080166D01*
X0049993Y0080115D01*
X0049993Y0079082D01*
X0048615Y0077823D02*
X0048615Y0077134D01*
X0048615Y0077135D02*
X0048617Y0077083D01*
X0048623Y0077032D01*
X0048632Y0076982D01*
X0048646Y0076932D01*
X0048663Y0076883D01*
X0048683Y0076836D01*
X0048707Y0076790D01*
X0048735Y0076747D01*
X0048765Y0076705D01*
X0048799Y0076666D01*
X0048835Y0076630D01*
X0048874Y0076596D01*
X0048916Y0076566D01*
X0048960Y0076538D01*
X0049005Y0076514D01*
X0049052Y0076494D01*
X0049101Y0076477D01*
X0049151Y0076463D01*
X0049201Y0076454D01*
X0049253Y0076448D01*
X0049304Y0076446D01*
X0051026Y0076446D01*
X0051026Y0076445D02*
X0051077Y0076447D01*
X0051129Y0076453D01*
X0051179Y0076462D01*
X0051229Y0076476D01*
X0051278Y0076493D01*
X0051325Y0076513D01*
X0051371Y0076537D01*
X0051414Y0076565D01*
X0051456Y0076595D01*
X0051495Y0076629D01*
X0051531Y0076665D01*
X0051565Y0076704D01*
X0051595Y0076746D01*
X0051623Y0076790D01*
X0051647Y0076835D01*
X0051667Y0076882D01*
X0051684Y0076931D01*
X0051698Y0076981D01*
X0051707Y0077031D01*
X0051713Y0077083D01*
X0051715Y0077134D01*
X0051715Y0077823D01*
X0059307Y0061554D02*
X0059479Y0061554D01*
X0059307Y0061554D02*
X0059256Y0061552D01*
X0059204Y0061546D01*
X0059154Y0061537D01*
X0059104Y0061523D01*
X0059055Y0061506D01*
X0059008Y0061486D01*
X0058963Y0061462D01*
X0058919Y0061434D01*
X0058877Y0061404D01*
X0058838Y0061370D01*
X0058802Y0061334D01*
X0058768Y0061295D01*
X0058738Y0061253D01*
X0058710Y0061210D01*
X0058686Y0061164D01*
X0058666Y0061117D01*
X0058649Y0061068D01*
X0058635Y0061018D01*
X0058626Y0060968D01*
X0058620Y0060916D01*
X0058618Y0060865D01*
X0058618Y0059832D01*
X0059479Y0059832D01*
X0059537Y0059834D01*
X0059594Y0059840D01*
X0059650Y0059849D01*
X0059706Y0059863D01*
X0059761Y0059880D01*
X0059815Y0059900D01*
X0059867Y0059925D01*
X0059918Y0059952D01*
X0059966Y0059983D01*
X0060013Y0060017D01*
X0060057Y0060054D01*
X0060098Y0060094D01*
X0060137Y0060137D01*
X0060172Y0060182D01*
X0060205Y0060230D01*
X0060234Y0060279D01*
X0060260Y0060331D01*
X0060282Y0060384D01*
X0060301Y0060438D01*
X0060317Y0060493D01*
X0060328Y0060550D01*
X0060336Y0060607D01*
X0060340Y0060664D01*
X0060340Y0060722D01*
X0060336Y0060779D01*
X0060328Y0060836D01*
X0060317Y0060893D01*
X0060301Y0060948D01*
X0060282Y0061002D01*
X0060260Y0061055D01*
X0060234Y0061107D01*
X0060205Y0061156D01*
X0060172Y0061204D01*
X0060137Y0061249D01*
X0060098Y0061292D01*
X0060057Y0061332D01*
X0060013Y0061369D01*
X0059966Y0061403D01*
X0059918Y0061434D01*
X0059867Y0061461D01*
X0059815Y0061486D01*
X0059761Y0061506D01*
X0059706Y0061523D01*
X0059650Y0061537D01*
X0059594Y0061546D01*
X0059537Y0061552D01*
X0059479Y0061554D01*
X0058618Y0059831D02*
X0058546Y0059833D01*
X0058474Y0059839D01*
X0058402Y0059848D01*
X0058331Y0059861D01*
X0058261Y0059878D01*
X0058192Y0059898D01*
X0058124Y0059923D01*
X0058058Y0059950D01*
X0057992Y0059981D01*
X0057929Y0060016D01*
X0057867Y0060053D01*
X0057808Y0060094D01*
X0057751Y0060138D01*
X0057696Y0060185D01*
X0057644Y0060235D01*
X0057594Y0060287D01*
X0057547Y0060342D01*
X0057503Y0060399D01*
X0057462Y0060458D01*
X0057425Y0060520D01*
X0057390Y0060583D01*
X0057359Y0060649D01*
X0057332Y0060715D01*
X0057307Y0060783D01*
X0057287Y0060852D01*
X0057270Y0060922D01*
X0057257Y0060993D01*
X0057248Y0061065D01*
X0057242Y0061137D01*
X0057240Y0061209D01*
X0058962Y0057740D02*
X0060340Y0058429D01*
X0058962Y0057567D02*
X0058962Y0056706D01*
X0058962Y0057567D02*
X0058960Y0057625D01*
X0058954Y0057682D01*
X0058945Y0057738D01*
X0058931Y0057794D01*
X0058914Y0057849D01*
X0058894Y0057903D01*
X0058869Y0057955D01*
X0058842Y0058006D01*
X0058811Y0058054D01*
X0058777Y0058101D01*
X0058740Y0058145D01*
X0058700Y0058186D01*
X0058657Y0058225D01*
X0058612Y0058260D01*
X0058564Y0058293D01*
X0058515Y0058322D01*
X0058463Y0058348D01*
X0058410Y0058370D01*
X0058356Y0058389D01*
X0058301Y0058405D01*
X0058244Y0058416D01*
X0058187Y0058424D01*
X0058130Y0058428D01*
X0058072Y0058428D01*
X0058015Y0058424D01*
X0057958Y0058416D01*
X0057901Y0058405D01*
X0057846Y0058389D01*
X0057792Y0058370D01*
X0057739Y0058348D01*
X0057687Y0058322D01*
X0057638Y0058293D01*
X0057590Y0058260D01*
X0057545Y0058225D01*
X0057502Y0058186D01*
X0057462Y0058145D01*
X0057425Y0058101D01*
X0057391Y0058054D01*
X0057360Y0058006D01*
X0057333Y0057955D01*
X0057308Y0057903D01*
X0057288Y0057849D01*
X0057271Y0057794D01*
X0057257Y0057738D01*
X0057248Y0057682D01*
X0057242Y0057625D01*
X0057240Y0057567D01*
X0057240Y0056706D01*
X0060340Y0056706D01*
X0072490Y0056991D02*
X0072490Y0057852D01*
X0072492Y0057910D01*
X0072498Y0057967D01*
X0072507Y0058023D01*
X0072521Y0058079D01*
X0072538Y0058134D01*
X0072558Y0058188D01*
X0072583Y0058240D01*
X0072610Y0058291D01*
X0072641Y0058339D01*
X0072675Y0058386D01*
X0072712Y0058430D01*
X0072752Y0058471D01*
X0072795Y0058510D01*
X0072840Y0058545D01*
X0072888Y0058578D01*
X0072937Y0058607D01*
X0072989Y0058633D01*
X0073042Y0058655D01*
X0073096Y0058674D01*
X0073151Y0058690D01*
X0073208Y0058701D01*
X0073265Y0058709D01*
X0073322Y0058713D01*
X0073380Y0058713D01*
X0073437Y0058709D01*
X0073494Y0058701D01*
X0073551Y0058690D01*
X0073606Y0058674D01*
X0073660Y0058655D01*
X0073713Y0058633D01*
X0073765Y0058607D01*
X0073814Y0058578D01*
X0073862Y0058545D01*
X0073907Y0058510D01*
X0073950Y0058471D01*
X0073990Y0058430D01*
X0074027Y0058386D01*
X0074061Y0058339D01*
X0074092Y0058291D01*
X0074119Y0058240D01*
X0074144Y0058188D01*
X0074164Y0058134D01*
X0074181Y0058079D01*
X0074195Y0058023D01*
X0074204Y0057967D01*
X0074210Y0057910D01*
X0074212Y0057852D01*
X0074212Y0056991D01*
X0074212Y0058024D02*
X0075590Y0058713D01*
X0075590Y0056991D02*
X0072490Y0056991D01*
X0072490Y0060116D02*
X0072490Y0061838D01*
X0075590Y0060977D01*
X0072834Y0060116D02*
X0072490Y0060116D01*
X0078572Y0056358D02*
X0078572Y0055669D01*
X0078574Y0055617D01*
X0078580Y0055566D01*
X0078589Y0055516D01*
X0078603Y0055466D01*
X0078620Y0055417D01*
X0078640Y0055370D01*
X0078664Y0055324D01*
X0078692Y0055281D01*
X0078722Y0055239D01*
X0078756Y0055200D01*
X0078792Y0055164D01*
X0078831Y0055130D01*
X0078873Y0055100D01*
X0078917Y0055072D01*
X0078962Y0055048D01*
X0079009Y0055028D01*
X0079058Y0055011D01*
X0079108Y0054997D01*
X0079158Y0054988D01*
X0079210Y0054982D01*
X0079261Y0054980D01*
X0080983Y0054980D01*
X0081034Y0054982D01*
X0081086Y0054988D01*
X0081136Y0054997D01*
X0081186Y0055011D01*
X0081235Y0055028D01*
X0081282Y0055048D01*
X0081328Y0055072D01*
X0081371Y0055100D01*
X0081413Y0055130D01*
X0081452Y0055164D01*
X0081488Y0055200D01*
X0081522Y0055239D01*
X0081552Y0055281D01*
X0081580Y0055325D01*
X0081604Y0055370D01*
X0081624Y0055417D01*
X0081641Y0055466D01*
X0081655Y0055516D01*
X0081664Y0055566D01*
X0081670Y0055618D01*
X0081672Y0055669D01*
X0081672Y0056358D01*
X0080811Y0057616D02*
X0080869Y0057618D01*
X0080926Y0057624D01*
X0080982Y0057633D01*
X0081038Y0057647D01*
X0081093Y0057664D01*
X0081147Y0057684D01*
X0081199Y0057709D01*
X0081250Y0057736D01*
X0081298Y0057767D01*
X0081345Y0057801D01*
X0081389Y0057838D01*
X0081430Y0057878D01*
X0081469Y0057921D01*
X0081504Y0057966D01*
X0081537Y0058014D01*
X0081566Y0058063D01*
X0081592Y0058115D01*
X0081614Y0058168D01*
X0081633Y0058222D01*
X0081649Y0058277D01*
X0081660Y0058334D01*
X0081668Y0058391D01*
X0081672Y0058448D01*
X0081672Y0058506D01*
X0081668Y0058563D01*
X0081660Y0058620D01*
X0081649Y0058677D01*
X0081633Y0058732D01*
X0081614Y0058786D01*
X0081592Y0058839D01*
X0081566Y0058891D01*
X0081537Y0058940D01*
X0081504Y0058988D01*
X0081469Y0059033D01*
X0081430Y0059076D01*
X0081389Y0059116D01*
X0081345Y0059153D01*
X0081298Y0059187D01*
X0081250Y0059218D01*
X0081199Y0059245D01*
X0081147Y0059270D01*
X0081093Y0059290D01*
X0081038Y0059307D01*
X0080982Y0059321D01*
X0080926Y0059330D01*
X0080869Y0059336D01*
X0080811Y0059338D01*
X0080753Y0059336D01*
X0080696Y0059330D01*
X0080640Y0059321D01*
X0080584Y0059307D01*
X0080529Y0059290D01*
X0080475Y0059270D01*
X0080423Y0059245D01*
X0080372Y0059218D01*
X0080324Y0059187D01*
X0080277Y0059153D01*
X0080233Y0059116D01*
X0080192Y0059076D01*
X0080153Y0059033D01*
X0080118Y0058988D01*
X0080085Y0058940D01*
X0080056Y0058891D01*
X0080030Y0058839D01*
X0080008Y0058786D01*
X0079989Y0058732D01*
X0079973Y0058677D01*
X0079962Y0058620D01*
X0079954Y0058563D01*
X0079950Y0058506D01*
X0079950Y0058448D01*
X0079954Y0058391D01*
X0079962Y0058334D01*
X0079973Y0058277D01*
X0079989Y0058222D01*
X0080008Y0058168D01*
X0080030Y0058115D01*
X0080056Y0058063D01*
X0080085Y0058014D01*
X0080118Y0057966D01*
X0080153Y0057921D01*
X0080192Y0057878D01*
X0080233Y0057838D01*
X0080277Y0057801D01*
X0080324Y0057767D01*
X0080372Y0057736D01*
X0080423Y0057709D01*
X0080475Y0057684D01*
X0080529Y0057664D01*
X0080584Y0057647D01*
X0080640Y0057633D01*
X0080696Y0057624D01*
X0080753Y0057618D01*
X0080811Y0057616D01*
X0079261Y0057788D02*
X0079312Y0057790D01*
X0079364Y0057796D01*
X0079414Y0057805D01*
X0079464Y0057819D01*
X0079513Y0057836D01*
X0079560Y0057856D01*
X0079606Y0057880D01*
X0079649Y0057908D01*
X0079691Y0057938D01*
X0079730Y0057972D01*
X0079766Y0058008D01*
X0079800Y0058047D01*
X0079830Y0058089D01*
X0079858Y0058133D01*
X0079882Y0058178D01*
X0079902Y0058225D01*
X0079919Y0058274D01*
X0079933Y0058324D01*
X0079942Y0058374D01*
X0079948Y0058426D01*
X0079950Y0058477D01*
X0079948Y0058528D01*
X0079942Y0058580D01*
X0079933Y0058630D01*
X0079919Y0058680D01*
X0079902Y0058729D01*
X0079882Y0058776D01*
X0079858Y0058822D01*
X0079830Y0058865D01*
X0079800Y0058907D01*
X0079766Y0058946D01*
X0079730Y0058982D01*
X0079691Y0059016D01*
X0079649Y0059046D01*
X0079606Y0059074D01*
X0079560Y0059098D01*
X0079513Y0059118D01*
X0079464Y0059135D01*
X0079414Y0059149D01*
X0079364Y0059158D01*
X0079312Y0059164D01*
X0079261Y0059166D01*
X0079210Y0059164D01*
X0079158Y0059158D01*
X0079108Y0059149D01*
X0079058Y0059135D01*
X0079009Y0059118D01*
X0078962Y0059098D01*
X0078917Y0059074D01*
X0078873Y0059046D01*
X0078831Y0059016D01*
X0078792Y0058982D01*
X0078756Y0058946D01*
X0078722Y0058907D01*
X0078692Y0058865D01*
X0078664Y0058822D01*
X0078640Y0058776D01*
X0078620Y0058729D01*
X0078603Y0058680D01*
X0078589Y0058630D01*
X0078580Y0058580D01*
X0078574Y0058528D01*
X0078572Y0058477D01*
X0078574Y0058426D01*
X0078580Y0058374D01*
X0078589Y0058324D01*
X0078603Y0058274D01*
X0078620Y0058225D01*
X0078640Y0058178D01*
X0078664Y0058133D01*
X0078692Y0058089D01*
X0078722Y0058047D01*
X0078756Y0058008D01*
X0078792Y0057972D01*
X0078831Y0057938D01*
X0078873Y0057908D01*
X0078917Y0057880D01*
X0078962Y0057856D01*
X0079009Y0057836D01*
X0079058Y0057819D01*
X0079108Y0057805D01*
X0079158Y0057796D01*
X0079210Y0057790D01*
X0079261Y0057788D01*
X0088904Y0057616D02*
X0088904Y0059338D01*
X0092004Y0058477D01*
X0092004Y0056358D02*
X0092004Y0055669D01*
X0092002Y0055618D01*
X0091996Y0055566D01*
X0091987Y0055516D01*
X0091973Y0055466D01*
X0091956Y0055417D01*
X0091936Y0055370D01*
X0091912Y0055325D01*
X0091884Y0055281D01*
X0091854Y0055239D01*
X0091820Y0055200D01*
X0091784Y0055164D01*
X0091745Y0055130D01*
X0091703Y0055100D01*
X0091660Y0055072D01*
X0091614Y0055048D01*
X0091567Y0055028D01*
X0091518Y0055011D01*
X0091468Y0054997D01*
X0091418Y0054988D01*
X0091366Y0054982D01*
X0091315Y0054980D01*
X0089593Y0054980D01*
X0089542Y0054982D01*
X0089490Y0054988D01*
X0089440Y0054997D01*
X0089390Y0055011D01*
X0089341Y0055028D01*
X0089294Y0055048D01*
X0089249Y0055072D01*
X0089205Y0055100D01*
X0089163Y0055130D01*
X0089124Y0055164D01*
X0089088Y0055200D01*
X0089054Y0055239D01*
X0089024Y0055281D01*
X0088996Y0055324D01*
X0088972Y0055370D01*
X0088952Y0055417D01*
X0088935Y0055466D01*
X0088921Y0055516D01*
X0088912Y0055566D01*
X0088906Y0055617D01*
X0088904Y0055669D01*
X0088904Y0056358D01*
X0088904Y0057616D02*
X0089248Y0057616D01*
X0098994Y0057206D02*
X0098994Y0058067D01*
X0098994Y0057206D02*
X0102094Y0057206D01*
X0100716Y0057206D02*
X0100716Y0058067D01*
X0100716Y0058240D02*
X0102094Y0058929D01*
X0101405Y0060332D02*
X0101405Y0062054D01*
X0100716Y0061537D02*
X0102094Y0061537D01*
X0101405Y0060332D02*
X0098994Y0061021D01*
X0098994Y0058067D02*
X0098996Y0058125D01*
X0099002Y0058182D01*
X0099011Y0058238D01*
X0099025Y0058294D01*
X0099042Y0058349D01*
X0099062Y0058403D01*
X0099087Y0058455D01*
X0099114Y0058506D01*
X0099145Y0058554D01*
X0099179Y0058601D01*
X0099216Y0058645D01*
X0099256Y0058686D01*
X0099299Y0058725D01*
X0099344Y0058760D01*
X0099392Y0058793D01*
X0099441Y0058822D01*
X0099493Y0058848D01*
X0099546Y0058870D01*
X0099600Y0058889D01*
X0099655Y0058905D01*
X0099712Y0058916D01*
X0099769Y0058924D01*
X0099826Y0058928D01*
X0099884Y0058928D01*
X0099941Y0058924D01*
X0099998Y0058916D01*
X0100055Y0058905D01*
X0100110Y0058889D01*
X0100164Y0058870D01*
X0100217Y0058848D01*
X0100269Y0058822D01*
X0100318Y0058793D01*
X0100366Y0058760D01*
X0100411Y0058725D01*
X0100454Y0058686D01*
X0100494Y0058645D01*
X0100531Y0058601D01*
X0100565Y0058554D01*
X0100596Y0058506D01*
X0100623Y0058455D01*
X0100648Y0058403D01*
X0100668Y0058349D01*
X0100685Y0058294D01*
X0100699Y0058238D01*
X0100708Y0058182D01*
X0100714Y0058125D01*
X0100716Y0058067D01*
X0101990Y0048078D02*
X0105090Y0048078D01*
X0105090Y0047217D02*
X0105090Y0048939D01*
X0103209Y0047120D02*
X0103209Y0045398D01*
X0103712Y0045090D02*
X0103710Y0045148D01*
X0103704Y0045205D01*
X0103695Y0045261D01*
X0103681Y0045317D01*
X0103664Y0045372D01*
X0103644Y0045426D01*
X0103619Y0045478D01*
X0103592Y0045529D01*
X0103561Y0045577D01*
X0103527Y0045624D01*
X0103490Y0045668D01*
X0103450Y0045709D01*
X0103407Y0045748D01*
X0103362Y0045783D01*
X0103314Y0045816D01*
X0103265Y0045845D01*
X0103213Y0045871D01*
X0103160Y0045893D01*
X0103106Y0045912D01*
X0103051Y0045928D01*
X0102994Y0045939D01*
X0102937Y0045947D01*
X0102880Y0045951D01*
X0102822Y0045951D01*
X0102765Y0045947D01*
X0102708Y0045939D01*
X0102651Y0045928D01*
X0102596Y0045912D01*
X0102542Y0045893D01*
X0102489Y0045871D01*
X0102437Y0045845D01*
X0102388Y0045816D01*
X0102340Y0045783D01*
X0102295Y0045748D01*
X0102252Y0045709D01*
X0102212Y0045668D01*
X0102175Y0045624D01*
X0102141Y0045577D01*
X0102110Y0045529D01*
X0102083Y0045478D01*
X0102058Y0045426D01*
X0102038Y0045372D01*
X0102021Y0045317D01*
X0102007Y0045261D01*
X0101998Y0045205D01*
X0101992Y0045148D01*
X0101990Y0045090D01*
X0101990Y0044228D01*
X0105090Y0044228D01*
X0103712Y0044228D02*
X0103712Y0045090D01*
X0103209Y0046259D02*
X0100109Y0046259D01*
X0100798Y0045398D01*
X0101487Y0043865D02*
X0103209Y0043865D01*
X0103209Y0042832D01*
X0103207Y0042781D01*
X0103201Y0042729D01*
X0103192Y0042679D01*
X0103178Y0042629D01*
X0103161Y0042580D01*
X0103141Y0042533D01*
X0103117Y0042488D01*
X0103089Y0042444D01*
X0103059Y0042402D01*
X0103025Y0042363D01*
X0102989Y0042327D01*
X0102950Y0042293D01*
X0102908Y0042263D01*
X0102865Y0042235D01*
X0102819Y0042211D01*
X0102772Y0042191D01*
X0102723Y0042174D01*
X0102673Y0042160D01*
X0102623Y0042151D01*
X0102571Y0042145D01*
X0102520Y0042143D01*
X0100798Y0042143D01*
X0100747Y0042145D01*
X0100695Y0042151D01*
X0100645Y0042160D01*
X0100595Y0042174D01*
X0100546Y0042191D01*
X0100499Y0042211D01*
X0100454Y0042235D01*
X0100410Y0042263D01*
X0100368Y0042293D01*
X0100329Y0042327D01*
X0100293Y0042363D01*
X0100259Y0042402D01*
X0100229Y0042444D01*
X0100201Y0042487D01*
X0100177Y0042533D01*
X0100157Y0042580D01*
X0100140Y0042629D01*
X0100126Y0042679D01*
X0100117Y0042729D01*
X0100111Y0042780D01*
X0100109Y0042832D01*
X0100109Y0043865D01*
X0101487Y0043865D02*
X0101487Y0043348D01*
X0102679Y0047217D02*
X0101990Y0048078D01*
X0100604Y0028054D02*
X0099742Y0028054D01*
X0099742Y0024954D01*
X0099742Y0026332D02*
X0100604Y0026332D01*
X0100776Y0026332D02*
X0101465Y0024954D01*
X0100604Y0026332D02*
X0100662Y0026334D01*
X0100719Y0026340D01*
X0100775Y0026349D01*
X0100831Y0026363D01*
X0100886Y0026380D01*
X0100940Y0026400D01*
X0100992Y0026425D01*
X0101043Y0026452D01*
X0101091Y0026483D01*
X0101138Y0026517D01*
X0101182Y0026554D01*
X0101223Y0026594D01*
X0101262Y0026637D01*
X0101297Y0026682D01*
X0101330Y0026730D01*
X0101359Y0026779D01*
X0101385Y0026831D01*
X0101407Y0026884D01*
X0101426Y0026938D01*
X0101442Y0026993D01*
X0101453Y0027050D01*
X0101461Y0027107D01*
X0101465Y0027164D01*
X0101465Y0027222D01*
X0101461Y0027279D01*
X0101453Y0027336D01*
X0101442Y0027393D01*
X0101426Y0027448D01*
X0101407Y0027502D01*
X0101385Y0027555D01*
X0101359Y0027607D01*
X0101330Y0027656D01*
X0101297Y0027704D01*
X0101262Y0027749D01*
X0101223Y0027792D01*
X0101182Y0027832D01*
X0101138Y0027869D01*
X0101091Y0027903D01*
X0101043Y0027934D01*
X0100992Y0027961D01*
X0100940Y0027986D01*
X0100886Y0028006D01*
X0100831Y0028023D01*
X0100775Y0028037D01*
X0100719Y0028046D01*
X0100662Y0028052D01*
X0100604Y0028054D01*
X0103040Y0027365D02*
X0103042Y0027314D01*
X0103048Y0027262D01*
X0103057Y0027212D01*
X0103071Y0027162D01*
X0103088Y0027113D01*
X0103108Y0027066D01*
X0103132Y0027021D01*
X0103160Y0026977D01*
X0103190Y0026935D01*
X0103224Y0026896D01*
X0103260Y0026860D01*
X0103299Y0026826D01*
X0103341Y0026796D01*
X0103385Y0026768D01*
X0103430Y0026744D01*
X0103477Y0026724D01*
X0103526Y0026707D01*
X0103576Y0026693D01*
X0103626Y0026684D01*
X0103678Y0026678D01*
X0103729Y0026676D01*
X0103780Y0026678D01*
X0103832Y0026684D01*
X0103882Y0026693D01*
X0103932Y0026707D01*
X0103981Y0026724D01*
X0104028Y0026744D01*
X0104074Y0026768D01*
X0104117Y0026796D01*
X0104159Y0026826D01*
X0104198Y0026860D01*
X0104234Y0026896D01*
X0104268Y0026935D01*
X0104298Y0026977D01*
X0104326Y0027021D01*
X0104350Y0027066D01*
X0104370Y0027113D01*
X0104387Y0027162D01*
X0104401Y0027212D01*
X0104410Y0027262D01*
X0104416Y0027314D01*
X0104418Y0027365D01*
X0104416Y0027416D01*
X0104410Y0027468D01*
X0104401Y0027518D01*
X0104387Y0027568D01*
X0104370Y0027617D01*
X0104350Y0027664D01*
X0104326Y0027710D01*
X0104298Y0027753D01*
X0104268Y0027795D01*
X0104234Y0027834D01*
X0104198Y0027870D01*
X0104159Y0027904D01*
X0104117Y0027934D01*
X0104074Y0027962D01*
X0104028Y0027986D01*
X0103981Y0028006D01*
X0103932Y0028023D01*
X0103882Y0028037D01*
X0103832Y0028046D01*
X0103780Y0028052D01*
X0103729Y0028054D01*
X0103678Y0028052D01*
X0103626Y0028046D01*
X0103576Y0028037D01*
X0103526Y0028023D01*
X0103477Y0028006D01*
X0103430Y0027986D01*
X0103385Y0027962D01*
X0103341Y0027934D01*
X0103299Y0027904D01*
X0103260Y0027870D01*
X0103224Y0027834D01*
X0103190Y0027795D01*
X0103160Y0027753D01*
X0103132Y0027710D01*
X0103108Y0027664D01*
X0103088Y0027617D01*
X0103071Y0027568D01*
X0103057Y0027518D01*
X0103048Y0027468D01*
X0103042Y0027416D01*
X0103040Y0027365D01*
X0102868Y0025815D02*
X0102870Y0025757D01*
X0102876Y0025700D01*
X0102885Y0025644D01*
X0102899Y0025588D01*
X0102916Y0025533D01*
X0102936Y0025479D01*
X0102961Y0025427D01*
X0102988Y0025376D01*
X0103019Y0025328D01*
X0103053Y0025281D01*
X0103090Y0025237D01*
X0103130Y0025196D01*
X0103173Y0025157D01*
X0103218Y0025122D01*
X0103266Y0025089D01*
X0103315Y0025060D01*
X0103367Y0025034D01*
X0103420Y0025012D01*
X0103474Y0024993D01*
X0103529Y0024977D01*
X0103586Y0024966D01*
X0103643Y0024958D01*
X0103700Y0024954D01*
X0103758Y0024954D01*
X0103815Y0024958D01*
X0103872Y0024966D01*
X0103929Y0024977D01*
X0103984Y0024993D01*
X0104038Y0025012D01*
X0104091Y0025034D01*
X0104143Y0025060D01*
X0104192Y0025089D01*
X0104240Y0025122D01*
X0104285Y0025157D01*
X0104328Y0025196D01*
X0104368Y0025237D01*
X0104405Y0025281D01*
X0104439Y0025328D01*
X0104470Y0025376D01*
X0104497Y0025427D01*
X0104522Y0025479D01*
X0104542Y0025533D01*
X0104559Y0025588D01*
X0104573Y0025644D01*
X0104582Y0025700D01*
X0104588Y0025757D01*
X0104590Y0025815D01*
X0104588Y0025873D01*
X0104582Y0025930D01*
X0104573Y0025986D01*
X0104559Y0026042D01*
X0104542Y0026097D01*
X0104522Y0026151D01*
X0104497Y0026203D01*
X0104470Y0026254D01*
X0104439Y0026302D01*
X0104405Y0026349D01*
X0104368Y0026393D01*
X0104328Y0026434D01*
X0104285Y0026473D01*
X0104240Y0026508D01*
X0104192Y0026541D01*
X0104143Y0026570D01*
X0104091Y0026596D01*
X0104038Y0026618D01*
X0103984Y0026637D01*
X0103929Y0026653D01*
X0103872Y0026664D01*
X0103815Y0026672D01*
X0103758Y0026676D01*
X0103700Y0026676D01*
X0103643Y0026672D01*
X0103586Y0026664D01*
X0103529Y0026653D01*
X0103474Y0026637D01*
X0103420Y0026618D01*
X0103367Y0026596D01*
X0103315Y0026570D01*
X0103266Y0026541D01*
X0103218Y0026508D01*
X0103173Y0026473D01*
X0103130Y0026434D01*
X0103090Y0026393D01*
X0103053Y0026349D01*
X0103019Y0026302D01*
X0102988Y0026254D01*
X0102961Y0026203D01*
X0102936Y0026151D01*
X0102916Y0026097D01*
X0102899Y0026042D01*
X0102885Y0025986D01*
X0102876Y0025930D01*
X0102870Y0025873D01*
X0102868Y0025815D01*
X0105298Y0013904D02*
X0105298Y0010327D01*
X0105296Y0010265D01*
X0105291Y0010204D01*
X0105281Y0010143D01*
X0105268Y0010082D01*
X0105252Y0010023D01*
X0105232Y0009965D01*
X0105208Y0009908D01*
X0105181Y0009852D01*
X0105151Y0009798D01*
X0105117Y0009746D01*
X0105081Y0009697D01*
X0105041Y0009649D01*
X0104999Y0009604D01*
X0104954Y0009562D01*
X0104906Y0009522D01*
X0104857Y0009486D01*
X0104805Y0009452D01*
X0104751Y0009422D01*
X0104695Y0009395D01*
X0104638Y0009371D01*
X0104580Y0009351D01*
X0104521Y0009335D01*
X0104460Y0009322D01*
X0104399Y0009312D01*
X0104338Y0009307D01*
X0104276Y0009305D01*
X0104276Y0009304D02*
X0103765Y0009304D01*
X0107374Y0010582D02*
X0107374Y0011860D01*
X0108907Y0011860D01*
X0107375Y0011860D02*
X0107377Y0011949D01*
X0107383Y0012038D01*
X0107392Y0012127D01*
X0107406Y0012215D01*
X0107423Y0012302D01*
X0107445Y0012389D01*
X0107470Y0012475D01*
X0107498Y0012559D01*
X0107531Y0012642D01*
X0107567Y0012724D01*
X0107606Y0012804D01*
X0107649Y0012882D01*
X0107695Y0012958D01*
X0107745Y0013032D01*
X0107797Y0013104D01*
X0107853Y0013174D01*
X0107912Y0013241D01*
X0107974Y0013305D01*
X0108038Y0013367D01*
X0108105Y0013426D01*
X0108175Y0013482D01*
X0108247Y0013534D01*
X0108321Y0013584D01*
X0108397Y0013630D01*
X0108475Y0013673D01*
X0108555Y0013712D01*
X0108637Y0013748D01*
X0108720Y0013781D01*
X0108804Y0013809D01*
X0108890Y0013834D01*
X0108977Y0013856D01*
X0109064Y0013873D01*
X0109152Y0013887D01*
X0109241Y0013896D01*
X0109330Y0013902D01*
X0109419Y0013904D01*
X0109930Y0010838D02*
X0109930Y0010582D01*
X0109929Y0010838D02*
X0109927Y0010900D01*
X0109922Y0010961D01*
X0109912Y0011022D01*
X0109899Y0011083D01*
X0109883Y0011142D01*
X0109863Y0011200D01*
X0109839Y0011257D01*
X0109812Y0011313D01*
X0109782Y0011367D01*
X0109748Y0011419D01*
X0109712Y0011468D01*
X0109672Y0011516D01*
X0109630Y0011561D01*
X0109585Y0011603D01*
X0109537Y0011643D01*
X0109488Y0011679D01*
X0109436Y0011713D01*
X0109382Y0011743D01*
X0109326Y0011770D01*
X0109269Y0011794D01*
X0109211Y0011814D01*
X0109152Y0011830D01*
X0109091Y0011843D01*
X0109030Y0011853D01*
X0108969Y0011858D01*
X0108907Y0011860D01*
X0109930Y0010582D02*
X0109928Y0010512D01*
X0109922Y0010441D01*
X0109913Y0010372D01*
X0109899Y0010303D01*
X0109882Y0010234D01*
X0109861Y0010167D01*
X0109836Y0010101D01*
X0109808Y0010037D01*
X0109776Y0009974D01*
X0109741Y0009913D01*
X0109702Y0009854D01*
X0109661Y0009797D01*
X0109616Y0009743D01*
X0109568Y0009691D01*
X0109518Y0009642D01*
X0109464Y0009595D01*
X0109409Y0009552D01*
X0109351Y0009512D01*
X0109291Y0009475D01*
X0109229Y0009442D01*
X0109165Y0009412D01*
X0109100Y0009385D01*
X0109034Y0009362D01*
X0108966Y0009343D01*
X0108897Y0009328D01*
X0108828Y0009316D01*
X0108758Y0009308D01*
X0108687Y0009304D01*
X0108617Y0009304D01*
X0108546Y0009308D01*
X0108476Y0009316D01*
X0108407Y0009328D01*
X0108338Y0009343D01*
X0108270Y0009362D01*
X0108204Y0009385D01*
X0108139Y0009412D01*
X0108075Y0009442D01*
X0108013Y0009475D01*
X0107953Y0009512D01*
X0107895Y0009552D01*
X0107840Y0009595D01*
X0107786Y0009642D01*
X0107736Y0009691D01*
X0107688Y0009743D01*
X0107643Y0009797D01*
X0107602Y0009854D01*
X0107563Y0009913D01*
X0107528Y0009974D01*
X0107496Y0010037D01*
X0107468Y0010101D01*
X0107443Y0010167D01*
X0107422Y0010234D01*
X0107405Y0010303D01*
X0107391Y0010372D01*
X0107382Y0010441D01*
X0107376Y0010512D01*
X0107374Y0010582D01*
X0080970Y0036017D02*
X0080970Y0038573D01*
X0080970Y0037295D02*
X0076370Y0037295D01*
X0077392Y0036017D01*
X0079053Y0033712D02*
X0078286Y0032306D01*
X0076369Y0032817D02*
X0076371Y0032899D01*
X0076376Y0032981D01*
X0076385Y0033063D01*
X0076397Y0033144D01*
X0076413Y0033225D01*
X0076432Y0033305D01*
X0076455Y0033384D01*
X0076481Y0033462D01*
X0076510Y0033539D01*
X0076543Y0033614D01*
X0076579Y0033688D01*
X0076617Y0033761D01*
X0076659Y0033832D01*
X0076704Y0033900D01*
X0076752Y0033967D01*
X0078286Y0032306D02*
X0078252Y0032252D01*
X0078215Y0032201D01*
X0078175Y0032152D01*
X0078132Y0032105D01*
X0078086Y0032062D01*
X0078038Y0032021D01*
X0077987Y0031983D01*
X0077934Y0031948D01*
X0077879Y0031916D01*
X0077822Y0031888D01*
X0077764Y0031864D01*
X0077704Y0031843D01*
X0077643Y0031826D01*
X0077581Y0031812D01*
X0077518Y0031803D01*
X0077455Y0031797D01*
X0077392Y0031795D01*
X0077330Y0031797D01*
X0077269Y0031802D01*
X0077208Y0031812D01*
X0077147Y0031825D01*
X0077088Y0031841D01*
X0077030Y0031861D01*
X0076973Y0031885D01*
X0076917Y0031912D01*
X0076863Y0031942D01*
X0076811Y0031976D01*
X0076762Y0032012D01*
X0076714Y0032052D01*
X0076669Y0032094D01*
X0076627Y0032139D01*
X0076587Y0032187D01*
X0076551Y0032236D01*
X0076517Y0032288D01*
X0076487Y0032342D01*
X0076460Y0032398D01*
X0076436Y0032455D01*
X0076416Y0032513D01*
X0076400Y0032572D01*
X0076387Y0032633D01*
X0076377Y0032694D01*
X0076372Y0032755D01*
X0076370Y0032817D01*
X0080330Y0031667D02*
X0080393Y0031731D01*
X0080452Y0031799D01*
X0080509Y0031868D01*
X0080563Y0031940D01*
X0080614Y0032014D01*
X0080662Y0032090D01*
X0080706Y0032167D01*
X0080747Y0032247D01*
X0080785Y0032328D01*
X0080820Y0032411D01*
X0080851Y0032495D01*
X0080878Y0032581D01*
X0080902Y0032667D01*
X0080923Y0032755D01*
X0080939Y0032843D01*
X0080952Y0032932D01*
X0080962Y0033021D01*
X0080967Y0033110D01*
X0080969Y0033200D01*
X0080970Y0033200D02*
X0080968Y0033262D01*
X0080963Y0033323D01*
X0080953Y0033384D01*
X0080940Y0033445D01*
X0080924Y0033504D01*
X0080904Y0033562D01*
X0080880Y0033619D01*
X0080853Y0033675D01*
X0080823Y0033729D01*
X0080789Y0033781D01*
X0080753Y0033830D01*
X0080713Y0033878D01*
X0080671Y0033923D01*
X0080626Y0033965D01*
X0080578Y0034005D01*
X0080529Y0034041D01*
X0080477Y0034075D01*
X0080423Y0034105D01*
X0080367Y0034132D01*
X0080310Y0034156D01*
X0080252Y0034176D01*
X0080193Y0034192D01*
X0080132Y0034205D01*
X0080071Y0034215D01*
X0080010Y0034220D01*
X0079948Y0034222D01*
X0079948Y0034223D02*
X0079885Y0034221D01*
X0079822Y0034215D01*
X0079759Y0034206D01*
X0079697Y0034192D01*
X0079636Y0034175D01*
X0079576Y0034154D01*
X0079518Y0034130D01*
X0079461Y0034102D01*
X0079406Y0034070D01*
X0079353Y0034035D01*
X0079302Y0033997D01*
X0079254Y0033956D01*
X0079208Y0033913D01*
X0079165Y0033866D01*
X0079125Y0033817D01*
X0079088Y0033766D01*
X0079054Y0033712D01*
X0078098Y0022300D02*
X0076376Y0022300D01*
X0076376Y0020922D01*
X0077409Y0020922D01*
X0077460Y0020920D01*
X0077512Y0020914D01*
X0077562Y0020905D01*
X0077612Y0020891D01*
X0077661Y0020874D01*
X0077708Y0020854D01*
X0077754Y0020830D01*
X0077797Y0020802D01*
X0077839Y0020772D01*
X0077878Y0020738D01*
X0077914Y0020702D01*
X0077948Y0020663D01*
X0077978Y0020621D01*
X0078006Y0020578D01*
X0078030Y0020532D01*
X0078050Y0020485D01*
X0078067Y0020436D01*
X0078081Y0020386D01*
X0078090Y0020336D01*
X0078096Y0020284D01*
X0078098Y0020233D01*
X0078098Y0019889D01*
X0078096Y0019838D01*
X0078090Y0019786D01*
X0078081Y0019736D01*
X0078067Y0019686D01*
X0078050Y0019637D01*
X0078030Y0019590D01*
X0078006Y0019545D01*
X0077978Y0019501D01*
X0077948Y0019459D01*
X0077914Y0019420D01*
X0077878Y0019384D01*
X0077839Y0019350D01*
X0077797Y0019320D01*
X0077754Y0019292D01*
X0077708Y0019268D01*
X0077661Y0019248D01*
X0077612Y0019231D01*
X0077562Y0019217D01*
X0077512Y0019208D01*
X0077460Y0019202D01*
X0077409Y0019200D01*
X0076376Y0019200D01*
X0075118Y0019200D02*
X0074429Y0019200D01*
X0074378Y0019202D01*
X0074326Y0019208D01*
X0074276Y0019217D01*
X0074226Y0019231D01*
X0074177Y0019248D01*
X0074130Y0019268D01*
X0074085Y0019292D01*
X0074041Y0019320D01*
X0073999Y0019350D01*
X0073960Y0019384D01*
X0073924Y0019420D01*
X0073890Y0019459D01*
X0073860Y0019501D01*
X0073832Y0019545D01*
X0073808Y0019590D01*
X0073788Y0019637D01*
X0073771Y0019686D01*
X0073757Y0019736D01*
X0073748Y0019786D01*
X0073742Y0019838D01*
X0073740Y0019889D01*
X0073740Y0021611D01*
X0073742Y0021662D01*
X0073748Y0021714D01*
X0073757Y0021764D01*
X0073771Y0021814D01*
X0073788Y0021863D01*
X0073808Y0021910D01*
X0073832Y0021955D01*
X0073860Y0021999D01*
X0073890Y0022041D01*
X0073924Y0022080D01*
X0073960Y0022116D01*
X0073999Y0022150D01*
X0074041Y0022180D01*
X0074084Y0022208D01*
X0074130Y0022232D01*
X0074177Y0022252D01*
X0074226Y0022269D01*
X0074276Y0022283D01*
X0074326Y0022292D01*
X0074377Y0022298D01*
X0074429Y0022300D01*
X0075118Y0022300D01*
X0075118Y0016050D02*
X0074429Y0016050D01*
X0074377Y0016048D01*
X0074326Y0016042D01*
X0074276Y0016033D01*
X0074226Y0016019D01*
X0074177Y0016002D01*
X0074130Y0015982D01*
X0074084Y0015958D01*
X0074041Y0015930D01*
X0073999Y0015900D01*
X0073960Y0015866D01*
X0073924Y0015830D01*
X0073890Y0015791D01*
X0073860Y0015749D01*
X0073832Y0015705D01*
X0073808Y0015660D01*
X0073788Y0015613D01*
X0073771Y0015564D01*
X0073757Y0015514D01*
X0073748Y0015464D01*
X0073742Y0015412D01*
X0073740Y0015361D01*
X0073740Y0013639D01*
X0073742Y0013588D01*
X0073748Y0013536D01*
X0073757Y0013486D01*
X0073771Y0013436D01*
X0073788Y0013387D01*
X0073808Y0013340D01*
X0073832Y0013295D01*
X0073860Y0013251D01*
X0073890Y0013209D01*
X0073924Y0013170D01*
X0073960Y0013134D01*
X0073999Y0013100D01*
X0074041Y0013070D01*
X0074085Y0013042D01*
X0074130Y0013018D01*
X0074177Y0012998D01*
X0074226Y0012981D01*
X0074276Y0012967D01*
X0074326Y0012958D01*
X0074378Y0012952D01*
X0074429Y0012950D01*
X0075118Y0012950D01*
X0076376Y0013639D02*
X0078098Y0013639D01*
X0077582Y0014328D02*
X0077582Y0012950D01*
X0076376Y0013639D02*
X0077065Y0016050D01*
X0040403Y0046954D02*
X0037303Y0046954D01*
X0037303Y0047815D01*
X0037305Y0047873D01*
X0037311Y0047930D01*
X0037320Y0047986D01*
X0037334Y0048042D01*
X0037351Y0048097D01*
X0037371Y0048151D01*
X0037396Y0048203D01*
X0037423Y0048254D01*
X0037454Y0048302D01*
X0037488Y0048349D01*
X0037525Y0048393D01*
X0037565Y0048434D01*
X0037608Y0048473D01*
X0037653Y0048508D01*
X0037701Y0048541D01*
X0037750Y0048570D01*
X0037802Y0048596D01*
X0037855Y0048618D01*
X0037909Y0048637D01*
X0037964Y0048653D01*
X0038021Y0048664D01*
X0038078Y0048672D01*
X0038135Y0048676D01*
X0038193Y0048676D01*
X0038250Y0048672D01*
X0038307Y0048664D01*
X0038364Y0048653D01*
X0038419Y0048637D01*
X0038473Y0048618D01*
X0038526Y0048596D01*
X0038578Y0048570D01*
X0038627Y0048541D01*
X0038675Y0048508D01*
X0038720Y0048473D01*
X0038763Y0048434D01*
X0038803Y0048393D01*
X0038840Y0048349D01*
X0038874Y0048302D01*
X0038905Y0048254D01*
X0038932Y0048203D01*
X0038957Y0048151D01*
X0038977Y0048097D01*
X0038994Y0048042D01*
X0039008Y0047986D01*
X0039017Y0047930D01*
X0039023Y0047873D01*
X0039025Y0047815D01*
X0039025Y0046954D01*
X0039025Y0047987D02*
X0040403Y0048676D01*
X0040403Y0050079D02*
X0040403Y0051802D01*
X0040403Y0050940D02*
X0037303Y0050940D01*
X0037992Y0050079D01*
X0031216Y0050451D02*
X0031216Y0049590D01*
X0031216Y0050451D02*
X0031214Y0050509D01*
X0031208Y0050566D01*
X0031199Y0050622D01*
X0031185Y0050678D01*
X0031168Y0050733D01*
X0031148Y0050787D01*
X0031123Y0050839D01*
X0031096Y0050890D01*
X0031065Y0050938D01*
X0031031Y0050985D01*
X0030994Y0051029D01*
X0030954Y0051070D01*
X0030911Y0051109D01*
X0030866Y0051144D01*
X0030818Y0051177D01*
X0030769Y0051206D01*
X0030717Y0051232D01*
X0030664Y0051254D01*
X0030610Y0051273D01*
X0030555Y0051289D01*
X0030498Y0051300D01*
X0030441Y0051308D01*
X0030384Y0051312D01*
X0030326Y0051312D01*
X0030269Y0051308D01*
X0030212Y0051300D01*
X0030155Y0051289D01*
X0030100Y0051273D01*
X0030046Y0051254D01*
X0029993Y0051232D01*
X0029941Y0051206D01*
X0029892Y0051177D01*
X0029844Y0051144D01*
X0029799Y0051109D01*
X0029756Y0051070D01*
X0029716Y0051029D01*
X0029679Y0050985D01*
X0029645Y0050938D01*
X0029614Y0050890D01*
X0029587Y0050839D01*
X0029562Y0050787D01*
X0029542Y0050733D01*
X0029525Y0050678D01*
X0029511Y0050622D01*
X0029502Y0050566D01*
X0029496Y0050509D01*
X0029494Y0050451D01*
X0029494Y0050623D02*
X0029494Y0049934D01*
X0029494Y0050623D02*
X0029492Y0050674D01*
X0029486Y0050726D01*
X0029477Y0050776D01*
X0029463Y0050826D01*
X0029446Y0050875D01*
X0029426Y0050922D01*
X0029402Y0050968D01*
X0029374Y0051011D01*
X0029344Y0051053D01*
X0029310Y0051092D01*
X0029274Y0051128D01*
X0029235Y0051162D01*
X0029193Y0051192D01*
X0029150Y0051220D01*
X0029104Y0051244D01*
X0029057Y0051264D01*
X0029008Y0051281D01*
X0028958Y0051295D01*
X0028908Y0051304D01*
X0028856Y0051310D01*
X0028805Y0051312D01*
X0028754Y0051310D01*
X0028702Y0051304D01*
X0028652Y0051295D01*
X0028602Y0051281D01*
X0028553Y0051264D01*
X0028506Y0051244D01*
X0028461Y0051220D01*
X0028417Y0051192D01*
X0028375Y0051162D01*
X0028336Y0051128D01*
X0028300Y0051092D01*
X0028266Y0051053D01*
X0028236Y0051011D01*
X0028208Y0050968D01*
X0028184Y0050922D01*
X0028164Y0050875D01*
X0028147Y0050826D01*
X0028133Y0050776D01*
X0028124Y0050726D01*
X0028118Y0050674D01*
X0028116Y0050623D01*
X0028116Y0049590D01*
X0028116Y0048332D02*
X0028116Y0047643D01*
X0028118Y0047591D01*
X0028124Y0047540D01*
X0028133Y0047490D01*
X0028147Y0047440D01*
X0028164Y0047391D01*
X0028184Y0047344D01*
X0028208Y0047298D01*
X0028236Y0047255D01*
X0028266Y0047213D01*
X0028300Y0047174D01*
X0028336Y0047138D01*
X0028375Y0047104D01*
X0028417Y0047074D01*
X0028461Y0047046D01*
X0028506Y0047022D01*
X0028553Y0047002D01*
X0028602Y0046985D01*
X0028652Y0046971D01*
X0028702Y0046962D01*
X0028754Y0046956D01*
X0028805Y0046954D01*
X0030527Y0046954D01*
X0030578Y0046956D01*
X0030630Y0046962D01*
X0030680Y0046971D01*
X0030730Y0046985D01*
X0030779Y0047002D01*
X0030826Y0047022D01*
X0030872Y0047046D01*
X0030915Y0047074D01*
X0030957Y0047104D01*
X0030996Y0047138D01*
X0031032Y0047174D01*
X0031066Y0047213D01*
X0031096Y0047255D01*
X0031124Y0047299D01*
X0031148Y0047344D01*
X0031168Y0047391D01*
X0031185Y0047440D01*
X0031199Y0047490D01*
X0031208Y0047540D01*
X0031214Y0047592D01*
X0031216Y0047643D01*
X0031216Y0048332D01*
X0005840Y0068249D02*
X0002740Y0068249D01*
X0002740Y0067388D02*
X0002740Y0069110D01*
X0003429Y0070328D02*
X0002740Y0071189D01*
X0005840Y0071189D01*
X0005840Y0070328D02*
X0005840Y0072050D01*
X0047229Y0110082D02*
X0047287Y0110084D01*
X0047344Y0110090D01*
X0047400Y0110099D01*
X0047456Y0110113D01*
X0047511Y0110130D01*
X0047565Y0110150D01*
X0047617Y0110175D01*
X0047668Y0110202D01*
X0047716Y0110233D01*
X0047763Y0110267D01*
X0047807Y0110304D01*
X0047848Y0110344D01*
X0047887Y0110387D01*
X0047922Y0110432D01*
X0047955Y0110480D01*
X0047984Y0110529D01*
X0048010Y0110581D01*
X0048032Y0110634D01*
X0048051Y0110688D01*
X0048067Y0110743D01*
X0048078Y0110800D01*
X0048086Y0110857D01*
X0048090Y0110914D01*
X0048090Y0110972D01*
X0048086Y0111029D01*
X0048078Y0111086D01*
X0048067Y0111143D01*
X0048051Y0111198D01*
X0048032Y0111252D01*
X0048010Y0111305D01*
X0047984Y0111357D01*
X0047955Y0111406D01*
X0047922Y0111454D01*
X0047887Y0111499D01*
X0047848Y0111542D01*
X0047807Y0111582D01*
X0047763Y0111619D01*
X0047716Y0111653D01*
X0047668Y0111684D01*
X0047617Y0111711D01*
X0047565Y0111736D01*
X0047511Y0111756D01*
X0047456Y0111773D01*
X0047400Y0111787D01*
X0047344Y0111796D01*
X0047287Y0111802D01*
X0047229Y0111804D01*
X0045848Y0113471D02*
X0045788Y0113469D01*
X0045729Y0113464D01*
X0045670Y0113455D01*
X0045612Y0113443D01*
X0045554Y0113427D01*
X0045498Y0113407D01*
X0045443Y0113385D01*
X0045389Y0113359D01*
X0045337Y0113330D01*
X0045287Y0113298D01*
X0045238Y0113263D01*
X0045192Y0113225D01*
X0045149Y0113184D01*
X0045107Y0113141D01*
X0045069Y0113095D01*
X0045033Y0113048D01*
X0045000Y0112998D01*
X0044971Y0112946D01*
X0044944Y0112893D01*
X0044921Y0112838D01*
X0044900Y0112782D01*
X0045848Y0113471D02*
X0045903Y0113469D01*
X0045958Y0113463D01*
X0046013Y0113453D01*
X0046066Y0113440D01*
X0046119Y0113422D01*
X0046170Y0113401D01*
X0046219Y0113376D01*
X0046267Y0113348D01*
X0046312Y0113316D01*
X0046356Y0113282D01*
X0046396Y0113244D01*
X0046434Y0113204D01*
X0046468Y0113160D01*
X0046500Y0113115D01*
X0046528Y0113067D01*
X0046553Y0113018D01*
X0046574Y0112967D01*
X0046592Y0112914D01*
X0046605Y0112861D01*
X0046615Y0112806D01*
X0046621Y0112751D01*
X0046623Y0112696D01*
X0057240Y0112823D02*
X0057240Y0112134D01*
X0057240Y0112135D02*
X0057242Y0112083D01*
X0057248Y0112032D01*
X0057257Y0111982D01*
X0057271Y0111932D01*
X0057288Y0111883D01*
X0057308Y0111836D01*
X0057332Y0111790D01*
X0057360Y0111747D01*
X0057390Y0111705D01*
X0057424Y0111666D01*
X0057460Y0111630D01*
X0057499Y0111596D01*
X0057541Y0111566D01*
X0057585Y0111538D01*
X0057630Y0111514D01*
X0057677Y0111494D01*
X0057726Y0111477D01*
X0057776Y0111463D01*
X0057826Y0111454D01*
X0057878Y0111448D01*
X0057929Y0111446D01*
X0059651Y0111446D01*
X0059651Y0111445D02*
X0059702Y0111447D01*
X0059754Y0111453D01*
X0059804Y0111462D01*
X0059854Y0111476D01*
X0059903Y0111493D01*
X0059950Y0111513D01*
X0059996Y0111537D01*
X0060039Y0111565D01*
X0060081Y0111595D01*
X0060120Y0111629D01*
X0060156Y0111665D01*
X0060190Y0111704D01*
X0060220Y0111746D01*
X0060248Y0111790D01*
X0060272Y0111835D01*
X0060292Y0111882D01*
X0060309Y0111931D01*
X0060323Y0111981D01*
X0060332Y0112031D01*
X0060338Y0112083D01*
X0060340Y0112134D01*
X0060340Y0112823D01*
X0060340Y0114082D02*
X0060340Y0115804D01*
X0060340Y0114943D02*
X0057240Y0114943D01*
X0057929Y0114082D01*
X0066367Y0112262D02*
X0066367Y0109162D01*
X0066367Y0110540D02*
X0067229Y0110540D01*
X0067401Y0110540D02*
X0068090Y0109162D01*
X0069493Y0109162D02*
X0070526Y0109162D01*
X0070577Y0109164D01*
X0070629Y0109170D01*
X0070679Y0109179D01*
X0070729Y0109193D01*
X0070778Y0109210D01*
X0070825Y0109230D01*
X0070871Y0109254D01*
X0070914Y0109282D01*
X0070956Y0109312D01*
X0070995Y0109346D01*
X0071031Y0109382D01*
X0071065Y0109421D01*
X0071095Y0109463D01*
X0071123Y0109507D01*
X0071147Y0109552D01*
X0071167Y0109599D01*
X0071184Y0109648D01*
X0071198Y0109698D01*
X0071207Y0109748D01*
X0071213Y0109800D01*
X0071215Y0109851D01*
X0071215Y0110196D01*
X0071213Y0110247D01*
X0071207Y0110299D01*
X0071198Y0110349D01*
X0071184Y0110399D01*
X0071167Y0110448D01*
X0071147Y0110495D01*
X0071123Y0110541D01*
X0071095Y0110584D01*
X0071065Y0110626D01*
X0071031Y0110665D01*
X0070995Y0110701D01*
X0070956Y0110735D01*
X0070914Y0110765D01*
X0070871Y0110793D01*
X0070825Y0110817D01*
X0070778Y0110837D01*
X0070729Y0110854D01*
X0070679Y0110868D01*
X0070629Y0110877D01*
X0070577Y0110883D01*
X0070526Y0110885D01*
X0070526Y0110884D02*
X0069493Y0110884D01*
X0069493Y0112262D01*
X0071215Y0112262D01*
X0067229Y0112262D02*
X0066367Y0112262D01*
X0067229Y0112262D02*
X0067287Y0112260D01*
X0067344Y0112254D01*
X0067400Y0112245D01*
X0067456Y0112231D01*
X0067511Y0112214D01*
X0067565Y0112194D01*
X0067617Y0112169D01*
X0067668Y0112142D01*
X0067716Y0112111D01*
X0067763Y0112077D01*
X0067807Y0112040D01*
X0067848Y0112000D01*
X0067887Y0111957D01*
X0067922Y0111912D01*
X0067955Y0111864D01*
X0067984Y0111815D01*
X0068010Y0111763D01*
X0068032Y0111710D01*
X0068051Y0111656D01*
X0068067Y0111601D01*
X0068078Y0111544D01*
X0068086Y0111487D01*
X0068090Y0111430D01*
X0068090Y0111372D01*
X0068086Y0111315D01*
X0068078Y0111258D01*
X0068067Y0111201D01*
X0068051Y0111146D01*
X0068032Y0111092D01*
X0068010Y0111039D01*
X0067984Y0110987D01*
X0067955Y0110938D01*
X0067922Y0110890D01*
X0067887Y0110845D01*
X0067848Y0110802D01*
X0067807Y0110762D01*
X0067763Y0110725D01*
X0067716Y0110691D01*
X0067668Y0110660D01*
X0067617Y0110633D01*
X0067565Y0110608D01*
X0067511Y0110588D01*
X0067456Y0110571D01*
X0067400Y0110557D01*
X0067344Y0110548D01*
X0067287Y0110542D01*
X0067229Y0110540D01*
X0061412Y0133104D02*
X0060900Y0133104D01*
X0061412Y0133104D02*
X0061474Y0133106D01*
X0061535Y0133111D01*
X0061596Y0133121D01*
X0061657Y0133134D01*
X0061716Y0133150D01*
X0061774Y0133170D01*
X0061831Y0133194D01*
X0061887Y0133221D01*
X0061941Y0133251D01*
X0061993Y0133285D01*
X0062042Y0133321D01*
X0062090Y0133361D01*
X0062135Y0133403D01*
X0062177Y0133448D01*
X0062217Y0133496D01*
X0062253Y0133545D01*
X0062287Y0133597D01*
X0062317Y0133651D01*
X0062344Y0133707D01*
X0062368Y0133764D01*
X0062388Y0133822D01*
X0062404Y0133881D01*
X0062417Y0133942D01*
X0062427Y0134003D01*
X0062432Y0134064D01*
X0062434Y0134126D01*
X0062434Y0137704D01*
X0064766Y0136681D02*
X0064768Y0136618D01*
X0064774Y0136555D01*
X0064783Y0136493D01*
X0064797Y0136432D01*
X0064814Y0136371D01*
X0064835Y0136312D01*
X0064860Y0136254D01*
X0064888Y0136197D01*
X0064919Y0136143D01*
X0064954Y0136091D01*
X0064992Y0136040D01*
X0065033Y0135992D01*
X0065077Y0135947D01*
X0065123Y0135905D01*
X0065172Y0135865D01*
X0065223Y0135829D01*
X0065277Y0135796D01*
X0065332Y0135766D01*
X0065390Y0135740D01*
X0065448Y0135717D01*
X0065508Y0135698D01*
X0065569Y0135683D01*
X0065631Y0135671D01*
X0065694Y0135663D01*
X0065757Y0135659D01*
X0065819Y0135659D01*
X0065882Y0135663D01*
X0065945Y0135671D01*
X0066007Y0135683D01*
X0066068Y0135698D01*
X0066128Y0135717D01*
X0066186Y0135740D01*
X0066244Y0135766D01*
X0066299Y0135796D01*
X0066353Y0135829D01*
X0066404Y0135865D01*
X0066453Y0135905D01*
X0066499Y0135947D01*
X0066543Y0135992D01*
X0066584Y0136040D01*
X0066622Y0136091D01*
X0066657Y0136143D01*
X0066688Y0136197D01*
X0066716Y0136254D01*
X0066741Y0136312D01*
X0066762Y0136371D01*
X0066779Y0136432D01*
X0066793Y0136493D01*
X0066802Y0136555D01*
X0066808Y0136618D01*
X0066810Y0136681D01*
X0066808Y0136744D01*
X0066802Y0136807D01*
X0066793Y0136869D01*
X0066779Y0136930D01*
X0066762Y0136991D01*
X0066741Y0137050D01*
X0066716Y0137108D01*
X0066688Y0137165D01*
X0066657Y0137219D01*
X0066622Y0137271D01*
X0066584Y0137322D01*
X0066543Y0137370D01*
X0066499Y0137415D01*
X0066453Y0137457D01*
X0066404Y0137497D01*
X0066353Y0137533D01*
X0066299Y0137566D01*
X0066244Y0137596D01*
X0066186Y0137622D01*
X0066128Y0137645D01*
X0066068Y0137664D01*
X0066007Y0137679D01*
X0065945Y0137691D01*
X0065882Y0137699D01*
X0065819Y0137703D01*
X0065757Y0137703D01*
X0065694Y0137699D01*
X0065631Y0137691D01*
X0065569Y0137679D01*
X0065508Y0137664D01*
X0065448Y0137645D01*
X0065390Y0137622D01*
X0065332Y0137596D01*
X0065277Y0137566D01*
X0065223Y0137533D01*
X0065172Y0137497D01*
X0065123Y0137457D01*
X0065077Y0137415D01*
X0065033Y0137370D01*
X0064992Y0137322D01*
X0064954Y0137271D01*
X0064919Y0137219D01*
X0064888Y0137165D01*
X0064860Y0137108D01*
X0064835Y0137050D01*
X0064814Y0136991D01*
X0064797Y0136930D01*
X0064783Y0136869D01*
X0064774Y0136807D01*
X0064768Y0136744D01*
X0064766Y0136681D01*
X0064510Y0134381D02*
X0064512Y0134311D01*
X0064518Y0134240D01*
X0064527Y0134171D01*
X0064541Y0134102D01*
X0064558Y0134033D01*
X0064579Y0133966D01*
X0064604Y0133900D01*
X0064632Y0133836D01*
X0064664Y0133773D01*
X0064699Y0133712D01*
X0064738Y0133653D01*
X0064779Y0133596D01*
X0064824Y0133542D01*
X0064872Y0133490D01*
X0064922Y0133441D01*
X0064976Y0133394D01*
X0065031Y0133351D01*
X0065089Y0133311D01*
X0065149Y0133274D01*
X0065211Y0133241D01*
X0065275Y0133211D01*
X0065340Y0133184D01*
X0065406Y0133161D01*
X0065474Y0133142D01*
X0065543Y0133127D01*
X0065612Y0133115D01*
X0065682Y0133107D01*
X0065753Y0133103D01*
X0065823Y0133103D01*
X0065894Y0133107D01*
X0065964Y0133115D01*
X0066033Y0133127D01*
X0066102Y0133142D01*
X0066170Y0133161D01*
X0066236Y0133184D01*
X0066301Y0133211D01*
X0066365Y0133241D01*
X0066427Y0133274D01*
X0066487Y0133311D01*
X0066545Y0133351D01*
X0066600Y0133394D01*
X0066654Y0133441D01*
X0066704Y0133490D01*
X0066752Y0133542D01*
X0066797Y0133596D01*
X0066838Y0133653D01*
X0066877Y0133712D01*
X0066912Y0133773D01*
X0066944Y0133836D01*
X0066972Y0133900D01*
X0066997Y0133966D01*
X0067018Y0134033D01*
X0067035Y0134102D01*
X0067049Y0134171D01*
X0067058Y0134240D01*
X0067064Y0134311D01*
X0067066Y0134381D01*
X0067064Y0134451D01*
X0067058Y0134522D01*
X0067049Y0134591D01*
X0067035Y0134660D01*
X0067018Y0134729D01*
X0066997Y0134796D01*
X0066972Y0134862D01*
X0066944Y0134926D01*
X0066912Y0134989D01*
X0066877Y0135050D01*
X0066838Y0135109D01*
X0066797Y0135166D01*
X0066752Y0135220D01*
X0066704Y0135272D01*
X0066654Y0135321D01*
X0066600Y0135368D01*
X0066545Y0135411D01*
X0066487Y0135451D01*
X0066427Y0135488D01*
X0066365Y0135521D01*
X0066301Y0135551D01*
X0066236Y0135578D01*
X0066170Y0135601D01*
X0066102Y0135620D01*
X0066033Y0135635D01*
X0065964Y0135647D01*
X0065894Y0135655D01*
X0065823Y0135659D01*
X0065753Y0135659D01*
X0065682Y0135655D01*
X0065612Y0135647D01*
X0065543Y0135635D01*
X0065474Y0135620D01*
X0065406Y0135601D01*
X0065340Y0135578D01*
X0065275Y0135551D01*
X0065211Y0135521D01*
X0065149Y0135488D01*
X0065089Y0135451D01*
X0065031Y0135411D01*
X0064976Y0135368D01*
X0064922Y0135321D01*
X0064872Y0135272D01*
X0064824Y0135220D01*
X0064779Y0135166D01*
X0064738Y0135109D01*
X0064699Y0135050D01*
X0064664Y0134989D01*
X0064632Y0134926D01*
X0064604Y0134862D01*
X0064579Y0134796D01*
X0064558Y0134729D01*
X0064541Y0134660D01*
X0064527Y0134591D01*
X0064518Y0134522D01*
X0064512Y0134451D01*
X0064510Y0134381D01*
X0092834Y0119365D02*
X0092834Y0117643D01*
X0092836Y0117592D01*
X0092842Y0117540D01*
X0092851Y0117490D01*
X0092865Y0117440D01*
X0092882Y0117391D01*
X0092902Y0117344D01*
X0092926Y0117299D01*
X0092954Y0117255D01*
X0092984Y0117213D01*
X0093018Y0117174D01*
X0093054Y0117138D01*
X0093093Y0117104D01*
X0093135Y0117074D01*
X0093179Y0117046D01*
X0093224Y0117022D01*
X0093271Y0117002D01*
X0093320Y0116985D01*
X0093370Y0116971D01*
X0093420Y0116962D01*
X0093472Y0116956D01*
X0093523Y0116954D01*
X0094212Y0116954D01*
X0095471Y0116954D02*
X0097193Y0116954D01*
X0095471Y0116954D02*
X0096934Y0118676D01*
X0096418Y0120054D02*
X0096358Y0120052D01*
X0096299Y0120047D01*
X0096240Y0120038D01*
X0096182Y0120026D01*
X0096124Y0120010D01*
X0096068Y0119990D01*
X0096013Y0119968D01*
X0095959Y0119942D01*
X0095907Y0119913D01*
X0095857Y0119881D01*
X0095808Y0119846D01*
X0095762Y0119808D01*
X0095719Y0119767D01*
X0095677Y0119724D01*
X0095639Y0119678D01*
X0095603Y0119631D01*
X0095570Y0119581D01*
X0095541Y0119529D01*
X0095514Y0119476D01*
X0095491Y0119421D01*
X0095470Y0119365D01*
X0096934Y0118677D02*
X0096973Y0118717D01*
X0097010Y0118759D01*
X0097043Y0118804D01*
X0097074Y0118851D01*
X0097101Y0118900D01*
X0097125Y0118951D01*
X0097145Y0119004D01*
X0097162Y0119057D01*
X0097175Y0119112D01*
X0097184Y0119167D01*
X0097190Y0119223D01*
X0097192Y0119279D01*
X0097193Y0119279D02*
X0097191Y0119334D01*
X0097185Y0119389D01*
X0097175Y0119444D01*
X0097162Y0119497D01*
X0097144Y0119550D01*
X0097123Y0119601D01*
X0097098Y0119650D01*
X0097070Y0119698D01*
X0097038Y0119743D01*
X0097004Y0119787D01*
X0096966Y0119827D01*
X0096926Y0119865D01*
X0096882Y0119899D01*
X0096837Y0119931D01*
X0096789Y0119959D01*
X0096740Y0119984D01*
X0096689Y0120005D01*
X0096636Y0120023D01*
X0096583Y0120036D01*
X0096528Y0120046D01*
X0096473Y0120052D01*
X0096418Y0120054D01*
X0094212Y0120054D02*
X0093523Y0120054D01*
X0093471Y0120052D01*
X0093420Y0120046D01*
X0093370Y0120037D01*
X0093320Y0120023D01*
X0093271Y0120006D01*
X0093224Y0119986D01*
X0093178Y0119962D01*
X0093135Y0119934D01*
X0093093Y0119904D01*
X0093054Y0119870D01*
X0093018Y0119834D01*
X0092984Y0119795D01*
X0092954Y0119753D01*
X0092926Y0119709D01*
X0092902Y0119664D01*
X0092882Y0119617D01*
X0092865Y0119568D01*
X0092851Y0119518D01*
X0092842Y0119468D01*
X0092836Y0119416D01*
X0092834Y0119365D01*
X0101678Y0132194D02*
X0102189Y0132194D01*
X0102251Y0132196D01*
X0102312Y0132201D01*
X0102373Y0132211D01*
X0102434Y0132224D01*
X0102493Y0132240D01*
X0102551Y0132260D01*
X0102608Y0132284D01*
X0102664Y0132311D01*
X0102718Y0132341D01*
X0102770Y0132375D01*
X0102819Y0132411D01*
X0102867Y0132451D01*
X0102912Y0132493D01*
X0102954Y0132538D01*
X0102994Y0132586D01*
X0103030Y0132635D01*
X0103064Y0132687D01*
X0103094Y0132741D01*
X0103121Y0132797D01*
X0103145Y0132854D01*
X0103165Y0132912D01*
X0103181Y0132971D01*
X0103194Y0133032D01*
X0103204Y0133093D01*
X0103209Y0133154D01*
X0103211Y0133216D01*
X0103211Y0136794D01*
X0107460Y0134750D02*
X0107507Y0134797D01*
X0107551Y0134847D01*
X0107593Y0134899D01*
X0107632Y0134953D01*
X0107667Y0135009D01*
X0107700Y0135067D01*
X0107730Y0135127D01*
X0107756Y0135188D01*
X0107779Y0135251D01*
X0107798Y0135315D01*
X0107814Y0135379D01*
X0107827Y0135445D01*
X0107836Y0135511D01*
X0107841Y0135577D01*
X0107843Y0135644D01*
X0107460Y0134750D02*
X0105287Y0132194D01*
X0107843Y0132194D01*
X0105288Y0135772D02*
X0105313Y0135842D01*
X0105341Y0135911D01*
X0105372Y0135978D01*
X0105407Y0136044D01*
X0105445Y0136107D01*
X0105487Y0136169D01*
X0105531Y0136229D01*
X0105578Y0136286D01*
X0105628Y0136341D01*
X0105681Y0136393D01*
X0105737Y0136443D01*
X0105795Y0136489D01*
X0105855Y0136533D01*
X0105917Y0136574D01*
X0105981Y0136611D01*
X0106047Y0136645D01*
X0106115Y0136676D01*
X0106184Y0136703D01*
X0106254Y0136727D01*
X0106325Y0136748D01*
X0106398Y0136764D01*
X0106471Y0136777D01*
X0106545Y0136787D01*
X0106619Y0136792D01*
X0106693Y0136794D01*
X0106760Y0136792D01*
X0106827Y0136786D01*
X0106893Y0136777D01*
X0106958Y0136763D01*
X0107023Y0136746D01*
X0107086Y0136725D01*
X0107148Y0136700D01*
X0107209Y0136672D01*
X0107268Y0136640D01*
X0107325Y0136605D01*
X0107380Y0136566D01*
X0107432Y0136525D01*
X0107482Y0136480D01*
X0107529Y0136433D01*
X0107574Y0136383D01*
X0107615Y0136331D01*
X0107654Y0136276D01*
X0107689Y0136219D01*
X0107721Y0136160D01*
X0107749Y0136099D01*
X0107774Y0136037D01*
X0107795Y0135974D01*
X0107812Y0135909D01*
X0107826Y0135844D01*
X0107835Y0135778D01*
X0107841Y0135711D01*
X0107843Y0135644D01*
X0135980Y0098928D02*
X0140580Y0098928D01*
X0140580Y0097650D02*
X0140580Y0100206D01*
X0137002Y0097650D02*
X0135980Y0098928D01*
X0135980Y0095574D02*
X0139558Y0095574D01*
X0139620Y0095572D01*
X0139681Y0095567D01*
X0139742Y0095557D01*
X0139803Y0095544D01*
X0139862Y0095528D01*
X0139920Y0095508D01*
X0139977Y0095484D01*
X0140033Y0095457D01*
X0140087Y0095427D01*
X0140139Y0095393D01*
X0140188Y0095357D01*
X0140236Y0095317D01*
X0140281Y0095275D01*
X0140323Y0095230D01*
X0140363Y0095182D01*
X0140399Y0095133D01*
X0140433Y0095081D01*
X0140463Y0095027D01*
X0140490Y0094971D01*
X0140514Y0094914D01*
X0140534Y0094856D01*
X0140550Y0094797D01*
X0140563Y0094736D01*
X0140573Y0094675D01*
X0140578Y0094614D01*
X0140580Y0094552D01*
X0140580Y0094041D01*
X0138025Y0048736D02*
X0138025Y0047714D01*
X0138024Y0048736D02*
X0138022Y0048799D01*
X0138016Y0048862D01*
X0138007Y0048924D01*
X0137993Y0048985D01*
X0137976Y0049046D01*
X0137955Y0049105D01*
X0137930Y0049163D01*
X0137902Y0049220D01*
X0137871Y0049274D01*
X0137836Y0049326D01*
X0137798Y0049377D01*
X0137757Y0049425D01*
X0137713Y0049470D01*
X0137667Y0049512D01*
X0137618Y0049552D01*
X0137567Y0049588D01*
X0137513Y0049621D01*
X0137458Y0049651D01*
X0137400Y0049677D01*
X0137342Y0049700D01*
X0137282Y0049719D01*
X0137221Y0049734D01*
X0137159Y0049746D01*
X0137096Y0049754D01*
X0137033Y0049758D01*
X0136971Y0049758D01*
X0136908Y0049754D01*
X0136845Y0049746D01*
X0136783Y0049734D01*
X0136722Y0049719D01*
X0136662Y0049700D01*
X0136604Y0049677D01*
X0136546Y0049651D01*
X0136491Y0049621D01*
X0136437Y0049588D01*
X0136386Y0049552D01*
X0136337Y0049512D01*
X0136291Y0049470D01*
X0136247Y0049425D01*
X0136206Y0049377D01*
X0136168Y0049326D01*
X0136133Y0049274D01*
X0136102Y0049220D01*
X0136074Y0049163D01*
X0136049Y0049105D01*
X0136028Y0049046D01*
X0136011Y0048985D01*
X0135997Y0048924D01*
X0135988Y0048862D01*
X0135982Y0048799D01*
X0135980Y0048736D01*
X0135980Y0047203D01*
X0135980Y0045127D02*
X0139558Y0045127D01*
X0139620Y0045125D01*
X0139681Y0045120D01*
X0139742Y0045110D01*
X0139803Y0045097D01*
X0139862Y0045081D01*
X0139920Y0045061D01*
X0139977Y0045037D01*
X0140033Y0045010D01*
X0140087Y0044980D01*
X0140139Y0044946D01*
X0140188Y0044910D01*
X0140236Y0044870D01*
X0140281Y0044828D01*
X0140323Y0044783D01*
X0140363Y0044735D01*
X0140399Y0044686D01*
X0140433Y0044634D01*
X0140463Y0044580D01*
X0140490Y0044524D01*
X0140514Y0044467D01*
X0140534Y0044409D01*
X0140550Y0044350D01*
X0140563Y0044289D01*
X0140573Y0044228D01*
X0140578Y0044167D01*
X0140580Y0044105D01*
X0140580Y0043594D01*
X0140580Y0047203D02*
X0140580Y0048481D01*
X0140578Y0048551D01*
X0140572Y0048622D01*
X0140563Y0048691D01*
X0140549Y0048760D01*
X0140532Y0048829D01*
X0140511Y0048896D01*
X0140486Y0048962D01*
X0140458Y0049026D01*
X0140426Y0049089D01*
X0140391Y0049150D01*
X0140352Y0049209D01*
X0140311Y0049266D01*
X0140266Y0049320D01*
X0140218Y0049372D01*
X0140168Y0049421D01*
X0140114Y0049468D01*
X0140059Y0049511D01*
X0140001Y0049551D01*
X0139941Y0049588D01*
X0139879Y0049621D01*
X0139815Y0049651D01*
X0139750Y0049678D01*
X0139684Y0049701D01*
X0139616Y0049720D01*
X0139547Y0049735D01*
X0139478Y0049747D01*
X0139408Y0049755D01*
X0139337Y0049759D01*
X0139267Y0049759D01*
X0139196Y0049755D01*
X0139126Y0049747D01*
X0139057Y0049735D01*
X0138988Y0049720D01*
X0138920Y0049701D01*
X0138854Y0049678D01*
X0138789Y0049651D01*
X0138725Y0049621D01*
X0138663Y0049588D01*
X0138603Y0049551D01*
X0138545Y0049511D01*
X0138490Y0049468D01*
X0138436Y0049421D01*
X0138386Y0049372D01*
X0138338Y0049320D01*
X0138293Y0049266D01*
X0138252Y0049209D01*
X0138213Y0049150D01*
X0138178Y0049089D01*
X0138146Y0049026D01*
X0138118Y0048962D01*
X0138093Y0048896D01*
X0138072Y0048829D01*
X0138055Y0048760D01*
X0138041Y0048691D01*
X0138032Y0048622D01*
X0138026Y0048551D01*
X0138024Y0048481D01*
D13*
X0122409Y0042443D02*
X0122409Y0066443D01*
X0122406Y0066650D01*
X0122399Y0066857D01*
X0122386Y0067063D01*
X0122369Y0067270D01*
X0122346Y0067475D01*
X0122318Y0067681D01*
X0122286Y0067885D01*
X0122248Y0068089D01*
X0122206Y0068291D01*
X0122158Y0068493D01*
X0122106Y0068693D01*
X0122049Y0068892D01*
X0121987Y0069089D01*
X0121920Y0069285D01*
X0121848Y0069479D01*
X0121772Y0069672D01*
X0121691Y0069862D01*
X0121605Y0070051D01*
X0121515Y0070237D01*
X0121421Y0070421D01*
X0121321Y0070603D01*
X0121218Y0070782D01*
X0121110Y0070959D01*
X0120998Y0071133D01*
X0120882Y0071304D01*
X0120761Y0071473D01*
X0120637Y0071638D01*
X0120508Y0071800D01*
X0120376Y0071959D01*
X0120240Y0072115D01*
X0120100Y0072268D01*
X0119956Y0072417D01*
X0119809Y0072562D01*
X0119658Y0072704D01*
X0119504Y0072842D01*
X0119346Y0072977D01*
X0119186Y0073107D01*
X0119022Y0073233D01*
X0118855Y0073356D01*
X0118685Y0073474D01*
X0118512Y0073589D01*
X0118337Y0073699D01*
X0118159Y0073804D01*
X0117978Y0073906D01*
X0117796Y0074002D01*
X0117610Y0074095D01*
X0117423Y0074183D01*
X0117233Y0074266D01*
X0117042Y0074345D01*
X0116849Y0074419D01*
X0116653Y0074488D01*
X0116457Y0074552D01*
X0116259Y0074612D01*
X0116059Y0074667D01*
X0115858Y0074717D01*
X0115656Y0074762D01*
X0115453Y0074802D01*
X0115249Y0074837D01*
X0115044Y0074867D01*
X0114839Y0074892D01*
X0114633Y0074912D01*
X0114426Y0074927D01*
X0114219Y0074937D01*
X0114012Y0074942D01*
X0113806Y0074942D01*
X0113599Y0074937D01*
X0113392Y0074927D01*
X0113185Y0074912D01*
X0112979Y0074892D01*
X0112774Y0074867D01*
X0112569Y0074837D01*
X0112365Y0074802D01*
X0112162Y0074762D01*
X0111960Y0074717D01*
X0111759Y0074667D01*
X0111559Y0074612D01*
X0111361Y0074552D01*
X0111165Y0074488D01*
X0110969Y0074419D01*
X0110776Y0074345D01*
X0110585Y0074266D01*
X0110395Y0074183D01*
X0110208Y0074095D01*
X0110022Y0074002D01*
X0109840Y0073906D01*
X0109659Y0073804D01*
X0109481Y0073699D01*
X0109306Y0073589D01*
X0109133Y0073474D01*
X0108963Y0073356D01*
X0108796Y0073233D01*
X0108632Y0073107D01*
X0108472Y0072977D01*
X0108314Y0072842D01*
X0108160Y0072704D01*
X0108009Y0072562D01*
X0107862Y0072417D01*
X0107718Y0072268D01*
X0107578Y0072115D01*
X0107442Y0071959D01*
X0107310Y0071800D01*
X0107181Y0071638D01*
X0107057Y0071473D01*
X0106936Y0071304D01*
X0106820Y0071133D01*
X0106708Y0070959D01*
X0106600Y0070782D01*
X0106497Y0070603D01*
X0106397Y0070421D01*
X0106303Y0070237D01*
X0106213Y0070051D01*
X0106127Y0069862D01*
X0106046Y0069672D01*
X0105970Y0069479D01*
X0105898Y0069285D01*
X0105831Y0069089D01*
X0105769Y0068892D01*
X0105712Y0068693D01*
X0105660Y0068493D01*
X0105612Y0068291D01*
X0105570Y0068089D01*
X0105532Y0067885D01*
X0105500Y0067681D01*
X0105472Y0067475D01*
X0105449Y0067270D01*
X0105432Y0067063D01*
X0105419Y0066857D01*
X0105412Y0066650D01*
X0105409Y0066443D01*
X0105409Y0042443D01*
X0105412Y0042236D01*
X0105419Y0042029D01*
X0105432Y0041823D01*
X0105449Y0041616D01*
X0105472Y0041411D01*
X0105500Y0041205D01*
X0105532Y0041001D01*
X0105570Y0040797D01*
X0105612Y0040595D01*
X0105660Y0040393D01*
X0105712Y0040193D01*
X0105769Y0039994D01*
X0105831Y0039797D01*
X0105898Y0039601D01*
X0105970Y0039407D01*
X0106046Y0039214D01*
X0106127Y0039024D01*
X0106213Y0038835D01*
X0106303Y0038649D01*
X0106397Y0038465D01*
X0106497Y0038283D01*
X0106600Y0038104D01*
X0106708Y0037927D01*
X0106820Y0037753D01*
X0106936Y0037582D01*
X0107057Y0037413D01*
X0107181Y0037248D01*
X0107310Y0037086D01*
X0107442Y0036927D01*
X0107578Y0036771D01*
X0107718Y0036618D01*
X0107862Y0036469D01*
X0108009Y0036324D01*
X0108160Y0036182D01*
X0108314Y0036044D01*
X0108472Y0035909D01*
X0108632Y0035779D01*
X0108796Y0035653D01*
X0108963Y0035530D01*
X0109133Y0035412D01*
X0109306Y0035297D01*
X0109481Y0035187D01*
X0109659Y0035082D01*
X0109840Y0034980D01*
X0110022Y0034884D01*
X0110208Y0034791D01*
X0110395Y0034703D01*
X0110585Y0034620D01*
X0110776Y0034541D01*
X0110969Y0034467D01*
X0111165Y0034398D01*
X0111361Y0034334D01*
X0111559Y0034274D01*
X0111759Y0034219D01*
X0111960Y0034169D01*
X0112162Y0034124D01*
X0112365Y0034084D01*
X0112569Y0034049D01*
X0112774Y0034019D01*
X0112979Y0033994D01*
X0113185Y0033974D01*
X0113392Y0033959D01*
X0113599Y0033949D01*
X0113806Y0033944D01*
X0114012Y0033944D01*
X0114219Y0033949D01*
X0114426Y0033959D01*
X0114633Y0033974D01*
X0114839Y0033994D01*
X0115044Y0034019D01*
X0115249Y0034049D01*
X0115453Y0034084D01*
X0115656Y0034124D01*
X0115858Y0034169D01*
X0116059Y0034219D01*
X0116259Y0034274D01*
X0116457Y0034334D01*
X0116653Y0034398D01*
X0116849Y0034467D01*
X0117042Y0034541D01*
X0117233Y0034620D01*
X0117423Y0034703D01*
X0117610Y0034791D01*
X0117796Y0034884D01*
X0117978Y0034980D01*
X0118159Y0035082D01*
X0118337Y0035187D01*
X0118512Y0035297D01*
X0118685Y0035412D01*
X0118855Y0035530D01*
X0119022Y0035653D01*
X0119186Y0035779D01*
X0119346Y0035909D01*
X0119504Y0036044D01*
X0119658Y0036182D01*
X0119809Y0036324D01*
X0119956Y0036469D01*
X0120100Y0036618D01*
X0120240Y0036771D01*
X0120376Y0036927D01*
X0120508Y0037086D01*
X0120637Y0037248D01*
X0120761Y0037413D01*
X0120882Y0037582D01*
X0120998Y0037753D01*
X0121110Y0037927D01*
X0121218Y0038104D01*
X0121321Y0038283D01*
X0121421Y0038465D01*
X0121515Y0038649D01*
X0121605Y0038835D01*
X0121691Y0039024D01*
X0121772Y0039214D01*
X0121848Y0039407D01*
X0121920Y0039601D01*
X0121987Y0039797D01*
X0122049Y0039994D01*
X0122106Y0040193D01*
X0122158Y0040393D01*
X0122206Y0040595D01*
X0122248Y0040797D01*
X0122286Y0041001D01*
X0122318Y0041205D01*
X0122346Y0041411D01*
X0122369Y0041616D01*
X0122386Y0041823D01*
X0122399Y0042029D01*
X0122406Y0042236D01*
X0122409Y0042443D01*
X0041673Y0121004D02*
X0044173Y0123504D01*
X0044173Y0128504D01*
X0041673Y0131004D01*
X0044173Y0133504D01*
X0044173Y0138504D01*
X0041673Y0141004D01*
X0036673Y0141004D01*
X0034173Y0138504D01*
X0034173Y0133504D01*
X0036673Y0131004D01*
X0034173Y0128504D01*
X0034173Y0123504D01*
X0036673Y0121004D01*
X0041673Y0121004D01*
X0027290Y0118504D02*
X0027290Y0113504D01*
X0024790Y0111004D01*
X0019790Y0111004D01*
X0017290Y0113504D01*
X0014790Y0111004D01*
X0009790Y0111004D01*
X0007290Y0113504D01*
X0007290Y0118504D01*
X0009790Y0121004D01*
X0014790Y0121004D01*
X0017290Y0118504D01*
X0019790Y0121004D01*
X0024790Y0121004D01*
X0027290Y0118504D01*
X0024790Y0111004D02*
X0019790Y0111004D01*
X0017290Y0108504D01*
X0014790Y0111004D01*
X0009790Y0111004D01*
X0007290Y0108504D01*
X0007290Y0103504D01*
X0009790Y0101004D01*
X0014790Y0101004D01*
X0017290Y0103504D01*
X0019790Y0101004D01*
X0024790Y0101004D01*
X0027290Y0103504D01*
X0027290Y0108504D01*
X0024790Y0111004D01*
X0033942Y0089188D02*
X0008138Y0089188D01*
X0008138Y0075188D01*
X0033942Y0075188D01*
X0033942Y0089188D01*
D14*
X0030666Y0060348D02*
X0030577Y0060307D01*
X0030487Y0060269D01*
X0030396Y0060234D01*
X0030304Y0060202D01*
X0030210Y0060173D01*
X0030116Y0060148D01*
X0030020Y0060126D01*
X0029924Y0060108D01*
X0029828Y0060092D01*
X0029731Y0060080D01*
X0029633Y0060072D01*
X0029536Y0060067D01*
X0029438Y0060065D01*
X0029438Y0061954D02*
X0029340Y0061952D01*
X0029243Y0061947D01*
X0029145Y0061939D01*
X0029048Y0061927D01*
X0028952Y0061911D01*
X0028856Y0061893D01*
X0028760Y0061871D01*
X0028666Y0061846D01*
X0028572Y0061817D01*
X0028480Y0061785D01*
X0028389Y0061750D01*
X0028299Y0061712D01*
X0028210Y0061671D01*
X0028493Y0061765D02*
X0030382Y0060254D01*
X0030666Y0060348D02*
X0030713Y0060366D01*
X0030759Y0060388D01*
X0030804Y0060413D01*
X0030846Y0060441D01*
X0030887Y0060472D01*
X0030925Y0060506D01*
X0030960Y0060543D01*
X0030993Y0060582D01*
X0031022Y0060624D01*
X0031049Y0060667D01*
X0031072Y0060713D01*
X0031092Y0060760D01*
X0031108Y0060808D01*
X0031121Y0060857D01*
X0031131Y0060907D01*
X0031136Y0060958D01*
X0031138Y0061009D01*
X0031136Y0061060D01*
X0031131Y0061111D01*
X0031121Y0061161D01*
X0031108Y0061210D01*
X0031092Y0061258D01*
X0031072Y0061305D01*
X0031049Y0061351D01*
X0031022Y0061394D01*
X0030993Y0061436D01*
X0030960Y0061475D01*
X0030925Y0061512D01*
X0030887Y0061546D01*
X0030846Y0061577D01*
X0030804Y0061605D01*
X0030759Y0061630D01*
X0030713Y0061652D01*
X0030666Y0061670D01*
X0029438Y0060065D02*
X0029340Y0060067D01*
X0029243Y0060072D01*
X0029145Y0060080D01*
X0029048Y0060092D01*
X0028952Y0060108D01*
X0028856Y0060126D01*
X0028760Y0060148D01*
X0028666Y0060173D01*
X0028572Y0060202D01*
X0028480Y0060234D01*
X0028389Y0060269D01*
X0028299Y0060307D01*
X0028210Y0060348D01*
X0027738Y0061009D02*
X0027740Y0061060D01*
X0027745Y0061111D01*
X0027755Y0061161D01*
X0027768Y0061210D01*
X0027784Y0061258D01*
X0027804Y0061305D01*
X0027827Y0061351D01*
X0027854Y0061394D01*
X0027883Y0061436D01*
X0027916Y0061475D01*
X0027951Y0061512D01*
X0027989Y0061546D01*
X0028030Y0061577D01*
X0028072Y0061605D01*
X0028117Y0061630D01*
X0028163Y0061652D01*
X0028210Y0061670D01*
X0027738Y0061009D02*
X0027740Y0060958D01*
X0027745Y0060907D01*
X0027755Y0060857D01*
X0027768Y0060808D01*
X0027784Y0060760D01*
X0027804Y0060713D01*
X0027827Y0060667D01*
X0027854Y0060624D01*
X0027883Y0060582D01*
X0027916Y0060543D01*
X0027951Y0060506D01*
X0027989Y0060472D01*
X0028030Y0060441D01*
X0028072Y0060413D01*
X0028117Y0060388D01*
X0028163Y0060366D01*
X0028210Y0060348D01*
X0029438Y0061954D02*
X0029536Y0061952D01*
X0029633Y0061947D01*
X0029731Y0061939D01*
X0029828Y0061927D01*
X0029924Y0061911D01*
X0030020Y0061893D01*
X0030116Y0061871D01*
X0030210Y0061846D01*
X0030304Y0061817D01*
X0030396Y0061785D01*
X0030487Y0061750D01*
X0030577Y0061712D01*
X0030666Y0061671D01*
X0031138Y0058354D02*
X0031138Y0056465D01*
X0031138Y0057409D02*
X0027738Y0057409D01*
X0028493Y0056465D01*
X0027738Y0054655D02*
X0030382Y0054655D01*
X0030436Y0054653D01*
X0030490Y0054647D01*
X0030543Y0054638D01*
X0030595Y0054624D01*
X0030646Y0054607D01*
X0030696Y0054587D01*
X0030744Y0054563D01*
X0030791Y0054535D01*
X0030835Y0054504D01*
X0030877Y0054470D01*
X0030917Y0054434D01*
X0030953Y0054394D01*
X0030987Y0054352D01*
X0031018Y0054308D01*
X0031046Y0054261D01*
X0031070Y0054213D01*
X0031090Y0054163D01*
X0031107Y0054112D01*
X0031121Y0054060D01*
X0031130Y0054007D01*
X0031136Y0053953D01*
X0031138Y0053899D01*
X0031138Y0053522D01*
X0040833Y0036811D02*
X0038471Y0034449D01*
X0038471Y0013189D01*
X0062093Y0013189D01*
X0062093Y0036811D01*
X0040833Y0036811D01*
X0041038Y0032874D02*
X0041040Y0032948D01*
X0041046Y0033021D01*
X0041056Y0033094D01*
X0041069Y0033166D01*
X0041087Y0033237D01*
X0041109Y0033308D01*
X0041134Y0033377D01*
X0041162Y0033445D01*
X0041195Y0033511D01*
X0041231Y0033575D01*
X0041270Y0033637D01*
X0041313Y0033697D01*
X0041359Y0033755D01*
X0041407Y0033810D01*
X0041459Y0033862D01*
X0041513Y0033912D01*
X0041570Y0033958D01*
X0041630Y0034001D01*
X0041691Y0034042D01*
X0041755Y0034078D01*
X0041821Y0034112D01*
X0041888Y0034141D01*
X0041957Y0034168D01*
X0042027Y0034190D01*
X0042098Y0034208D01*
X0042170Y0034223D01*
X0042243Y0034234D01*
X0042316Y0034241D01*
X0042390Y0034244D01*
X0042463Y0034243D01*
X0042537Y0034238D01*
X0042610Y0034229D01*
X0042682Y0034216D01*
X0042754Y0034200D01*
X0042824Y0034179D01*
X0042894Y0034155D01*
X0042962Y0034127D01*
X0043028Y0034096D01*
X0043093Y0034060D01*
X0043156Y0034022D01*
X0043216Y0033980D01*
X0043274Y0033935D01*
X0043330Y0033887D01*
X0043383Y0033836D01*
X0043433Y0033782D01*
X0043481Y0033726D01*
X0043525Y0033667D01*
X0043566Y0033606D01*
X0043604Y0033543D01*
X0043638Y0033478D01*
X0043668Y0033411D01*
X0043695Y0033343D01*
X0043719Y0033273D01*
X0043738Y0033202D01*
X0043754Y0033130D01*
X0043766Y0033057D01*
X0043774Y0032984D01*
X0043778Y0032911D01*
X0043778Y0032837D01*
X0043774Y0032764D01*
X0043766Y0032691D01*
X0043754Y0032618D01*
X0043738Y0032546D01*
X0043719Y0032475D01*
X0043695Y0032405D01*
X0043668Y0032337D01*
X0043638Y0032270D01*
X0043604Y0032205D01*
X0043566Y0032142D01*
X0043525Y0032081D01*
X0043481Y0032022D01*
X0043433Y0031966D01*
X0043383Y0031912D01*
X0043330Y0031861D01*
X0043274Y0031813D01*
X0043216Y0031768D01*
X0043156Y0031726D01*
X0043093Y0031688D01*
X0043028Y0031652D01*
X0042962Y0031621D01*
X0042894Y0031593D01*
X0042824Y0031569D01*
X0042754Y0031548D01*
X0042682Y0031532D01*
X0042610Y0031519D01*
X0042537Y0031510D01*
X0042463Y0031505D01*
X0042390Y0031504D01*
X0042316Y0031507D01*
X0042243Y0031514D01*
X0042170Y0031525D01*
X0042098Y0031540D01*
X0042027Y0031558D01*
X0041957Y0031580D01*
X0041888Y0031607D01*
X0041821Y0031636D01*
X0041755Y0031670D01*
X0041691Y0031706D01*
X0041630Y0031747D01*
X0041570Y0031790D01*
X0041513Y0031836D01*
X0041459Y0031886D01*
X0041407Y0031938D01*
X0041359Y0031993D01*
X0041313Y0032051D01*
X0041270Y0032111D01*
X0041231Y0032173D01*
X0041195Y0032237D01*
X0041162Y0032303D01*
X0041134Y0032371D01*
X0041109Y0032440D01*
X0041087Y0032511D01*
X0041069Y0032582D01*
X0041056Y0032654D01*
X0041046Y0032727D01*
X0041040Y0032800D01*
X0041038Y0032874D01*
X0109909Y0088254D02*
X0109909Y0111754D01*
X0109911Y0111814D01*
X0109916Y0111875D01*
X0109925Y0111934D01*
X0109938Y0111993D01*
X0109954Y0112052D01*
X0109974Y0112109D01*
X0109997Y0112164D01*
X0110024Y0112219D01*
X0110053Y0112271D01*
X0110086Y0112322D01*
X0110122Y0112371D01*
X0110160Y0112417D01*
X0110202Y0112461D01*
X0110246Y0112503D01*
X0110292Y0112541D01*
X0110341Y0112577D01*
X0110392Y0112610D01*
X0110444Y0112639D01*
X0110499Y0112666D01*
X0110554Y0112689D01*
X0110611Y0112709D01*
X0110670Y0112725D01*
X0110729Y0112738D01*
X0110788Y0112747D01*
X0110849Y0112752D01*
X0110909Y0112754D01*
X0116909Y0112754D01*
X0116969Y0112752D01*
X0117030Y0112747D01*
X0117089Y0112738D01*
X0117148Y0112725D01*
X0117207Y0112709D01*
X0117264Y0112689D01*
X0117319Y0112666D01*
X0117374Y0112639D01*
X0117426Y0112610D01*
X0117477Y0112577D01*
X0117526Y0112541D01*
X0117572Y0112503D01*
X0117616Y0112461D01*
X0117658Y0112417D01*
X0117696Y0112371D01*
X0117732Y0112322D01*
X0117765Y0112271D01*
X0117794Y0112219D01*
X0117821Y0112164D01*
X0117844Y0112109D01*
X0117864Y0112052D01*
X0117880Y0111993D01*
X0117893Y0111934D01*
X0117902Y0111875D01*
X0117907Y0111814D01*
X0117909Y0111754D01*
X0117909Y0088254D01*
X0117409Y0088254D01*
X0110409Y0088254D01*
X0109909Y0088254D01*
D15*
X0128540Y0083383D02*
X0128540Y0077182D01*
X0133823Y0077182D01*
X0133823Y0069058D02*
X0128540Y0069058D01*
X0128540Y0062857D01*
X0145272Y0064038D02*
X0145272Y0031755D01*
X0133823Y0026735D02*
X0128540Y0026735D01*
X0128540Y0032936D01*
X0145272Y0082202D02*
X0145272Y0114485D01*
X0133823Y0119505D02*
X0128540Y0119505D01*
X0128540Y0113304D01*
X0124701Y0124754D02*
X0118501Y0124754D01*
X0124701Y0124754D02*
X0124701Y0130037D01*
X0119682Y0141486D02*
X0087398Y0141486D01*
X0082379Y0130037D02*
X0082379Y0124754D01*
X0088579Y0124754D01*
D16*
X0078530Y0124754D02*
X0072070Y0124754D01*
X0078530Y0124754D02*
X0078530Y0130006D01*
X0073916Y0140699D02*
X0050664Y0140699D01*
X0046050Y0130006D02*
X0046050Y0124754D01*
X0052510Y0124754D01*
X0065095Y0103179D02*
X0061158Y0099242D01*
X0061158Y0071683D01*
X0092654Y0071683D01*
X0092654Y0103179D01*
X0065095Y0103179D01*
X0092300Y0022254D02*
X0098760Y0022254D01*
X0092300Y0022254D02*
X0092300Y0017002D01*
X0096914Y0006309D02*
X0120166Y0006309D01*
X0124780Y0017002D02*
X0124780Y0022254D01*
X0118320Y0022254D01*
D17*
X0064670Y0097667D02*
X0064672Y0097756D01*
X0064678Y0097845D01*
X0064688Y0097934D01*
X0064702Y0098022D01*
X0064719Y0098109D01*
X0064741Y0098195D01*
X0064767Y0098281D01*
X0064796Y0098365D01*
X0064829Y0098448D01*
X0064865Y0098529D01*
X0064906Y0098609D01*
X0064949Y0098686D01*
X0064996Y0098762D01*
X0065047Y0098835D01*
X0065100Y0098906D01*
X0065157Y0098975D01*
X0065217Y0099041D01*
X0065280Y0099105D01*
X0065345Y0099165D01*
X0065413Y0099223D01*
X0065484Y0099277D01*
X0065557Y0099328D01*
X0065632Y0099376D01*
X0065709Y0099421D01*
X0065788Y0099462D01*
X0065869Y0099499D01*
X0065951Y0099533D01*
X0066035Y0099564D01*
X0066120Y0099590D01*
X0066206Y0099613D01*
X0066293Y0099631D01*
X0066381Y0099646D01*
X0066470Y0099657D01*
X0066559Y0099664D01*
X0066648Y0099667D01*
X0066737Y0099666D01*
X0066826Y0099661D01*
X0066914Y0099652D01*
X0067003Y0099639D01*
X0067090Y0099622D01*
X0067177Y0099602D01*
X0067263Y0099577D01*
X0067347Y0099549D01*
X0067430Y0099517D01*
X0067512Y0099481D01*
X0067592Y0099442D01*
X0067670Y0099399D01*
X0067746Y0099353D01*
X0067820Y0099303D01*
X0067892Y0099250D01*
X0067961Y0099194D01*
X0068028Y0099135D01*
X0068092Y0099073D01*
X0068153Y0099009D01*
X0068212Y0098941D01*
X0068267Y0098871D01*
X0068319Y0098799D01*
X0068368Y0098724D01*
X0068413Y0098648D01*
X0068455Y0098569D01*
X0068493Y0098489D01*
X0068528Y0098407D01*
X0068559Y0098323D01*
X0068587Y0098238D01*
X0068610Y0098152D01*
X0068630Y0098065D01*
X0068646Y0097978D01*
X0068658Y0097889D01*
X0068666Y0097801D01*
X0068670Y0097712D01*
X0068670Y0097622D01*
X0068666Y0097533D01*
X0068658Y0097445D01*
X0068646Y0097356D01*
X0068630Y0097269D01*
X0068610Y0097182D01*
X0068587Y0097096D01*
X0068559Y0097011D01*
X0068528Y0096927D01*
X0068493Y0096845D01*
X0068455Y0096765D01*
X0068413Y0096686D01*
X0068368Y0096610D01*
X0068319Y0096535D01*
X0068267Y0096463D01*
X0068212Y0096393D01*
X0068153Y0096325D01*
X0068092Y0096261D01*
X0068028Y0096199D01*
X0067961Y0096140D01*
X0067892Y0096084D01*
X0067820Y0096031D01*
X0067746Y0095981D01*
X0067670Y0095935D01*
X0067592Y0095892D01*
X0067512Y0095853D01*
X0067430Y0095817D01*
X0067347Y0095785D01*
X0067263Y0095757D01*
X0067177Y0095732D01*
X0067090Y0095712D01*
X0067003Y0095695D01*
X0066914Y0095682D01*
X0066826Y0095673D01*
X0066737Y0095668D01*
X0066648Y0095667D01*
X0066559Y0095670D01*
X0066470Y0095677D01*
X0066381Y0095688D01*
X0066293Y0095703D01*
X0066206Y0095721D01*
X0066120Y0095744D01*
X0066035Y0095770D01*
X0065951Y0095801D01*
X0065869Y0095835D01*
X0065788Y0095872D01*
X0065709Y0095913D01*
X0065632Y0095958D01*
X0065557Y0096006D01*
X0065484Y0096057D01*
X0065413Y0096111D01*
X0065345Y0096169D01*
X0065280Y0096229D01*
X0065217Y0096293D01*
X0065157Y0096359D01*
X0065100Y0096428D01*
X0065047Y0096499D01*
X0064996Y0096572D01*
X0064949Y0096648D01*
X0064906Y0096725D01*
X0064865Y0096805D01*
X0064829Y0096886D01*
X0064796Y0096969D01*
X0064767Y0097053D01*
X0064741Y0097139D01*
X0064719Y0097225D01*
X0064702Y0097312D01*
X0064688Y0097400D01*
X0064678Y0097489D01*
X0064672Y0097578D01*
X0064670Y0097667D01*
D18*
X0073028Y0038637D02*
X0073028Y0028401D01*
X0084052Y0028401D02*
X0084052Y0038637D01*
D19*
X0012674Y0030246D02*
X0009918Y0030246D01*
X0008934Y0029262D02*
X0008936Y0029200D01*
X0008942Y0029139D01*
X0008951Y0029078D01*
X0008965Y0029017D01*
X0008982Y0028958D01*
X0009003Y0028900D01*
X0009028Y0028843D01*
X0009056Y0028788D01*
X0009087Y0028735D01*
X0009122Y0028684D01*
X0009160Y0028635D01*
X0009201Y0028588D01*
X0009244Y0028545D01*
X0009291Y0028504D01*
X0009340Y0028466D01*
X0009391Y0028431D01*
X0009444Y0028400D01*
X0009499Y0028372D01*
X0009556Y0028347D01*
X0009614Y0028326D01*
X0009673Y0028309D01*
X0009734Y0028295D01*
X0009795Y0028286D01*
X0009856Y0028280D01*
X0009918Y0028278D01*
X0012674Y0028278D01*
X0013658Y0029262D02*
X0013656Y0029324D01*
X0013650Y0029385D01*
X0013641Y0029446D01*
X0013627Y0029507D01*
X0013610Y0029566D01*
X0013589Y0029624D01*
X0013564Y0029681D01*
X0013536Y0029736D01*
X0013505Y0029789D01*
X0013470Y0029840D01*
X0013432Y0029889D01*
X0013391Y0029936D01*
X0013348Y0029979D01*
X0013301Y0030020D01*
X0013252Y0030058D01*
X0013201Y0030093D01*
X0013148Y0030124D01*
X0013093Y0030152D01*
X0013036Y0030177D01*
X0012978Y0030198D01*
X0012919Y0030215D01*
X0012858Y0030229D01*
X0012797Y0030238D01*
X0012736Y0030244D01*
X0012674Y0030246D01*
X0013658Y0029262D02*
X0013656Y0029200D01*
X0013650Y0029139D01*
X0013641Y0029078D01*
X0013627Y0029017D01*
X0013610Y0028958D01*
X0013589Y0028900D01*
X0013564Y0028843D01*
X0013536Y0028788D01*
X0013505Y0028735D01*
X0013470Y0028684D01*
X0013432Y0028635D01*
X0013391Y0028588D01*
X0013348Y0028545D01*
X0013301Y0028504D01*
X0013252Y0028466D01*
X0013201Y0028431D01*
X0013148Y0028400D01*
X0013093Y0028372D01*
X0013036Y0028347D01*
X0012978Y0028326D01*
X0012919Y0028309D01*
X0012858Y0028295D01*
X0012797Y0028286D01*
X0012736Y0028280D01*
X0012674Y0028278D01*
X0009918Y0030246D02*
X0009856Y0030244D01*
X0009795Y0030238D01*
X0009734Y0030229D01*
X0009673Y0030215D01*
X0009614Y0030198D01*
X0009556Y0030177D01*
X0009499Y0030152D01*
X0009444Y0030124D01*
X0009391Y0030093D01*
X0009340Y0030058D01*
X0009291Y0030020D01*
X0009244Y0029979D01*
X0009201Y0029936D01*
X0009160Y0029889D01*
X0009122Y0029840D01*
X0009087Y0029789D01*
X0009056Y0029736D01*
X0009028Y0029681D01*
X0009003Y0029624D01*
X0008982Y0029566D01*
X0008965Y0029507D01*
X0008951Y0029446D01*
X0008942Y0029385D01*
X0008936Y0029324D01*
X0008934Y0029262D01*
X0009918Y0054262D02*
X0012674Y0054262D01*
X0013658Y0055246D02*
X0013656Y0055308D01*
X0013650Y0055369D01*
X0013641Y0055430D01*
X0013627Y0055491D01*
X0013610Y0055550D01*
X0013589Y0055608D01*
X0013564Y0055665D01*
X0013536Y0055720D01*
X0013505Y0055773D01*
X0013470Y0055824D01*
X0013432Y0055873D01*
X0013391Y0055920D01*
X0013348Y0055963D01*
X0013301Y0056004D01*
X0013252Y0056042D01*
X0013201Y0056077D01*
X0013148Y0056108D01*
X0013093Y0056136D01*
X0013036Y0056161D01*
X0012978Y0056182D01*
X0012919Y0056199D01*
X0012858Y0056213D01*
X0012797Y0056222D01*
X0012736Y0056228D01*
X0012674Y0056230D01*
X0009918Y0056230D01*
X0008934Y0055246D02*
X0008936Y0055184D01*
X0008942Y0055123D01*
X0008951Y0055062D01*
X0008965Y0055001D01*
X0008982Y0054942D01*
X0009003Y0054884D01*
X0009028Y0054827D01*
X0009056Y0054772D01*
X0009087Y0054719D01*
X0009122Y0054668D01*
X0009160Y0054619D01*
X0009201Y0054572D01*
X0009244Y0054529D01*
X0009291Y0054488D01*
X0009340Y0054450D01*
X0009391Y0054415D01*
X0009444Y0054384D01*
X0009499Y0054356D01*
X0009556Y0054331D01*
X0009614Y0054310D01*
X0009673Y0054293D01*
X0009734Y0054279D01*
X0009795Y0054270D01*
X0009856Y0054264D01*
X0009918Y0054262D01*
X0008934Y0055246D02*
X0008936Y0055308D01*
X0008942Y0055369D01*
X0008951Y0055430D01*
X0008965Y0055491D01*
X0008982Y0055550D01*
X0009003Y0055608D01*
X0009028Y0055665D01*
X0009056Y0055720D01*
X0009087Y0055773D01*
X0009122Y0055824D01*
X0009160Y0055873D01*
X0009201Y0055920D01*
X0009244Y0055963D01*
X0009291Y0056004D01*
X0009340Y0056042D01*
X0009391Y0056077D01*
X0009444Y0056108D01*
X0009499Y0056136D01*
X0009556Y0056161D01*
X0009614Y0056182D01*
X0009673Y0056199D01*
X0009734Y0056213D01*
X0009795Y0056222D01*
X0009856Y0056228D01*
X0009918Y0056230D01*
X0012674Y0054262D02*
X0012736Y0054264D01*
X0012797Y0054270D01*
X0012858Y0054279D01*
X0012919Y0054293D01*
X0012978Y0054310D01*
X0013036Y0054331D01*
X0013093Y0054356D01*
X0013148Y0054384D01*
X0013201Y0054415D01*
X0013252Y0054450D01*
X0013301Y0054488D01*
X0013348Y0054529D01*
X0013391Y0054572D01*
X0013432Y0054619D01*
X0013470Y0054668D01*
X0013505Y0054719D01*
X0013536Y0054772D01*
X0013564Y0054827D01*
X0013589Y0054884D01*
X0013610Y0054942D01*
X0013627Y0055001D01*
X0013641Y0055062D01*
X0013650Y0055123D01*
X0013656Y0055184D01*
X0013658Y0055246D01*
M02*
