G75*
%MOIN*%
%OFA0B0*%
%FSLAX25Y25*%
%IPPOS*%
%LPD*%
%AMOC8*
5,1,8,0,0,1.08239X$1,22.5*
%
%ADD10C,0.00000*%
%ADD11C,0.00875*%
%ADD12C,0.01000*%
%ADD13R,0.06693X0.02362*%
%ADD14R,0.11024X0.03937*%
%ADD15R,0.02362X0.06693*%
%ADD16R,0.03937X0.11024*%
%ADD17C,0.00591*%
%ADD18C,0.00630*%
%ADD19R,0.04500X0.04000*%
%ADD20R,0.03937X0.03543*%
%ADD21R,0.05000X0.09000*%
%ADD22R,0.14000X0.08500*%
%ADD23R,0.05315X0.01575*%
%ADD24R,0.05512X0.06299*%
%ADD25C,0.00039*%
%ADD26R,0.07480X0.07480*%
%ADD27C,0.03543*%
D10*
X0006040Y0013081D02*
X0006040Y0133159D01*
X0010961Y0133159D02*
X0010963Y0133312D01*
X0010969Y0133466D01*
X0010979Y0133619D01*
X0010993Y0133771D01*
X0011011Y0133924D01*
X0011033Y0134075D01*
X0011058Y0134226D01*
X0011088Y0134377D01*
X0011122Y0134527D01*
X0011159Y0134675D01*
X0011200Y0134823D01*
X0011245Y0134969D01*
X0011294Y0135115D01*
X0011347Y0135259D01*
X0011403Y0135401D01*
X0011463Y0135542D01*
X0011527Y0135682D01*
X0011594Y0135820D01*
X0011665Y0135956D01*
X0011740Y0136090D01*
X0011817Y0136222D01*
X0011899Y0136352D01*
X0011983Y0136480D01*
X0012071Y0136606D01*
X0012162Y0136729D01*
X0012256Y0136850D01*
X0012354Y0136968D01*
X0012454Y0137084D01*
X0012558Y0137197D01*
X0012664Y0137308D01*
X0012773Y0137416D01*
X0012885Y0137521D01*
X0012999Y0137622D01*
X0013117Y0137721D01*
X0013236Y0137817D01*
X0013358Y0137910D01*
X0013483Y0137999D01*
X0013610Y0138086D01*
X0013739Y0138168D01*
X0013870Y0138248D01*
X0014003Y0138324D01*
X0014138Y0138397D01*
X0014275Y0138466D01*
X0014414Y0138531D01*
X0014554Y0138593D01*
X0014696Y0138651D01*
X0014839Y0138706D01*
X0014984Y0138757D01*
X0015130Y0138804D01*
X0015277Y0138847D01*
X0015425Y0138886D01*
X0015574Y0138922D01*
X0015724Y0138953D01*
X0015875Y0138981D01*
X0016026Y0139005D01*
X0016179Y0139025D01*
X0016331Y0139041D01*
X0016484Y0139053D01*
X0016637Y0139061D01*
X0016790Y0139065D01*
X0016944Y0139065D01*
X0017097Y0139061D01*
X0017250Y0139053D01*
X0017403Y0139041D01*
X0017555Y0139025D01*
X0017708Y0139005D01*
X0017859Y0138981D01*
X0018010Y0138953D01*
X0018160Y0138922D01*
X0018309Y0138886D01*
X0018457Y0138847D01*
X0018604Y0138804D01*
X0018750Y0138757D01*
X0018895Y0138706D01*
X0019038Y0138651D01*
X0019180Y0138593D01*
X0019320Y0138531D01*
X0019459Y0138466D01*
X0019596Y0138397D01*
X0019731Y0138324D01*
X0019864Y0138248D01*
X0019995Y0138168D01*
X0020124Y0138086D01*
X0020251Y0137999D01*
X0020376Y0137910D01*
X0020498Y0137817D01*
X0020617Y0137721D01*
X0020735Y0137622D01*
X0020849Y0137521D01*
X0020961Y0137416D01*
X0021070Y0137308D01*
X0021176Y0137197D01*
X0021280Y0137084D01*
X0021380Y0136968D01*
X0021478Y0136850D01*
X0021572Y0136729D01*
X0021663Y0136606D01*
X0021751Y0136480D01*
X0021835Y0136352D01*
X0021917Y0136222D01*
X0021994Y0136090D01*
X0022069Y0135956D01*
X0022140Y0135820D01*
X0022207Y0135682D01*
X0022271Y0135542D01*
X0022331Y0135401D01*
X0022387Y0135259D01*
X0022440Y0135115D01*
X0022489Y0134969D01*
X0022534Y0134823D01*
X0022575Y0134675D01*
X0022612Y0134527D01*
X0022646Y0134377D01*
X0022676Y0134226D01*
X0022701Y0134075D01*
X0022723Y0133924D01*
X0022741Y0133771D01*
X0022755Y0133619D01*
X0022765Y0133466D01*
X0022771Y0133312D01*
X0022773Y0133159D01*
X0022771Y0133006D01*
X0022765Y0132852D01*
X0022755Y0132699D01*
X0022741Y0132547D01*
X0022723Y0132394D01*
X0022701Y0132243D01*
X0022676Y0132092D01*
X0022646Y0131941D01*
X0022612Y0131791D01*
X0022575Y0131643D01*
X0022534Y0131495D01*
X0022489Y0131349D01*
X0022440Y0131203D01*
X0022387Y0131059D01*
X0022331Y0130917D01*
X0022271Y0130776D01*
X0022207Y0130636D01*
X0022140Y0130498D01*
X0022069Y0130362D01*
X0021994Y0130228D01*
X0021917Y0130096D01*
X0021835Y0129966D01*
X0021751Y0129838D01*
X0021663Y0129712D01*
X0021572Y0129589D01*
X0021478Y0129468D01*
X0021380Y0129350D01*
X0021280Y0129234D01*
X0021176Y0129121D01*
X0021070Y0129010D01*
X0020961Y0128902D01*
X0020849Y0128797D01*
X0020735Y0128696D01*
X0020617Y0128597D01*
X0020498Y0128501D01*
X0020376Y0128408D01*
X0020251Y0128319D01*
X0020124Y0128232D01*
X0019995Y0128150D01*
X0019864Y0128070D01*
X0019731Y0127994D01*
X0019596Y0127921D01*
X0019459Y0127852D01*
X0019320Y0127787D01*
X0019180Y0127725D01*
X0019038Y0127667D01*
X0018895Y0127612D01*
X0018750Y0127561D01*
X0018604Y0127514D01*
X0018457Y0127471D01*
X0018309Y0127432D01*
X0018160Y0127396D01*
X0018010Y0127365D01*
X0017859Y0127337D01*
X0017708Y0127313D01*
X0017555Y0127293D01*
X0017403Y0127277D01*
X0017250Y0127265D01*
X0017097Y0127257D01*
X0016944Y0127253D01*
X0016790Y0127253D01*
X0016637Y0127257D01*
X0016484Y0127265D01*
X0016331Y0127277D01*
X0016179Y0127293D01*
X0016026Y0127313D01*
X0015875Y0127337D01*
X0015724Y0127365D01*
X0015574Y0127396D01*
X0015425Y0127432D01*
X0015277Y0127471D01*
X0015130Y0127514D01*
X0014984Y0127561D01*
X0014839Y0127612D01*
X0014696Y0127667D01*
X0014554Y0127725D01*
X0014414Y0127787D01*
X0014275Y0127852D01*
X0014138Y0127921D01*
X0014003Y0127994D01*
X0013870Y0128070D01*
X0013739Y0128150D01*
X0013610Y0128232D01*
X0013483Y0128319D01*
X0013358Y0128408D01*
X0013236Y0128501D01*
X0013117Y0128597D01*
X0012999Y0128696D01*
X0012885Y0128797D01*
X0012773Y0128902D01*
X0012664Y0129010D01*
X0012558Y0129121D01*
X0012454Y0129234D01*
X0012354Y0129350D01*
X0012256Y0129468D01*
X0012162Y0129589D01*
X0012071Y0129712D01*
X0011983Y0129838D01*
X0011899Y0129966D01*
X0011817Y0130096D01*
X0011740Y0130228D01*
X0011665Y0130362D01*
X0011594Y0130498D01*
X0011527Y0130636D01*
X0011463Y0130776D01*
X0011403Y0130917D01*
X0011347Y0131059D01*
X0011294Y0131203D01*
X0011245Y0131349D01*
X0011200Y0131495D01*
X0011159Y0131643D01*
X0011122Y0131791D01*
X0011088Y0131941D01*
X0011058Y0132092D01*
X0011033Y0132243D01*
X0011011Y0132394D01*
X0010993Y0132547D01*
X0010979Y0132699D01*
X0010969Y0132852D01*
X0010963Y0133006D01*
X0010961Y0133159D01*
X0006040Y0133159D02*
X0006043Y0133421D01*
X0006053Y0133682D01*
X0006068Y0133943D01*
X0006091Y0134204D01*
X0006119Y0134464D01*
X0006154Y0134723D01*
X0006195Y0134982D01*
X0006242Y0135239D01*
X0006295Y0135495D01*
X0006355Y0135750D01*
X0006420Y0136003D01*
X0006492Y0136255D01*
X0006570Y0136505D01*
X0006654Y0136753D01*
X0006744Y0136998D01*
X0006839Y0137242D01*
X0006941Y0137483D01*
X0007048Y0137722D01*
X0007161Y0137957D01*
X0007280Y0138191D01*
X0007405Y0138421D01*
X0007534Y0138648D01*
X0007670Y0138872D01*
X0007811Y0139092D01*
X0007957Y0139309D01*
X0008108Y0139523D01*
X0008264Y0139733D01*
X0008425Y0139939D01*
X0008592Y0140141D01*
X0008763Y0140339D01*
X0008939Y0140532D01*
X0009119Y0140722D01*
X0009304Y0140907D01*
X0009494Y0141087D01*
X0009687Y0141263D01*
X0009885Y0141434D01*
X0010087Y0141601D01*
X0010293Y0141762D01*
X0010503Y0141918D01*
X0010717Y0142069D01*
X0010934Y0142215D01*
X0011154Y0142356D01*
X0011378Y0142492D01*
X0011605Y0142621D01*
X0011835Y0142746D01*
X0012069Y0142865D01*
X0012304Y0142978D01*
X0012543Y0143085D01*
X0012784Y0143187D01*
X0013028Y0143282D01*
X0013273Y0143372D01*
X0013521Y0143456D01*
X0013771Y0143534D01*
X0014023Y0143606D01*
X0014276Y0143671D01*
X0014531Y0143731D01*
X0014787Y0143784D01*
X0015044Y0143831D01*
X0015303Y0143872D01*
X0015562Y0143907D01*
X0015822Y0143935D01*
X0016083Y0143958D01*
X0016344Y0143973D01*
X0016605Y0143983D01*
X0016867Y0143986D01*
X0136946Y0143986D01*
X0131040Y0133159D02*
X0131042Y0133312D01*
X0131048Y0133466D01*
X0131058Y0133619D01*
X0131072Y0133771D01*
X0131090Y0133924D01*
X0131112Y0134075D01*
X0131137Y0134226D01*
X0131167Y0134377D01*
X0131201Y0134527D01*
X0131238Y0134675D01*
X0131279Y0134823D01*
X0131324Y0134969D01*
X0131373Y0135115D01*
X0131426Y0135259D01*
X0131482Y0135401D01*
X0131542Y0135542D01*
X0131606Y0135682D01*
X0131673Y0135820D01*
X0131744Y0135956D01*
X0131819Y0136090D01*
X0131896Y0136222D01*
X0131978Y0136352D01*
X0132062Y0136480D01*
X0132150Y0136606D01*
X0132241Y0136729D01*
X0132335Y0136850D01*
X0132433Y0136968D01*
X0132533Y0137084D01*
X0132637Y0137197D01*
X0132743Y0137308D01*
X0132852Y0137416D01*
X0132964Y0137521D01*
X0133078Y0137622D01*
X0133196Y0137721D01*
X0133315Y0137817D01*
X0133437Y0137910D01*
X0133562Y0137999D01*
X0133689Y0138086D01*
X0133818Y0138168D01*
X0133949Y0138248D01*
X0134082Y0138324D01*
X0134217Y0138397D01*
X0134354Y0138466D01*
X0134493Y0138531D01*
X0134633Y0138593D01*
X0134775Y0138651D01*
X0134918Y0138706D01*
X0135063Y0138757D01*
X0135209Y0138804D01*
X0135356Y0138847D01*
X0135504Y0138886D01*
X0135653Y0138922D01*
X0135803Y0138953D01*
X0135954Y0138981D01*
X0136105Y0139005D01*
X0136258Y0139025D01*
X0136410Y0139041D01*
X0136563Y0139053D01*
X0136716Y0139061D01*
X0136869Y0139065D01*
X0137023Y0139065D01*
X0137176Y0139061D01*
X0137329Y0139053D01*
X0137482Y0139041D01*
X0137634Y0139025D01*
X0137787Y0139005D01*
X0137938Y0138981D01*
X0138089Y0138953D01*
X0138239Y0138922D01*
X0138388Y0138886D01*
X0138536Y0138847D01*
X0138683Y0138804D01*
X0138829Y0138757D01*
X0138974Y0138706D01*
X0139117Y0138651D01*
X0139259Y0138593D01*
X0139399Y0138531D01*
X0139538Y0138466D01*
X0139675Y0138397D01*
X0139810Y0138324D01*
X0139943Y0138248D01*
X0140074Y0138168D01*
X0140203Y0138086D01*
X0140330Y0137999D01*
X0140455Y0137910D01*
X0140577Y0137817D01*
X0140696Y0137721D01*
X0140814Y0137622D01*
X0140928Y0137521D01*
X0141040Y0137416D01*
X0141149Y0137308D01*
X0141255Y0137197D01*
X0141359Y0137084D01*
X0141459Y0136968D01*
X0141557Y0136850D01*
X0141651Y0136729D01*
X0141742Y0136606D01*
X0141830Y0136480D01*
X0141914Y0136352D01*
X0141996Y0136222D01*
X0142073Y0136090D01*
X0142148Y0135956D01*
X0142219Y0135820D01*
X0142286Y0135682D01*
X0142350Y0135542D01*
X0142410Y0135401D01*
X0142466Y0135259D01*
X0142519Y0135115D01*
X0142568Y0134969D01*
X0142613Y0134823D01*
X0142654Y0134675D01*
X0142691Y0134527D01*
X0142725Y0134377D01*
X0142755Y0134226D01*
X0142780Y0134075D01*
X0142802Y0133924D01*
X0142820Y0133771D01*
X0142834Y0133619D01*
X0142844Y0133466D01*
X0142850Y0133312D01*
X0142852Y0133159D01*
X0142850Y0133006D01*
X0142844Y0132852D01*
X0142834Y0132699D01*
X0142820Y0132547D01*
X0142802Y0132394D01*
X0142780Y0132243D01*
X0142755Y0132092D01*
X0142725Y0131941D01*
X0142691Y0131791D01*
X0142654Y0131643D01*
X0142613Y0131495D01*
X0142568Y0131349D01*
X0142519Y0131203D01*
X0142466Y0131059D01*
X0142410Y0130917D01*
X0142350Y0130776D01*
X0142286Y0130636D01*
X0142219Y0130498D01*
X0142148Y0130362D01*
X0142073Y0130228D01*
X0141996Y0130096D01*
X0141914Y0129966D01*
X0141830Y0129838D01*
X0141742Y0129712D01*
X0141651Y0129589D01*
X0141557Y0129468D01*
X0141459Y0129350D01*
X0141359Y0129234D01*
X0141255Y0129121D01*
X0141149Y0129010D01*
X0141040Y0128902D01*
X0140928Y0128797D01*
X0140814Y0128696D01*
X0140696Y0128597D01*
X0140577Y0128501D01*
X0140455Y0128408D01*
X0140330Y0128319D01*
X0140203Y0128232D01*
X0140074Y0128150D01*
X0139943Y0128070D01*
X0139810Y0127994D01*
X0139675Y0127921D01*
X0139538Y0127852D01*
X0139399Y0127787D01*
X0139259Y0127725D01*
X0139117Y0127667D01*
X0138974Y0127612D01*
X0138829Y0127561D01*
X0138683Y0127514D01*
X0138536Y0127471D01*
X0138388Y0127432D01*
X0138239Y0127396D01*
X0138089Y0127365D01*
X0137938Y0127337D01*
X0137787Y0127313D01*
X0137634Y0127293D01*
X0137482Y0127277D01*
X0137329Y0127265D01*
X0137176Y0127257D01*
X0137023Y0127253D01*
X0136869Y0127253D01*
X0136716Y0127257D01*
X0136563Y0127265D01*
X0136410Y0127277D01*
X0136258Y0127293D01*
X0136105Y0127313D01*
X0135954Y0127337D01*
X0135803Y0127365D01*
X0135653Y0127396D01*
X0135504Y0127432D01*
X0135356Y0127471D01*
X0135209Y0127514D01*
X0135063Y0127561D01*
X0134918Y0127612D01*
X0134775Y0127667D01*
X0134633Y0127725D01*
X0134493Y0127787D01*
X0134354Y0127852D01*
X0134217Y0127921D01*
X0134082Y0127994D01*
X0133949Y0128070D01*
X0133818Y0128150D01*
X0133689Y0128232D01*
X0133562Y0128319D01*
X0133437Y0128408D01*
X0133315Y0128501D01*
X0133196Y0128597D01*
X0133078Y0128696D01*
X0132964Y0128797D01*
X0132852Y0128902D01*
X0132743Y0129010D01*
X0132637Y0129121D01*
X0132533Y0129234D01*
X0132433Y0129350D01*
X0132335Y0129468D01*
X0132241Y0129589D01*
X0132150Y0129712D01*
X0132062Y0129838D01*
X0131978Y0129966D01*
X0131896Y0130096D01*
X0131819Y0130228D01*
X0131744Y0130362D01*
X0131673Y0130498D01*
X0131606Y0130636D01*
X0131542Y0130776D01*
X0131482Y0130917D01*
X0131426Y0131059D01*
X0131373Y0131203D01*
X0131324Y0131349D01*
X0131279Y0131495D01*
X0131238Y0131643D01*
X0131201Y0131791D01*
X0131167Y0131941D01*
X0131137Y0132092D01*
X0131112Y0132243D01*
X0131090Y0132394D01*
X0131072Y0132547D01*
X0131058Y0132699D01*
X0131048Y0132852D01*
X0131042Y0133006D01*
X0131040Y0133159D01*
X0136946Y0143986D02*
X0137208Y0143983D01*
X0137469Y0143973D01*
X0137730Y0143958D01*
X0137991Y0143935D01*
X0138251Y0143907D01*
X0138510Y0143872D01*
X0138769Y0143831D01*
X0139026Y0143784D01*
X0139282Y0143731D01*
X0139537Y0143671D01*
X0139790Y0143606D01*
X0140042Y0143534D01*
X0140292Y0143456D01*
X0140540Y0143372D01*
X0140785Y0143282D01*
X0141029Y0143187D01*
X0141270Y0143085D01*
X0141509Y0142978D01*
X0141744Y0142865D01*
X0141978Y0142746D01*
X0142208Y0142621D01*
X0142435Y0142492D01*
X0142659Y0142356D01*
X0142879Y0142215D01*
X0143096Y0142069D01*
X0143310Y0141918D01*
X0143520Y0141762D01*
X0143726Y0141601D01*
X0143928Y0141434D01*
X0144126Y0141263D01*
X0144319Y0141087D01*
X0144509Y0140907D01*
X0144694Y0140722D01*
X0144874Y0140532D01*
X0145050Y0140339D01*
X0145221Y0140141D01*
X0145388Y0139939D01*
X0145549Y0139733D01*
X0145705Y0139523D01*
X0145856Y0139309D01*
X0146002Y0139092D01*
X0146143Y0138872D01*
X0146279Y0138648D01*
X0146408Y0138421D01*
X0146533Y0138191D01*
X0146652Y0137957D01*
X0146765Y0137722D01*
X0146872Y0137483D01*
X0146974Y0137242D01*
X0147069Y0136998D01*
X0147159Y0136753D01*
X0147243Y0136505D01*
X0147321Y0136255D01*
X0147393Y0136003D01*
X0147458Y0135750D01*
X0147518Y0135495D01*
X0147571Y0135239D01*
X0147618Y0134982D01*
X0147659Y0134723D01*
X0147694Y0134464D01*
X0147722Y0134204D01*
X0147745Y0133943D01*
X0147760Y0133682D01*
X0147770Y0133421D01*
X0147773Y0133159D01*
X0147772Y0133159D02*
X0147772Y0013081D01*
X0131040Y0013081D02*
X0131042Y0013234D01*
X0131048Y0013388D01*
X0131058Y0013541D01*
X0131072Y0013693D01*
X0131090Y0013846D01*
X0131112Y0013997D01*
X0131137Y0014148D01*
X0131167Y0014299D01*
X0131201Y0014449D01*
X0131238Y0014597D01*
X0131279Y0014745D01*
X0131324Y0014891D01*
X0131373Y0015037D01*
X0131426Y0015181D01*
X0131482Y0015323D01*
X0131542Y0015464D01*
X0131606Y0015604D01*
X0131673Y0015742D01*
X0131744Y0015878D01*
X0131819Y0016012D01*
X0131896Y0016144D01*
X0131978Y0016274D01*
X0132062Y0016402D01*
X0132150Y0016528D01*
X0132241Y0016651D01*
X0132335Y0016772D01*
X0132433Y0016890D01*
X0132533Y0017006D01*
X0132637Y0017119D01*
X0132743Y0017230D01*
X0132852Y0017338D01*
X0132964Y0017443D01*
X0133078Y0017544D01*
X0133196Y0017643D01*
X0133315Y0017739D01*
X0133437Y0017832D01*
X0133562Y0017921D01*
X0133689Y0018008D01*
X0133818Y0018090D01*
X0133949Y0018170D01*
X0134082Y0018246D01*
X0134217Y0018319D01*
X0134354Y0018388D01*
X0134493Y0018453D01*
X0134633Y0018515D01*
X0134775Y0018573D01*
X0134918Y0018628D01*
X0135063Y0018679D01*
X0135209Y0018726D01*
X0135356Y0018769D01*
X0135504Y0018808D01*
X0135653Y0018844D01*
X0135803Y0018875D01*
X0135954Y0018903D01*
X0136105Y0018927D01*
X0136258Y0018947D01*
X0136410Y0018963D01*
X0136563Y0018975D01*
X0136716Y0018983D01*
X0136869Y0018987D01*
X0137023Y0018987D01*
X0137176Y0018983D01*
X0137329Y0018975D01*
X0137482Y0018963D01*
X0137634Y0018947D01*
X0137787Y0018927D01*
X0137938Y0018903D01*
X0138089Y0018875D01*
X0138239Y0018844D01*
X0138388Y0018808D01*
X0138536Y0018769D01*
X0138683Y0018726D01*
X0138829Y0018679D01*
X0138974Y0018628D01*
X0139117Y0018573D01*
X0139259Y0018515D01*
X0139399Y0018453D01*
X0139538Y0018388D01*
X0139675Y0018319D01*
X0139810Y0018246D01*
X0139943Y0018170D01*
X0140074Y0018090D01*
X0140203Y0018008D01*
X0140330Y0017921D01*
X0140455Y0017832D01*
X0140577Y0017739D01*
X0140696Y0017643D01*
X0140814Y0017544D01*
X0140928Y0017443D01*
X0141040Y0017338D01*
X0141149Y0017230D01*
X0141255Y0017119D01*
X0141359Y0017006D01*
X0141459Y0016890D01*
X0141557Y0016772D01*
X0141651Y0016651D01*
X0141742Y0016528D01*
X0141830Y0016402D01*
X0141914Y0016274D01*
X0141996Y0016144D01*
X0142073Y0016012D01*
X0142148Y0015878D01*
X0142219Y0015742D01*
X0142286Y0015604D01*
X0142350Y0015464D01*
X0142410Y0015323D01*
X0142466Y0015181D01*
X0142519Y0015037D01*
X0142568Y0014891D01*
X0142613Y0014745D01*
X0142654Y0014597D01*
X0142691Y0014449D01*
X0142725Y0014299D01*
X0142755Y0014148D01*
X0142780Y0013997D01*
X0142802Y0013846D01*
X0142820Y0013693D01*
X0142834Y0013541D01*
X0142844Y0013388D01*
X0142850Y0013234D01*
X0142852Y0013081D01*
X0142850Y0012928D01*
X0142844Y0012774D01*
X0142834Y0012621D01*
X0142820Y0012469D01*
X0142802Y0012316D01*
X0142780Y0012165D01*
X0142755Y0012014D01*
X0142725Y0011863D01*
X0142691Y0011713D01*
X0142654Y0011565D01*
X0142613Y0011417D01*
X0142568Y0011271D01*
X0142519Y0011125D01*
X0142466Y0010981D01*
X0142410Y0010839D01*
X0142350Y0010698D01*
X0142286Y0010558D01*
X0142219Y0010420D01*
X0142148Y0010284D01*
X0142073Y0010150D01*
X0141996Y0010018D01*
X0141914Y0009888D01*
X0141830Y0009760D01*
X0141742Y0009634D01*
X0141651Y0009511D01*
X0141557Y0009390D01*
X0141459Y0009272D01*
X0141359Y0009156D01*
X0141255Y0009043D01*
X0141149Y0008932D01*
X0141040Y0008824D01*
X0140928Y0008719D01*
X0140814Y0008618D01*
X0140696Y0008519D01*
X0140577Y0008423D01*
X0140455Y0008330D01*
X0140330Y0008241D01*
X0140203Y0008154D01*
X0140074Y0008072D01*
X0139943Y0007992D01*
X0139810Y0007916D01*
X0139675Y0007843D01*
X0139538Y0007774D01*
X0139399Y0007709D01*
X0139259Y0007647D01*
X0139117Y0007589D01*
X0138974Y0007534D01*
X0138829Y0007483D01*
X0138683Y0007436D01*
X0138536Y0007393D01*
X0138388Y0007354D01*
X0138239Y0007318D01*
X0138089Y0007287D01*
X0137938Y0007259D01*
X0137787Y0007235D01*
X0137634Y0007215D01*
X0137482Y0007199D01*
X0137329Y0007187D01*
X0137176Y0007179D01*
X0137023Y0007175D01*
X0136869Y0007175D01*
X0136716Y0007179D01*
X0136563Y0007187D01*
X0136410Y0007199D01*
X0136258Y0007215D01*
X0136105Y0007235D01*
X0135954Y0007259D01*
X0135803Y0007287D01*
X0135653Y0007318D01*
X0135504Y0007354D01*
X0135356Y0007393D01*
X0135209Y0007436D01*
X0135063Y0007483D01*
X0134918Y0007534D01*
X0134775Y0007589D01*
X0134633Y0007647D01*
X0134493Y0007709D01*
X0134354Y0007774D01*
X0134217Y0007843D01*
X0134082Y0007916D01*
X0133949Y0007992D01*
X0133818Y0008072D01*
X0133689Y0008154D01*
X0133562Y0008241D01*
X0133437Y0008330D01*
X0133315Y0008423D01*
X0133196Y0008519D01*
X0133078Y0008618D01*
X0132964Y0008719D01*
X0132852Y0008824D01*
X0132743Y0008932D01*
X0132637Y0009043D01*
X0132533Y0009156D01*
X0132433Y0009272D01*
X0132335Y0009390D01*
X0132241Y0009511D01*
X0132150Y0009634D01*
X0132062Y0009760D01*
X0131978Y0009888D01*
X0131896Y0010018D01*
X0131819Y0010150D01*
X0131744Y0010284D01*
X0131673Y0010420D01*
X0131606Y0010558D01*
X0131542Y0010698D01*
X0131482Y0010839D01*
X0131426Y0010981D01*
X0131373Y0011125D01*
X0131324Y0011271D01*
X0131279Y0011417D01*
X0131238Y0011565D01*
X0131201Y0011713D01*
X0131167Y0011863D01*
X0131137Y0012014D01*
X0131112Y0012165D01*
X0131090Y0012316D01*
X0131072Y0012469D01*
X0131058Y0012621D01*
X0131048Y0012774D01*
X0131042Y0012928D01*
X0131040Y0013081D01*
X0136946Y0002254D02*
X0137208Y0002257D01*
X0137469Y0002267D01*
X0137730Y0002282D01*
X0137991Y0002305D01*
X0138251Y0002333D01*
X0138510Y0002368D01*
X0138769Y0002409D01*
X0139026Y0002456D01*
X0139282Y0002509D01*
X0139537Y0002569D01*
X0139790Y0002634D01*
X0140042Y0002706D01*
X0140292Y0002784D01*
X0140540Y0002868D01*
X0140785Y0002958D01*
X0141029Y0003053D01*
X0141270Y0003155D01*
X0141509Y0003262D01*
X0141744Y0003375D01*
X0141978Y0003494D01*
X0142208Y0003619D01*
X0142435Y0003748D01*
X0142659Y0003884D01*
X0142879Y0004025D01*
X0143096Y0004171D01*
X0143310Y0004322D01*
X0143520Y0004478D01*
X0143726Y0004639D01*
X0143928Y0004806D01*
X0144126Y0004977D01*
X0144319Y0005153D01*
X0144509Y0005333D01*
X0144694Y0005518D01*
X0144874Y0005708D01*
X0145050Y0005901D01*
X0145221Y0006099D01*
X0145388Y0006301D01*
X0145549Y0006507D01*
X0145705Y0006717D01*
X0145856Y0006931D01*
X0146002Y0007148D01*
X0146143Y0007368D01*
X0146279Y0007592D01*
X0146408Y0007819D01*
X0146533Y0008049D01*
X0146652Y0008283D01*
X0146765Y0008518D01*
X0146872Y0008757D01*
X0146974Y0008998D01*
X0147069Y0009242D01*
X0147159Y0009487D01*
X0147243Y0009735D01*
X0147321Y0009985D01*
X0147393Y0010237D01*
X0147458Y0010490D01*
X0147518Y0010745D01*
X0147571Y0011001D01*
X0147618Y0011258D01*
X0147659Y0011517D01*
X0147694Y0011776D01*
X0147722Y0012036D01*
X0147745Y0012297D01*
X0147760Y0012558D01*
X0147770Y0012819D01*
X0147773Y0013081D01*
X0136946Y0002254D02*
X0016867Y0002254D01*
X0010961Y0013081D02*
X0010963Y0013234D01*
X0010969Y0013388D01*
X0010979Y0013541D01*
X0010993Y0013693D01*
X0011011Y0013846D01*
X0011033Y0013997D01*
X0011058Y0014148D01*
X0011088Y0014299D01*
X0011122Y0014449D01*
X0011159Y0014597D01*
X0011200Y0014745D01*
X0011245Y0014891D01*
X0011294Y0015037D01*
X0011347Y0015181D01*
X0011403Y0015323D01*
X0011463Y0015464D01*
X0011527Y0015604D01*
X0011594Y0015742D01*
X0011665Y0015878D01*
X0011740Y0016012D01*
X0011817Y0016144D01*
X0011899Y0016274D01*
X0011983Y0016402D01*
X0012071Y0016528D01*
X0012162Y0016651D01*
X0012256Y0016772D01*
X0012354Y0016890D01*
X0012454Y0017006D01*
X0012558Y0017119D01*
X0012664Y0017230D01*
X0012773Y0017338D01*
X0012885Y0017443D01*
X0012999Y0017544D01*
X0013117Y0017643D01*
X0013236Y0017739D01*
X0013358Y0017832D01*
X0013483Y0017921D01*
X0013610Y0018008D01*
X0013739Y0018090D01*
X0013870Y0018170D01*
X0014003Y0018246D01*
X0014138Y0018319D01*
X0014275Y0018388D01*
X0014414Y0018453D01*
X0014554Y0018515D01*
X0014696Y0018573D01*
X0014839Y0018628D01*
X0014984Y0018679D01*
X0015130Y0018726D01*
X0015277Y0018769D01*
X0015425Y0018808D01*
X0015574Y0018844D01*
X0015724Y0018875D01*
X0015875Y0018903D01*
X0016026Y0018927D01*
X0016179Y0018947D01*
X0016331Y0018963D01*
X0016484Y0018975D01*
X0016637Y0018983D01*
X0016790Y0018987D01*
X0016944Y0018987D01*
X0017097Y0018983D01*
X0017250Y0018975D01*
X0017403Y0018963D01*
X0017555Y0018947D01*
X0017708Y0018927D01*
X0017859Y0018903D01*
X0018010Y0018875D01*
X0018160Y0018844D01*
X0018309Y0018808D01*
X0018457Y0018769D01*
X0018604Y0018726D01*
X0018750Y0018679D01*
X0018895Y0018628D01*
X0019038Y0018573D01*
X0019180Y0018515D01*
X0019320Y0018453D01*
X0019459Y0018388D01*
X0019596Y0018319D01*
X0019731Y0018246D01*
X0019864Y0018170D01*
X0019995Y0018090D01*
X0020124Y0018008D01*
X0020251Y0017921D01*
X0020376Y0017832D01*
X0020498Y0017739D01*
X0020617Y0017643D01*
X0020735Y0017544D01*
X0020849Y0017443D01*
X0020961Y0017338D01*
X0021070Y0017230D01*
X0021176Y0017119D01*
X0021280Y0017006D01*
X0021380Y0016890D01*
X0021478Y0016772D01*
X0021572Y0016651D01*
X0021663Y0016528D01*
X0021751Y0016402D01*
X0021835Y0016274D01*
X0021917Y0016144D01*
X0021994Y0016012D01*
X0022069Y0015878D01*
X0022140Y0015742D01*
X0022207Y0015604D01*
X0022271Y0015464D01*
X0022331Y0015323D01*
X0022387Y0015181D01*
X0022440Y0015037D01*
X0022489Y0014891D01*
X0022534Y0014745D01*
X0022575Y0014597D01*
X0022612Y0014449D01*
X0022646Y0014299D01*
X0022676Y0014148D01*
X0022701Y0013997D01*
X0022723Y0013846D01*
X0022741Y0013693D01*
X0022755Y0013541D01*
X0022765Y0013388D01*
X0022771Y0013234D01*
X0022773Y0013081D01*
X0022771Y0012928D01*
X0022765Y0012774D01*
X0022755Y0012621D01*
X0022741Y0012469D01*
X0022723Y0012316D01*
X0022701Y0012165D01*
X0022676Y0012014D01*
X0022646Y0011863D01*
X0022612Y0011713D01*
X0022575Y0011565D01*
X0022534Y0011417D01*
X0022489Y0011271D01*
X0022440Y0011125D01*
X0022387Y0010981D01*
X0022331Y0010839D01*
X0022271Y0010698D01*
X0022207Y0010558D01*
X0022140Y0010420D01*
X0022069Y0010284D01*
X0021994Y0010150D01*
X0021917Y0010018D01*
X0021835Y0009888D01*
X0021751Y0009760D01*
X0021663Y0009634D01*
X0021572Y0009511D01*
X0021478Y0009390D01*
X0021380Y0009272D01*
X0021280Y0009156D01*
X0021176Y0009043D01*
X0021070Y0008932D01*
X0020961Y0008824D01*
X0020849Y0008719D01*
X0020735Y0008618D01*
X0020617Y0008519D01*
X0020498Y0008423D01*
X0020376Y0008330D01*
X0020251Y0008241D01*
X0020124Y0008154D01*
X0019995Y0008072D01*
X0019864Y0007992D01*
X0019731Y0007916D01*
X0019596Y0007843D01*
X0019459Y0007774D01*
X0019320Y0007709D01*
X0019180Y0007647D01*
X0019038Y0007589D01*
X0018895Y0007534D01*
X0018750Y0007483D01*
X0018604Y0007436D01*
X0018457Y0007393D01*
X0018309Y0007354D01*
X0018160Y0007318D01*
X0018010Y0007287D01*
X0017859Y0007259D01*
X0017708Y0007235D01*
X0017555Y0007215D01*
X0017403Y0007199D01*
X0017250Y0007187D01*
X0017097Y0007179D01*
X0016944Y0007175D01*
X0016790Y0007175D01*
X0016637Y0007179D01*
X0016484Y0007187D01*
X0016331Y0007199D01*
X0016179Y0007215D01*
X0016026Y0007235D01*
X0015875Y0007259D01*
X0015724Y0007287D01*
X0015574Y0007318D01*
X0015425Y0007354D01*
X0015277Y0007393D01*
X0015130Y0007436D01*
X0014984Y0007483D01*
X0014839Y0007534D01*
X0014696Y0007589D01*
X0014554Y0007647D01*
X0014414Y0007709D01*
X0014275Y0007774D01*
X0014138Y0007843D01*
X0014003Y0007916D01*
X0013870Y0007992D01*
X0013739Y0008072D01*
X0013610Y0008154D01*
X0013483Y0008241D01*
X0013358Y0008330D01*
X0013236Y0008423D01*
X0013117Y0008519D01*
X0012999Y0008618D01*
X0012885Y0008719D01*
X0012773Y0008824D01*
X0012664Y0008932D01*
X0012558Y0009043D01*
X0012454Y0009156D01*
X0012354Y0009272D01*
X0012256Y0009390D01*
X0012162Y0009511D01*
X0012071Y0009634D01*
X0011983Y0009760D01*
X0011899Y0009888D01*
X0011817Y0010018D01*
X0011740Y0010150D01*
X0011665Y0010284D01*
X0011594Y0010420D01*
X0011527Y0010558D01*
X0011463Y0010698D01*
X0011403Y0010839D01*
X0011347Y0010981D01*
X0011294Y0011125D01*
X0011245Y0011271D01*
X0011200Y0011417D01*
X0011159Y0011565D01*
X0011122Y0011713D01*
X0011088Y0011863D01*
X0011058Y0012014D01*
X0011033Y0012165D01*
X0011011Y0012316D01*
X0010993Y0012469D01*
X0010979Y0012621D01*
X0010969Y0012774D01*
X0010963Y0012928D01*
X0010961Y0013081D01*
X0006040Y0013081D02*
X0006043Y0012819D01*
X0006053Y0012558D01*
X0006068Y0012297D01*
X0006091Y0012036D01*
X0006119Y0011776D01*
X0006154Y0011517D01*
X0006195Y0011258D01*
X0006242Y0011001D01*
X0006295Y0010745D01*
X0006355Y0010490D01*
X0006420Y0010237D01*
X0006492Y0009985D01*
X0006570Y0009735D01*
X0006654Y0009487D01*
X0006744Y0009242D01*
X0006839Y0008998D01*
X0006941Y0008757D01*
X0007048Y0008518D01*
X0007161Y0008283D01*
X0007280Y0008049D01*
X0007405Y0007819D01*
X0007534Y0007592D01*
X0007670Y0007368D01*
X0007811Y0007148D01*
X0007957Y0006931D01*
X0008108Y0006717D01*
X0008264Y0006507D01*
X0008425Y0006301D01*
X0008592Y0006099D01*
X0008763Y0005901D01*
X0008939Y0005708D01*
X0009119Y0005518D01*
X0009304Y0005333D01*
X0009494Y0005153D01*
X0009687Y0004977D01*
X0009885Y0004806D01*
X0010087Y0004639D01*
X0010293Y0004478D01*
X0010503Y0004322D01*
X0010717Y0004171D01*
X0010934Y0004025D01*
X0011154Y0003884D01*
X0011378Y0003748D01*
X0011605Y0003619D01*
X0011835Y0003494D01*
X0012069Y0003375D01*
X0012304Y0003262D01*
X0012543Y0003155D01*
X0012784Y0003053D01*
X0013028Y0002958D01*
X0013273Y0002868D01*
X0013521Y0002784D01*
X0013771Y0002706D01*
X0014023Y0002634D01*
X0014276Y0002569D01*
X0014531Y0002509D01*
X0014787Y0002456D01*
X0015044Y0002409D01*
X0015303Y0002368D01*
X0015562Y0002333D01*
X0015822Y0002305D01*
X0016083Y0002282D01*
X0016344Y0002267D01*
X0016605Y0002257D01*
X0016867Y0002254D01*
D11*
X0054353Y0049941D02*
X0054353Y0052567D01*
X0054353Y0049941D02*
X0051727Y0049941D01*
X0051727Y0052567D01*
X0054353Y0052567D01*
X0054353Y0050815D02*
X0051727Y0050815D01*
X0051727Y0051689D02*
X0054353Y0051689D01*
X0054353Y0052563D02*
X0051727Y0052563D01*
X0054353Y0055941D02*
X0054353Y0058567D01*
X0054353Y0055941D02*
X0051727Y0055941D01*
X0051727Y0058567D01*
X0054353Y0058567D01*
X0054353Y0056815D02*
X0051727Y0056815D01*
X0051727Y0057689D02*
X0054353Y0057689D01*
X0054353Y0058563D02*
X0051727Y0058563D01*
X0073559Y0058851D02*
X0073559Y0056225D01*
X0073559Y0058851D02*
X0076185Y0058851D01*
X0076185Y0056225D01*
X0073559Y0056225D01*
X0073559Y0057099D02*
X0076185Y0057099D01*
X0076185Y0057973D02*
X0073559Y0057973D01*
X0073559Y0058847D02*
X0076185Y0058847D01*
X0073559Y0052851D02*
X0073559Y0050225D01*
X0073559Y0052851D02*
X0076185Y0052851D01*
X0076185Y0050225D01*
X0073559Y0050225D01*
X0073559Y0051099D02*
X0076185Y0051099D01*
X0076185Y0051973D02*
X0073559Y0051973D01*
X0073559Y0052847D02*
X0076185Y0052847D01*
X0083891Y0052851D02*
X0083891Y0050225D01*
X0083891Y0052851D02*
X0086517Y0052851D01*
X0086517Y0050225D01*
X0083891Y0050225D01*
X0083891Y0051099D02*
X0086517Y0051099D01*
X0086517Y0051973D02*
X0083891Y0051973D01*
X0083891Y0052847D02*
X0086517Y0052847D01*
X0083891Y0056225D02*
X0083891Y0058851D01*
X0086517Y0058851D01*
X0086517Y0056225D01*
X0083891Y0056225D01*
X0083891Y0057099D02*
X0086517Y0057099D01*
X0086517Y0057973D02*
X0083891Y0057973D01*
X0083891Y0058847D02*
X0086517Y0058847D01*
X0093981Y0059067D02*
X0093981Y0056441D01*
X0093981Y0059067D02*
X0096607Y0059067D01*
X0096607Y0056441D01*
X0093981Y0056441D01*
X0093981Y0057315D02*
X0096607Y0057315D01*
X0096607Y0058189D02*
X0093981Y0058189D01*
X0093981Y0059063D02*
X0096607Y0059063D01*
X0093981Y0053067D02*
X0093981Y0050441D01*
X0093981Y0053067D02*
X0096607Y0053067D01*
X0096607Y0050441D01*
X0093981Y0050441D01*
X0093981Y0051315D02*
X0096607Y0051315D01*
X0096607Y0052189D02*
X0093981Y0052189D01*
X0093981Y0053063D02*
X0096607Y0053063D01*
X0095227Y0046452D02*
X0095227Y0043826D01*
X0095227Y0046452D02*
X0099353Y0046452D01*
X0099353Y0043826D01*
X0095227Y0043826D01*
X0095227Y0044700D02*
X0099353Y0044700D01*
X0099353Y0045574D02*
X0095227Y0045574D01*
X0095227Y0046448D02*
X0099353Y0046448D01*
X0095227Y0039452D02*
X0095227Y0036826D01*
X0095227Y0039452D02*
X0099353Y0039452D01*
X0099353Y0036826D01*
X0095227Y0036826D01*
X0095227Y0037700D02*
X0099353Y0037700D01*
X0099353Y0038574D02*
X0095227Y0038574D01*
X0095227Y0039448D02*
X0099353Y0039448D01*
X0098977Y0030941D02*
X0101603Y0030941D01*
X0098977Y0030941D02*
X0098977Y0033567D01*
X0101603Y0033567D01*
X0101603Y0030941D01*
X0101603Y0031815D02*
X0098977Y0031815D01*
X0098977Y0032689D02*
X0101603Y0032689D01*
X0101603Y0033563D02*
X0098977Y0033563D01*
X0095603Y0030941D02*
X0092977Y0030941D01*
X0092977Y0033567D01*
X0095603Y0033567D01*
X0095603Y0030941D01*
X0095603Y0031815D02*
X0092977Y0031815D01*
X0092977Y0032689D02*
X0095603Y0032689D01*
X0095603Y0033563D02*
X0092977Y0033563D01*
X0082853Y0014187D02*
X0080227Y0014187D01*
X0080227Y0016813D01*
X0082853Y0016813D01*
X0082853Y0014187D01*
X0082853Y0015061D02*
X0080227Y0015061D01*
X0080227Y0015935D02*
X0082853Y0015935D01*
X0082853Y0016809D02*
X0080227Y0016809D01*
X0076853Y0014187D02*
X0074227Y0014187D01*
X0074227Y0016813D01*
X0076853Y0016813D01*
X0076853Y0014187D01*
X0076853Y0015061D02*
X0074227Y0015061D01*
X0074227Y0015935D02*
X0076853Y0015935D01*
X0076853Y0016809D02*
X0074227Y0016809D01*
X0074227Y0007937D02*
X0076853Y0007937D01*
X0074227Y0007937D02*
X0074227Y0010563D01*
X0076853Y0010563D01*
X0076853Y0007937D01*
X0076853Y0008811D02*
X0074227Y0008811D01*
X0074227Y0009685D02*
X0076853Y0009685D01*
X0076853Y0010559D02*
X0074227Y0010559D01*
X0080227Y0007937D02*
X0082853Y0007937D01*
X0080227Y0007937D02*
X0080227Y0010563D01*
X0082853Y0010563D01*
X0082853Y0007937D01*
X0082853Y0008811D02*
X0080227Y0008811D01*
X0080227Y0009685D02*
X0082853Y0009685D01*
X0082853Y0010559D02*
X0080227Y0010559D01*
X0048228Y0082733D02*
X0045602Y0082733D01*
X0045602Y0085359D01*
X0048228Y0085359D01*
X0048228Y0082733D01*
X0048228Y0083607D02*
X0045602Y0083607D01*
X0045602Y0084481D02*
X0048228Y0084481D01*
X0048228Y0085355D02*
X0045602Y0085355D01*
X0042228Y0082733D02*
X0039602Y0082733D01*
X0039602Y0085359D01*
X0042228Y0085359D01*
X0042228Y0082733D01*
X0042228Y0083607D02*
X0039602Y0083607D01*
X0039602Y0084481D02*
X0042228Y0084481D01*
X0042228Y0085355D02*
X0039602Y0085355D01*
X0039602Y0089024D02*
X0042228Y0089024D01*
X0039602Y0089024D02*
X0039602Y0091650D01*
X0042228Y0091650D01*
X0042228Y0089024D01*
X0042228Y0089898D02*
X0039602Y0089898D01*
X0039602Y0090772D02*
X0042228Y0090772D01*
X0042228Y0091646D02*
X0039602Y0091646D01*
X0045602Y0089024D02*
X0048228Y0089024D01*
X0045602Y0089024D02*
X0045602Y0091650D01*
X0048228Y0091650D01*
X0048228Y0089024D01*
X0048228Y0089898D02*
X0045602Y0089898D01*
X0045602Y0090772D02*
X0048228Y0090772D01*
X0048228Y0091646D02*
X0045602Y0091646D01*
X0045602Y0099066D02*
X0048228Y0099066D01*
X0045602Y0099066D02*
X0045602Y0101692D01*
X0048228Y0101692D01*
X0048228Y0099066D01*
X0048228Y0099940D02*
X0045602Y0099940D01*
X0045602Y0100814D02*
X0048228Y0100814D01*
X0048228Y0101688D02*
X0045602Y0101688D01*
X0042228Y0099066D02*
X0039602Y0099066D01*
X0039602Y0101692D01*
X0042228Y0101692D01*
X0042228Y0099066D01*
X0042228Y0099940D02*
X0039602Y0099940D01*
X0039602Y0100814D02*
X0042228Y0100814D01*
X0042228Y0101688D02*
X0039602Y0101688D01*
X0039602Y0105358D02*
X0042228Y0105358D01*
X0039602Y0105358D02*
X0039602Y0107984D01*
X0042228Y0107984D01*
X0042228Y0105358D01*
X0042228Y0106232D02*
X0039602Y0106232D01*
X0039602Y0107106D02*
X0042228Y0107106D01*
X0042228Y0107980D02*
X0039602Y0107980D01*
X0032227Y0106691D02*
X0032227Y0109317D01*
X0034853Y0109317D01*
X0034853Y0106691D01*
X0032227Y0106691D01*
X0032227Y0107565D02*
X0034853Y0107565D01*
X0034853Y0108439D02*
X0032227Y0108439D01*
X0032227Y0109313D02*
X0034853Y0109313D01*
X0032227Y0112691D02*
X0032227Y0115317D01*
X0034853Y0115317D01*
X0034853Y0112691D01*
X0032227Y0112691D01*
X0032227Y0113565D02*
X0034853Y0113565D01*
X0034853Y0114439D02*
X0032227Y0114439D01*
X0032227Y0115313D02*
X0034853Y0115313D01*
X0039602Y0114691D02*
X0042228Y0114691D01*
X0039602Y0114691D02*
X0039602Y0117317D01*
X0042228Y0117317D01*
X0042228Y0114691D01*
X0042228Y0115565D02*
X0039602Y0115565D01*
X0039602Y0116439D02*
X0042228Y0116439D01*
X0042228Y0117313D02*
X0039602Y0117313D01*
X0045602Y0114691D02*
X0048228Y0114691D01*
X0045602Y0114691D02*
X0045602Y0117317D01*
X0048228Y0117317D01*
X0048228Y0114691D01*
X0048228Y0115565D02*
X0045602Y0115565D01*
X0045602Y0116439D02*
X0048228Y0116439D01*
X0048228Y0117313D02*
X0045602Y0117313D01*
X0052227Y0115317D02*
X0052227Y0112691D01*
X0052227Y0115317D02*
X0054853Y0115317D01*
X0054853Y0112691D01*
X0052227Y0112691D01*
X0052227Y0113565D02*
X0054853Y0113565D01*
X0054853Y0114439D02*
X0052227Y0114439D01*
X0052227Y0115313D02*
X0054853Y0115313D01*
X0059602Y0115149D02*
X0062228Y0115149D01*
X0059602Y0115149D02*
X0059602Y0117775D01*
X0062228Y0117775D01*
X0062228Y0115149D01*
X0062228Y0116023D02*
X0059602Y0116023D01*
X0059602Y0116897D02*
X0062228Y0116897D01*
X0062228Y0117771D02*
X0059602Y0117771D01*
X0065602Y0115149D02*
X0068228Y0115149D01*
X0065602Y0115149D02*
X0065602Y0117775D01*
X0068228Y0117775D01*
X0068228Y0115149D01*
X0068228Y0116023D02*
X0065602Y0116023D01*
X0065602Y0116897D02*
X0068228Y0116897D01*
X0068228Y0117771D02*
X0065602Y0117771D01*
X0052227Y0109317D02*
X0052227Y0106691D01*
X0052227Y0109317D02*
X0054853Y0109317D01*
X0054853Y0106691D01*
X0052227Y0106691D01*
X0052227Y0107565D02*
X0054853Y0107565D01*
X0054853Y0108439D02*
X0052227Y0108439D01*
X0052227Y0109313D02*
X0054853Y0109313D01*
X0048228Y0105358D02*
X0045602Y0105358D01*
X0045602Y0107984D01*
X0048228Y0107984D01*
X0048228Y0105358D01*
X0048228Y0106232D02*
X0045602Y0106232D01*
X0045602Y0107106D02*
X0048228Y0107106D01*
X0048228Y0107980D02*
X0045602Y0107980D01*
D12*
X0041665Y0079004D02*
X0041665Y0076004D01*
X0041665Y0079004D02*
X0046165Y0079004D01*
X0046165Y0076004D01*
X0041665Y0076004D01*
X0041665Y0077003D02*
X0046165Y0077003D01*
X0046165Y0078002D02*
X0041665Y0078002D01*
X0041665Y0079001D02*
X0046165Y0079001D01*
X0041665Y0071004D02*
X0041665Y0068004D01*
X0041665Y0071004D02*
X0046165Y0071004D01*
X0046165Y0068004D01*
X0041665Y0068004D01*
X0041665Y0069003D02*
X0046165Y0069003D01*
X0046165Y0070002D02*
X0041665Y0070002D01*
X0041665Y0071001D02*
X0046165Y0071001D01*
X0038166Y0059754D02*
X0038166Y0056754D01*
X0033666Y0056754D01*
X0033666Y0059754D01*
X0038166Y0059754D01*
X0038166Y0057753D02*
X0033666Y0057753D01*
X0033666Y0058752D02*
X0038166Y0058752D01*
X0038166Y0059751D02*
X0033666Y0059751D01*
X0038166Y0051754D02*
X0038166Y0048754D01*
X0033666Y0048754D01*
X0033666Y0051754D01*
X0038166Y0051754D01*
X0038166Y0049753D02*
X0033666Y0049753D01*
X0033666Y0050752D02*
X0038166Y0050752D01*
X0038166Y0051751D02*
X0033666Y0051751D01*
X0047353Y0052254D02*
X0047353Y0049254D01*
X0042853Y0049254D01*
X0042853Y0052254D01*
X0047353Y0052254D01*
X0047353Y0050253D02*
X0042853Y0050253D01*
X0042853Y0051252D02*
X0047353Y0051252D01*
X0047353Y0052251D02*
X0042853Y0052251D01*
X0047353Y0056254D02*
X0047353Y0059254D01*
X0047353Y0056254D02*
X0042853Y0056254D01*
X0042853Y0059254D01*
X0047353Y0059254D01*
X0047353Y0057253D02*
X0042853Y0057253D01*
X0042853Y0058252D02*
X0047353Y0058252D01*
X0047353Y0059251D02*
X0042853Y0059251D01*
X0094634Y0110004D02*
X0097634Y0110004D01*
X0094634Y0110004D02*
X0094634Y0114504D01*
X0097634Y0114504D01*
X0097634Y0110004D01*
X0097634Y0111003D02*
X0094634Y0111003D01*
X0094634Y0112002D02*
X0097634Y0112002D01*
X0097634Y0113001D02*
X0094634Y0113001D01*
X0094634Y0114000D02*
X0097634Y0114000D01*
X0102634Y0110004D02*
X0105634Y0110004D01*
X0102634Y0110004D02*
X0102634Y0114504D01*
X0105634Y0114504D01*
X0105634Y0110004D01*
X0105634Y0111003D02*
X0102634Y0111003D01*
X0102634Y0112002D02*
X0105634Y0112002D01*
X0105634Y0113001D02*
X0102634Y0113001D01*
X0102634Y0114000D02*
X0105634Y0114000D01*
D13*
X0127359Y0110647D03*
X0127359Y0105725D03*
X0127359Y0100804D03*
X0127359Y0095883D03*
X0127359Y0090962D03*
X0127359Y0086040D03*
X0127359Y0060200D03*
X0127359Y0055279D03*
X0127359Y0050357D03*
X0127359Y0045436D03*
X0127359Y0040515D03*
X0127359Y0035594D03*
D14*
X0140548Y0028310D03*
X0140548Y0067483D03*
X0140548Y0078757D03*
X0140548Y0117930D03*
D15*
X0115843Y0123573D03*
X0110922Y0123573D03*
X0106001Y0123573D03*
X0101079Y0123573D03*
X0096158Y0123573D03*
X0091237Y0123573D03*
X0069672Y0123573D03*
X0064751Y0123573D03*
X0059829Y0123573D03*
X0054908Y0123573D03*
X0101158Y0023435D03*
X0106079Y0023435D03*
X0111001Y0023435D03*
X0115922Y0023435D03*
D16*
X0123205Y0010246D03*
X0093875Y0010246D03*
X0083953Y0136762D03*
X0076955Y0136762D03*
X0047625Y0136762D03*
X0123127Y0136762D03*
D17*
X0091903Y0112786D02*
X0091509Y0112786D01*
X0091903Y0112786D02*
X0091903Y0108652D01*
X0091509Y0108652D01*
X0091509Y0112786D01*
X0091509Y0109242D02*
X0091903Y0109242D01*
X0091903Y0109832D02*
X0091509Y0109832D01*
X0091509Y0110422D02*
X0091903Y0110422D01*
X0091903Y0111012D02*
X0091509Y0111012D01*
X0091509Y0111602D02*
X0091903Y0111602D01*
X0091903Y0112192D02*
X0091509Y0112192D01*
X0091509Y0112782D02*
X0091903Y0112782D01*
X0089903Y0112786D02*
X0089509Y0112786D01*
X0089903Y0112786D02*
X0089903Y0108652D01*
X0089509Y0108652D01*
X0089509Y0112786D01*
X0089509Y0109242D02*
X0089903Y0109242D01*
X0089903Y0109832D02*
X0089509Y0109832D01*
X0089509Y0110422D02*
X0089903Y0110422D01*
X0089903Y0111012D02*
X0089509Y0111012D01*
X0089509Y0111602D02*
X0089903Y0111602D01*
X0089903Y0112192D02*
X0089509Y0112192D01*
X0089509Y0112782D02*
X0089903Y0112782D01*
X0087903Y0112786D02*
X0087509Y0112786D01*
X0087903Y0112786D02*
X0087903Y0108652D01*
X0087509Y0108652D01*
X0087509Y0112786D01*
X0087509Y0109242D02*
X0087903Y0109242D01*
X0087903Y0109832D02*
X0087509Y0109832D01*
X0087509Y0110422D02*
X0087903Y0110422D01*
X0087903Y0111012D02*
X0087509Y0111012D01*
X0087509Y0111602D02*
X0087903Y0111602D01*
X0087903Y0112192D02*
X0087509Y0112192D01*
X0087509Y0112782D02*
X0087903Y0112782D01*
X0086003Y0112786D02*
X0085609Y0112786D01*
X0086003Y0112786D02*
X0086003Y0108652D01*
X0085609Y0108652D01*
X0085609Y0112786D01*
X0085609Y0109242D02*
X0086003Y0109242D01*
X0086003Y0109832D02*
X0085609Y0109832D01*
X0085609Y0110422D02*
X0086003Y0110422D01*
X0086003Y0111012D02*
X0085609Y0111012D01*
X0085609Y0111602D02*
X0086003Y0111602D01*
X0086003Y0112192D02*
X0085609Y0112192D01*
X0085609Y0112782D02*
X0086003Y0112782D01*
X0084003Y0112786D02*
X0083609Y0112786D01*
X0084003Y0112786D02*
X0084003Y0108652D01*
X0083609Y0108652D01*
X0083609Y0112786D01*
X0083609Y0109242D02*
X0084003Y0109242D01*
X0084003Y0109832D02*
X0083609Y0109832D01*
X0083609Y0110422D02*
X0084003Y0110422D01*
X0084003Y0111012D02*
X0083609Y0111012D01*
X0083609Y0111602D02*
X0084003Y0111602D01*
X0084003Y0112192D02*
X0083609Y0112192D01*
X0083609Y0112782D02*
X0084003Y0112782D01*
X0082003Y0112786D02*
X0081609Y0112786D01*
X0082003Y0112786D02*
X0082003Y0108652D01*
X0081609Y0108652D01*
X0081609Y0112786D01*
X0081609Y0109242D02*
X0082003Y0109242D01*
X0082003Y0109832D02*
X0081609Y0109832D01*
X0081609Y0110422D02*
X0082003Y0110422D01*
X0082003Y0111012D02*
X0081609Y0111012D01*
X0081609Y0111602D02*
X0082003Y0111602D01*
X0082003Y0112192D02*
X0081609Y0112192D01*
X0081609Y0112782D02*
X0082003Y0112782D01*
X0080103Y0112786D02*
X0079709Y0112786D01*
X0080103Y0112786D02*
X0080103Y0108652D01*
X0079709Y0108652D01*
X0079709Y0112786D01*
X0079709Y0109242D02*
X0080103Y0109242D01*
X0080103Y0109832D02*
X0079709Y0109832D01*
X0079709Y0110422D02*
X0080103Y0110422D01*
X0080103Y0111012D02*
X0079709Y0111012D01*
X0079709Y0111602D02*
X0080103Y0111602D01*
X0080103Y0112192D02*
X0079709Y0112192D01*
X0079709Y0112782D02*
X0080103Y0112782D01*
X0078103Y0112786D02*
X0077709Y0112786D01*
X0078103Y0112786D02*
X0078103Y0108652D01*
X0077709Y0108652D01*
X0077709Y0112786D01*
X0077709Y0109242D02*
X0078103Y0109242D01*
X0078103Y0109832D02*
X0077709Y0109832D01*
X0077709Y0110422D02*
X0078103Y0110422D01*
X0078103Y0111012D02*
X0077709Y0111012D01*
X0077709Y0111602D02*
X0078103Y0111602D01*
X0078103Y0112192D02*
X0077709Y0112192D01*
X0077709Y0112782D02*
X0078103Y0112782D01*
X0076103Y0112786D02*
X0075709Y0112786D01*
X0076103Y0112786D02*
X0076103Y0108652D01*
X0075709Y0108652D01*
X0075709Y0112786D01*
X0075709Y0109242D02*
X0076103Y0109242D01*
X0076103Y0109832D02*
X0075709Y0109832D01*
X0075709Y0110422D02*
X0076103Y0110422D01*
X0076103Y0111012D02*
X0075709Y0111012D01*
X0075709Y0111602D02*
X0076103Y0111602D01*
X0076103Y0112192D02*
X0075709Y0112192D01*
X0075709Y0112782D02*
X0076103Y0112782D01*
X0074103Y0112786D02*
X0073709Y0112786D01*
X0074103Y0112786D02*
X0074103Y0108652D01*
X0073709Y0108652D01*
X0073709Y0112786D01*
X0073709Y0109242D02*
X0074103Y0109242D01*
X0074103Y0109832D02*
X0073709Y0109832D01*
X0073709Y0110422D02*
X0074103Y0110422D01*
X0074103Y0111012D02*
X0073709Y0111012D01*
X0073709Y0111602D02*
X0074103Y0111602D01*
X0074103Y0112192D02*
X0073709Y0112192D01*
X0073709Y0112782D02*
X0074103Y0112782D01*
X0072203Y0112786D02*
X0071809Y0112786D01*
X0072203Y0112786D02*
X0072203Y0108652D01*
X0071809Y0108652D01*
X0071809Y0112786D01*
X0071809Y0109242D02*
X0072203Y0109242D01*
X0072203Y0109832D02*
X0071809Y0109832D01*
X0071809Y0110422D02*
X0072203Y0110422D01*
X0072203Y0111012D02*
X0071809Y0111012D01*
X0071809Y0111602D02*
X0072203Y0111602D01*
X0072203Y0112192D02*
X0071809Y0112192D01*
X0071809Y0112782D02*
X0072203Y0112782D01*
X0070203Y0112786D02*
X0069809Y0112786D01*
X0070203Y0112786D02*
X0070203Y0108652D01*
X0069809Y0108652D01*
X0069809Y0112786D01*
X0069809Y0109242D02*
X0070203Y0109242D01*
X0070203Y0109832D02*
X0069809Y0109832D01*
X0069809Y0110422D02*
X0070203Y0110422D01*
X0070203Y0111012D02*
X0069809Y0111012D01*
X0069809Y0111602D02*
X0070203Y0111602D01*
X0070203Y0112192D02*
X0069809Y0112192D01*
X0069809Y0112782D02*
X0070203Y0112782D01*
X0068203Y0112786D02*
X0067809Y0112786D01*
X0068203Y0112786D02*
X0068203Y0108652D01*
X0067809Y0108652D01*
X0067809Y0112786D01*
X0067809Y0109242D02*
X0068203Y0109242D01*
X0068203Y0109832D02*
X0067809Y0109832D01*
X0067809Y0110422D02*
X0068203Y0110422D01*
X0068203Y0111012D02*
X0067809Y0111012D01*
X0067809Y0111602D02*
X0068203Y0111602D01*
X0068203Y0112192D02*
X0067809Y0112192D01*
X0067809Y0112782D02*
X0068203Y0112782D01*
X0066303Y0112786D02*
X0065909Y0112786D01*
X0066303Y0112786D02*
X0066303Y0108652D01*
X0065909Y0108652D01*
X0065909Y0112786D01*
X0065909Y0109242D02*
X0066303Y0109242D01*
X0066303Y0109832D02*
X0065909Y0109832D01*
X0065909Y0110422D02*
X0066303Y0110422D01*
X0066303Y0111012D02*
X0065909Y0111012D01*
X0065909Y0111602D02*
X0066303Y0111602D01*
X0066303Y0112192D02*
X0065909Y0112192D01*
X0065909Y0112782D02*
X0066303Y0112782D01*
X0064303Y0112786D02*
X0063909Y0112786D01*
X0064303Y0112786D02*
X0064303Y0108652D01*
X0063909Y0108652D01*
X0063909Y0112786D01*
X0063909Y0109242D02*
X0064303Y0109242D01*
X0064303Y0109832D02*
X0063909Y0109832D01*
X0063909Y0110422D02*
X0064303Y0110422D01*
X0064303Y0111012D02*
X0063909Y0111012D01*
X0063909Y0111602D02*
X0064303Y0111602D01*
X0064303Y0112192D02*
X0063909Y0112192D01*
X0063909Y0112782D02*
X0064303Y0112782D01*
X0062303Y0112786D02*
X0061909Y0112786D01*
X0062303Y0112786D02*
X0062303Y0108652D01*
X0061909Y0108652D01*
X0061909Y0112786D01*
X0061909Y0109242D02*
X0062303Y0109242D01*
X0062303Y0109832D02*
X0061909Y0109832D01*
X0061909Y0110422D02*
X0062303Y0110422D01*
X0062303Y0111012D02*
X0061909Y0111012D01*
X0061909Y0111602D02*
X0062303Y0111602D01*
X0062303Y0112192D02*
X0061909Y0112192D01*
X0061909Y0112782D02*
X0062303Y0112782D01*
X0051552Y0102428D02*
X0051552Y0102034D01*
X0051552Y0102428D02*
X0055686Y0102428D01*
X0055686Y0102034D01*
X0051552Y0102034D01*
X0051552Y0100428D02*
X0051552Y0100034D01*
X0051552Y0100428D02*
X0055686Y0100428D01*
X0055686Y0100034D01*
X0051552Y0100034D01*
X0051552Y0098428D02*
X0051552Y0098034D01*
X0051552Y0098428D02*
X0055686Y0098428D01*
X0055686Y0098034D01*
X0051552Y0098034D01*
X0051552Y0096528D02*
X0051552Y0096134D01*
X0051552Y0096528D02*
X0055686Y0096528D01*
X0055686Y0096134D01*
X0051552Y0096134D01*
X0051552Y0094528D02*
X0051552Y0094134D01*
X0051552Y0094528D02*
X0055686Y0094528D01*
X0055686Y0094134D01*
X0051552Y0094134D01*
X0051552Y0092528D02*
X0051552Y0092134D01*
X0051552Y0092528D02*
X0055686Y0092528D01*
X0055686Y0092134D01*
X0051552Y0092134D01*
X0051552Y0090628D02*
X0051552Y0090234D01*
X0051552Y0090628D02*
X0055686Y0090628D01*
X0055686Y0090234D01*
X0051552Y0090234D01*
X0051552Y0088628D02*
X0051552Y0088234D01*
X0051552Y0088628D02*
X0055686Y0088628D01*
X0055686Y0088234D01*
X0051552Y0088234D01*
X0051552Y0086628D02*
X0051552Y0086234D01*
X0051552Y0086628D02*
X0055686Y0086628D01*
X0055686Y0086234D01*
X0051552Y0086234D01*
X0051552Y0084628D02*
X0051552Y0084234D01*
X0051552Y0084628D02*
X0055686Y0084628D01*
X0055686Y0084234D01*
X0051552Y0084234D01*
X0051552Y0082728D02*
X0051552Y0082334D01*
X0051552Y0082728D02*
X0055686Y0082728D01*
X0055686Y0082334D01*
X0051552Y0082334D01*
X0051552Y0080728D02*
X0051552Y0080334D01*
X0051552Y0080728D02*
X0055686Y0080728D01*
X0055686Y0080334D01*
X0051552Y0080334D01*
X0051552Y0078728D02*
X0051552Y0078334D01*
X0051552Y0078728D02*
X0055686Y0078728D01*
X0055686Y0078334D01*
X0051552Y0078334D01*
X0051552Y0076828D02*
X0051552Y0076434D01*
X0051552Y0076828D02*
X0055686Y0076828D01*
X0055686Y0076434D01*
X0051552Y0076434D01*
X0051552Y0074828D02*
X0051552Y0074434D01*
X0051552Y0074828D02*
X0055686Y0074828D01*
X0055686Y0074434D01*
X0051552Y0074434D01*
X0051552Y0072828D02*
X0051552Y0072434D01*
X0051552Y0072828D02*
X0055686Y0072828D01*
X0055686Y0072434D01*
X0051552Y0072434D01*
X0061909Y0066211D02*
X0062303Y0066211D01*
X0062303Y0062077D01*
X0061909Y0062077D01*
X0061909Y0066211D01*
X0061909Y0062667D02*
X0062303Y0062667D01*
X0062303Y0063257D02*
X0061909Y0063257D01*
X0061909Y0063847D02*
X0062303Y0063847D01*
X0062303Y0064437D02*
X0061909Y0064437D01*
X0061909Y0065027D02*
X0062303Y0065027D01*
X0062303Y0065617D02*
X0061909Y0065617D01*
X0061909Y0066207D02*
X0062303Y0066207D01*
X0063909Y0066211D02*
X0064303Y0066211D01*
X0064303Y0062077D01*
X0063909Y0062077D01*
X0063909Y0066211D01*
X0063909Y0062667D02*
X0064303Y0062667D01*
X0064303Y0063257D02*
X0063909Y0063257D01*
X0063909Y0063847D02*
X0064303Y0063847D01*
X0064303Y0064437D02*
X0063909Y0064437D01*
X0063909Y0065027D02*
X0064303Y0065027D01*
X0064303Y0065617D02*
X0063909Y0065617D01*
X0063909Y0066207D02*
X0064303Y0066207D01*
X0065909Y0066211D02*
X0066303Y0066211D01*
X0066303Y0062077D01*
X0065909Y0062077D01*
X0065909Y0066211D01*
X0065909Y0062667D02*
X0066303Y0062667D01*
X0066303Y0063257D02*
X0065909Y0063257D01*
X0065909Y0063847D02*
X0066303Y0063847D01*
X0066303Y0064437D02*
X0065909Y0064437D01*
X0065909Y0065027D02*
X0066303Y0065027D01*
X0066303Y0065617D02*
X0065909Y0065617D01*
X0065909Y0066207D02*
X0066303Y0066207D01*
X0067809Y0066211D02*
X0068203Y0066211D01*
X0068203Y0062077D01*
X0067809Y0062077D01*
X0067809Y0066211D01*
X0067809Y0062667D02*
X0068203Y0062667D01*
X0068203Y0063257D02*
X0067809Y0063257D01*
X0067809Y0063847D02*
X0068203Y0063847D01*
X0068203Y0064437D02*
X0067809Y0064437D01*
X0067809Y0065027D02*
X0068203Y0065027D01*
X0068203Y0065617D02*
X0067809Y0065617D01*
X0067809Y0066207D02*
X0068203Y0066207D01*
X0069809Y0066211D02*
X0070203Y0066211D01*
X0070203Y0062077D01*
X0069809Y0062077D01*
X0069809Y0066211D01*
X0069809Y0062667D02*
X0070203Y0062667D01*
X0070203Y0063257D02*
X0069809Y0063257D01*
X0069809Y0063847D02*
X0070203Y0063847D01*
X0070203Y0064437D02*
X0069809Y0064437D01*
X0069809Y0065027D02*
X0070203Y0065027D01*
X0070203Y0065617D02*
X0069809Y0065617D01*
X0069809Y0066207D02*
X0070203Y0066207D01*
X0071809Y0066211D02*
X0072203Y0066211D01*
X0072203Y0062077D01*
X0071809Y0062077D01*
X0071809Y0066211D01*
X0071809Y0062667D02*
X0072203Y0062667D01*
X0072203Y0063257D02*
X0071809Y0063257D01*
X0071809Y0063847D02*
X0072203Y0063847D01*
X0072203Y0064437D02*
X0071809Y0064437D01*
X0071809Y0065027D02*
X0072203Y0065027D01*
X0072203Y0065617D02*
X0071809Y0065617D01*
X0071809Y0066207D02*
X0072203Y0066207D01*
X0073709Y0066211D02*
X0074103Y0066211D01*
X0074103Y0062077D01*
X0073709Y0062077D01*
X0073709Y0066211D01*
X0073709Y0062667D02*
X0074103Y0062667D01*
X0074103Y0063257D02*
X0073709Y0063257D01*
X0073709Y0063847D02*
X0074103Y0063847D01*
X0074103Y0064437D02*
X0073709Y0064437D01*
X0073709Y0065027D02*
X0074103Y0065027D01*
X0074103Y0065617D02*
X0073709Y0065617D01*
X0073709Y0066207D02*
X0074103Y0066207D01*
X0075709Y0066211D02*
X0076103Y0066211D01*
X0076103Y0062077D01*
X0075709Y0062077D01*
X0075709Y0066211D01*
X0075709Y0062667D02*
X0076103Y0062667D01*
X0076103Y0063257D02*
X0075709Y0063257D01*
X0075709Y0063847D02*
X0076103Y0063847D01*
X0076103Y0064437D02*
X0075709Y0064437D01*
X0075709Y0065027D02*
X0076103Y0065027D01*
X0076103Y0065617D02*
X0075709Y0065617D01*
X0075709Y0066207D02*
X0076103Y0066207D01*
X0077709Y0066211D02*
X0078103Y0066211D01*
X0078103Y0062077D01*
X0077709Y0062077D01*
X0077709Y0066211D01*
X0077709Y0062667D02*
X0078103Y0062667D01*
X0078103Y0063257D02*
X0077709Y0063257D01*
X0077709Y0063847D02*
X0078103Y0063847D01*
X0078103Y0064437D02*
X0077709Y0064437D01*
X0077709Y0065027D02*
X0078103Y0065027D01*
X0078103Y0065617D02*
X0077709Y0065617D01*
X0077709Y0066207D02*
X0078103Y0066207D01*
X0079709Y0066211D02*
X0080103Y0066211D01*
X0080103Y0062077D01*
X0079709Y0062077D01*
X0079709Y0066211D01*
X0079709Y0062667D02*
X0080103Y0062667D01*
X0080103Y0063257D02*
X0079709Y0063257D01*
X0079709Y0063847D02*
X0080103Y0063847D01*
X0080103Y0064437D02*
X0079709Y0064437D01*
X0079709Y0065027D02*
X0080103Y0065027D01*
X0080103Y0065617D02*
X0079709Y0065617D01*
X0079709Y0066207D02*
X0080103Y0066207D01*
X0081609Y0066211D02*
X0082003Y0066211D01*
X0082003Y0062077D01*
X0081609Y0062077D01*
X0081609Y0066211D01*
X0081609Y0062667D02*
X0082003Y0062667D01*
X0082003Y0063257D02*
X0081609Y0063257D01*
X0081609Y0063847D02*
X0082003Y0063847D01*
X0082003Y0064437D02*
X0081609Y0064437D01*
X0081609Y0065027D02*
X0082003Y0065027D01*
X0082003Y0065617D02*
X0081609Y0065617D01*
X0081609Y0066207D02*
X0082003Y0066207D01*
X0083609Y0066211D02*
X0084003Y0066211D01*
X0084003Y0062077D01*
X0083609Y0062077D01*
X0083609Y0066211D01*
X0083609Y0062667D02*
X0084003Y0062667D01*
X0084003Y0063257D02*
X0083609Y0063257D01*
X0083609Y0063847D02*
X0084003Y0063847D01*
X0084003Y0064437D02*
X0083609Y0064437D01*
X0083609Y0065027D02*
X0084003Y0065027D01*
X0084003Y0065617D02*
X0083609Y0065617D01*
X0083609Y0066207D02*
X0084003Y0066207D01*
X0085609Y0066211D02*
X0086003Y0066211D01*
X0086003Y0062077D01*
X0085609Y0062077D01*
X0085609Y0066211D01*
X0085609Y0062667D02*
X0086003Y0062667D01*
X0086003Y0063257D02*
X0085609Y0063257D01*
X0085609Y0063847D02*
X0086003Y0063847D01*
X0086003Y0064437D02*
X0085609Y0064437D01*
X0085609Y0065027D02*
X0086003Y0065027D01*
X0086003Y0065617D02*
X0085609Y0065617D01*
X0085609Y0066207D02*
X0086003Y0066207D01*
X0087509Y0066211D02*
X0087903Y0066211D01*
X0087903Y0062077D01*
X0087509Y0062077D01*
X0087509Y0066211D01*
X0087509Y0062667D02*
X0087903Y0062667D01*
X0087903Y0063257D02*
X0087509Y0063257D01*
X0087509Y0063847D02*
X0087903Y0063847D01*
X0087903Y0064437D02*
X0087509Y0064437D01*
X0087509Y0065027D02*
X0087903Y0065027D01*
X0087903Y0065617D02*
X0087509Y0065617D01*
X0087509Y0066207D02*
X0087903Y0066207D01*
X0089509Y0066211D02*
X0089903Y0066211D01*
X0089903Y0062077D01*
X0089509Y0062077D01*
X0089509Y0066211D01*
X0089509Y0062667D02*
X0089903Y0062667D01*
X0089903Y0063257D02*
X0089509Y0063257D01*
X0089509Y0063847D02*
X0089903Y0063847D01*
X0089903Y0064437D02*
X0089509Y0064437D01*
X0089509Y0065027D02*
X0089903Y0065027D01*
X0089903Y0065617D02*
X0089509Y0065617D01*
X0089509Y0066207D02*
X0089903Y0066207D01*
X0091509Y0066211D02*
X0091903Y0066211D01*
X0091903Y0062077D01*
X0091509Y0062077D01*
X0091509Y0066211D01*
X0091509Y0062667D02*
X0091903Y0062667D01*
X0091903Y0063257D02*
X0091509Y0063257D01*
X0091509Y0063847D02*
X0091903Y0063847D01*
X0091903Y0064437D02*
X0091509Y0064437D01*
X0091509Y0065027D02*
X0091903Y0065027D01*
X0091903Y0065617D02*
X0091509Y0065617D01*
X0091509Y0066207D02*
X0091903Y0066207D01*
X0098127Y0072434D02*
X0098127Y0072828D01*
X0102261Y0072828D01*
X0102261Y0072434D01*
X0098127Y0072434D01*
X0098127Y0074434D02*
X0098127Y0074828D01*
X0102261Y0074828D01*
X0102261Y0074434D01*
X0098127Y0074434D01*
X0098127Y0076434D02*
X0098127Y0076828D01*
X0102261Y0076828D01*
X0102261Y0076434D01*
X0098127Y0076434D01*
X0098127Y0078334D02*
X0098127Y0078728D01*
X0102261Y0078728D01*
X0102261Y0078334D01*
X0098127Y0078334D01*
X0098127Y0080334D02*
X0098127Y0080728D01*
X0102261Y0080728D01*
X0102261Y0080334D01*
X0098127Y0080334D01*
X0098127Y0082334D02*
X0098127Y0082728D01*
X0102261Y0082728D01*
X0102261Y0082334D01*
X0098127Y0082334D01*
X0098127Y0084234D02*
X0098127Y0084628D01*
X0102261Y0084628D01*
X0102261Y0084234D01*
X0098127Y0084234D01*
X0098127Y0086234D02*
X0098127Y0086628D01*
X0102261Y0086628D01*
X0102261Y0086234D01*
X0098127Y0086234D01*
X0098127Y0088234D02*
X0098127Y0088628D01*
X0102261Y0088628D01*
X0102261Y0088234D01*
X0098127Y0088234D01*
X0098127Y0090234D02*
X0098127Y0090628D01*
X0102261Y0090628D01*
X0102261Y0090234D01*
X0098127Y0090234D01*
X0098127Y0092134D02*
X0098127Y0092528D01*
X0102261Y0092528D01*
X0102261Y0092134D01*
X0098127Y0092134D01*
X0098127Y0094134D02*
X0098127Y0094528D01*
X0102261Y0094528D01*
X0102261Y0094134D01*
X0098127Y0094134D01*
X0098127Y0096134D02*
X0098127Y0096528D01*
X0102261Y0096528D01*
X0102261Y0096134D01*
X0098127Y0096134D01*
X0098127Y0098034D02*
X0098127Y0098428D01*
X0102261Y0098428D01*
X0102261Y0098034D01*
X0098127Y0098034D01*
X0098127Y0100034D02*
X0098127Y0100428D01*
X0102261Y0100428D01*
X0102261Y0100034D01*
X0098127Y0100034D01*
X0098127Y0102034D02*
X0098127Y0102428D01*
X0102261Y0102428D01*
X0102261Y0102034D01*
X0098127Y0102034D01*
D18*
X0061778Y0040443D02*
X0060834Y0040443D01*
X0060834Y0044931D01*
X0061778Y0044931D01*
X0061778Y0040443D01*
X0061778Y0041072D02*
X0060834Y0041072D01*
X0060834Y0041701D02*
X0061778Y0041701D01*
X0061778Y0042330D02*
X0060834Y0042330D01*
X0060834Y0042959D02*
X0061778Y0042959D01*
X0061778Y0043588D02*
X0060834Y0043588D01*
X0060834Y0044217D02*
X0061778Y0044217D01*
X0061778Y0044846D02*
X0060834Y0044846D01*
X0058628Y0040443D02*
X0057684Y0040443D01*
X0057684Y0044931D01*
X0058628Y0044931D01*
X0058628Y0040443D01*
X0058628Y0041072D02*
X0057684Y0041072D01*
X0057684Y0041701D02*
X0058628Y0041701D01*
X0058628Y0042330D02*
X0057684Y0042330D01*
X0057684Y0042959D02*
X0058628Y0042959D01*
X0058628Y0043588D02*
X0057684Y0043588D01*
X0057684Y0044217D02*
X0058628Y0044217D01*
X0058628Y0044846D02*
X0057684Y0044846D01*
X0055479Y0040443D02*
X0054535Y0040443D01*
X0054535Y0044931D01*
X0055479Y0044931D01*
X0055479Y0040443D01*
X0055479Y0041072D02*
X0054535Y0041072D01*
X0054535Y0041701D02*
X0055479Y0041701D01*
X0055479Y0042330D02*
X0054535Y0042330D01*
X0054535Y0042959D02*
X0055479Y0042959D01*
X0055479Y0043588D02*
X0054535Y0043588D01*
X0054535Y0044217D02*
X0055479Y0044217D01*
X0055479Y0044846D02*
X0054535Y0044846D01*
X0052329Y0040443D02*
X0051385Y0040443D01*
X0051385Y0044931D01*
X0052329Y0044931D01*
X0052329Y0040443D01*
X0052329Y0041072D02*
X0051385Y0041072D01*
X0051385Y0041701D02*
X0052329Y0041701D01*
X0052329Y0042330D02*
X0051385Y0042330D01*
X0051385Y0042959D02*
X0052329Y0042959D01*
X0052329Y0043588D02*
X0051385Y0043588D01*
X0051385Y0044217D02*
X0052329Y0044217D01*
X0052329Y0044846D02*
X0051385Y0044846D01*
X0049179Y0040443D02*
X0048235Y0040443D01*
X0048235Y0044931D01*
X0049179Y0044931D01*
X0049179Y0040443D01*
X0049179Y0041072D02*
X0048235Y0041072D01*
X0048235Y0041701D02*
X0049179Y0041701D01*
X0049179Y0042330D02*
X0048235Y0042330D01*
X0048235Y0042959D02*
X0049179Y0042959D01*
X0049179Y0043588D02*
X0048235Y0043588D01*
X0048235Y0044217D02*
X0049179Y0044217D01*
X0049179Y0044846D02*
X0048235Y0044846D01*
X0046030Y0040443D02*
X0045086Y0040443D01*
X0045086Y0044931D01*
X0046030Y0044931D01*
X0046030Y0040443D01*
X0046030Y0041072D02*
X0045086Y0041072D01*
X0045086Y0041701D02*
X0046030Y0041701D01*
X0046030Y0042330D02*
X0045086Y0042330D01*
X0045086Y0042959D02*
X0046030Y0042959D01*
X0046030Y0043588D02*
X0045086Y0043588D01*
X0045086Y0044217D02*
X0046030Y0044217D01*
X0046030Y0044846D02*
X0045086Y0044846D01*
X0042880Y0040443D02*
X0041936Y0040443D01*
X0041936Y0044931D01*
X0042880Y0044931D01*
X0042880Y0040443D01*
X0042880Y0041072D02*
X0041936Y0041072D01*
X0041936Y0041701D02*
X0042880Y0041701D01*
X0042880Y0042330D02*
X0041936Y0042330D01*
X0041936Y0042959D02*
X0042880Y0042959D01*
X0042880Y0043588D02*
X0041936Y0043588D01*
X0041936Y0044217D02*
X0042880Y0044217D01*
X0042880Y0044846D02*
X0041936Y0044846D01*
X0039731Y0040443D02*
X0038787Y0040443D01*
X0038787Y0044931D01*
X0039731Y0044931D01*
X0039731Y0040443D01*
X0039731Y0041072D02*
X0038787Y0041072D01*
X0038787Y0041701D02*
X0039731Y0041701D01*
X0039731Y0042330D02*
X0038787Y0042330D01*
X0038787Y0042959D02*
X0039731Y0042959D01*
X0039731Y0043588D02*
X0038787Y0043588D01*
X0038787Y0044217D02*
X0039731Y0044217D01*
X0039731Y0044846D02*
X0038787Y0044846D01*
X0034839Y0036496D02*
X0034839Y0035552D01*
X0030351Y0035552D01*
X0030351Y0036496D01*
X0034839Y0036496D01*
X0034839Y0036181D02*
X0030351Y0036181D01*
X0034839Y0033346D02*
X0034839Y0032402D01*
X0030351Y0032402D01*
X0030351Y0033346D01*
X0034839Y0033346D01*
X0034839Y0033031D02*
X0030351Y0033031D01*
X0034839Y0030196D02*
X0034839Y0029252D01*
X0030351Y0029252D01*
X0030351Y0030196D01*
X0034839Y0030196D01*
X0034839Y0029881D02*
X0030351Y0029881D01*
X0034839Y0027047D02*
X0034839Y0026103D01*
X0030351Y0026103D01*
X0030351Y0027047D01*
X0034839Y0027047D01*
X0034839Y0026732D02*
X0030351Y0026732D01*
X0034839Y0023897D02*
X0034839Y0022953D01*
X0030351Y0022953D01*
X0030351Y0023897D01*
X0034839Y0023897D01*
X0034839Y0023582D02*
X0030351Y0023582D01*
X0034839Y0020748D02*
X0034839Y0019804D01*
X0030351Y0019804D01*
X0030351Y0020748D01*
X0034839Y0020748D01*
X0034839Y0020433D02*
X0030351Y0020433D01*
X0034839Y0017598D02*
X0034839Y0016654D01*
X0030351Y0016654D01*
X0030351Y0017598D01*
X0034839Y0017598D01*
X0034839Y0017283D02*
X0030351Y0017283D01*
X0034839Y0014448D02*
X0034839Y0013504D01*
X0030351Y0013504D01*
X0030351Y0014448D01*
X0034839Y0014448D01*
X0034839Y0014133D02*
X0030351Y0014133D01*
X0038787Y0005069D02*
X0039731Y0005069D01*
X0038787Y0005069D02*
X0038787Y0009557D01*
X0039731Y0009557D01*
X0039731Y0005069D01*
X0039731Y0005698D02*
X0038787Y0005698D01*
X0038787Y0006327D02*
X0039731Y0006327D01*
X0039731Y0006956D02*
X0038787Y0006956D01*
X0038787Y0007585D02*
X0039731Y0007585D01*
X0039731Y0008214D02*
X0038787Y0008214D01*
X0038787Y0008843D02*
X0039731Y0008843D01*
X0039731Y0009472D02*
X0038787Y0009472D01*
X0041936Y0005069D02*
X0042880Y0005069D01*
X0041936Y0005069D02*
X0041936Y0009557D01*
X0042880Y0009557D01*
X0042880Y0005069D01*
X0042880Y0005698D02*
X0041936Y0005698D01*
X0041936Y0006327D02*
X0042880Y0006327D01*
X0042880Y0006956D02*
X0041936Y0006956D01*
X0041936Y0007585D02*
X0042880Y0007585D01*
X0042880Y0008214D02*
X0041936Y0008214D01*
X0041936Y0008843D02*
X0042880Y0008843D01*
X0042880Y0009472D02*
X0041936Y0009472D01*
X0045086Y0005069D02*
X0046030Y0005069D01*
X0045086Y0005069D02*
X0045086Y0009557D01*
X0046030Y0009557D01*
X0046030Y0005069D01*
X0046030Y0005698D02*
X0045086Y0005698D01*
X0045086Y0006327D02*
X0046030Y0006327D01*
X0046030Y0006956D02*
X0045086Y0006956D01*
X0045086Y0007585D02*
X0046030Y0007585D01*
X0046030Y0008214D02*
X0045086Y0008214D01*
X0045086Y0008843D02*
X0046030Y0008843D01*
X0046030Y0009472D02*
X0045086Y0009472D01*
X0048235Y0005069D02*
X0049179Y0005069D01*
X0048235Y0005069D02*
X0048235Y0009557D01*
X0049179Y0009557D01*
X0049179Y0005069D01*
X0049179Y0005698D02*
X0048235Y0005698D01*
X0048235Y0006327D02*
X0049179Y0006327D01*
X0049179Y0006956D02*
X0048235Y0006956D01*
X0048235Y0007585D02*
X0049179Y0007585D01*
X0049179Y0008214D02*
X0048235Y0008214D01*
X0048235Y0008843D02*
X0049179Y0008843D01*
X0049179Y0009472D02*
X0048235Y0009472D01*
X0051385Y0005069D02*
X0052329Y0005069D01*
X0051385Y0005069D02*
X0051385Y0009557D01*
X0052329Y0009557D01*
X0052329Y0005069D01*
X0052329Y0005698D02*
X0051385Y0005698D01*
X0051385Y0006327D02*
X0052329Y0006327D01*
X0052329Y0006956D02*
X0051385Y0006956D01*
X0051385Y0007585D02*
X0052329Y0007585D01*
X0052329Y0008214D02*
X0051385Y0008214D01*
X0051385Y0008843D02*
X0052329Y0008843D01*
X0052329Y0009472D02*
X0051385Y0009472D01*
X0054535Y0005069D02*
X0055479Y0005069D01*
X0054535Y0005069D02*
X0054535Y0009557D01*
X0055479Y0009557D01*
X0055479Y0005069D01*
X0055479Y0005698D02*
X0054535Y0005698D01*
X0054535Y0006327D02*
X0055479Y0006327D01*
X0055479Y0006956D02*
X0054535Y0006956D01*
X0054535Y0007585D02*
X0055479Y0007585D01*
X0055479Y0008214D02*
X0054535Y0008214D01*
X0054535Y0008843D02*
X0055479Y0008843D01*
X0055479Y0009472D02*
X0054535Y0009472D01*
X0057684Y0005069D02*
X0058628Y0005069D01*
X0057684Y0005069D02*
X0057684Y0009557D01*
X0058628Y0009557D01*
X0058628Y0005069D01*
X0058628Y0005698D02*
X0057684Y0005698D01*
X0057684Y0006327D02*
X0058628Y0006327D01*
X0058628Y0006956D02*
X0057684Y0006956D01*
X0057684Y0007585D02*
X0058628Y0007585D01*
X0058628Y0008214D02*
X0057684Y0008214D01*
X0057684Y0008843D02*
X0058628Y0008843D01*
X0058628Y0009472D02*
X0057684Y0009472D01*
X0060834Y0005069D02*
X0061778Y0005069D01*
X0060834Y0005069D02*
X0060834Y0009557D01*
X0061778Y0009557D01*
X0061778Y0005069D01*
X0061778Y0005698D02*
X0060834Y0005698D01*
X0060834Y0006327D02*
X0061778Y0006327D01*
X0061778Y0006956D02*
X0060834Y0006956D01*
X0060834Y0007585D02*
X0061778Y0007585D01*
X0061778Y0008214D02*
X0060834Y0008214D01*
X0060834Y0008843D02*
X0061778Y0008843D01*
X0061778Y0009472D02*
X0060834Y0009472D01*
X0070214Y0013504D02*
X0070214Y0014448D01*
X0070214Y0013504D02*
X0065726Y0013504D01*
X0065726Y0014448D01*
X0070214Y0014448D01*
X0070214Y0014133D02*
X0065726Y0014133D01*
X0070214Y0016654D02*
X0070214Y0017598D01*
X0070214Y0016654D02*
X0065726Y0016654D01*
X0065726Y0017598D01*
X0070214Y0017598D01*
X0070214Y0017283D02*
X0065726Y0017283D01*
X0070214Y0019804D02*
X0070214Y0020748D01*
X0070214Y0019804D02*
X0065726Y0019804D01*
X0065726Y0020748D01*
X0070214Y0020748D01*
X0070214Y0020433D02*
X0065726Y0020433D01*
X0070214Y0022953D02*
X0070214Y0023897D01*
X0070214Y0022953D02*
X0065726Y0022953D01*
X0065726Y0023897D01*
X0070214Y0023897D01*
X0070214Y0023582D02*
X0065726Y0023582D01*
X0070214Y0026103D02*
X0070214Y0027047D01*
X0070214Y0026103D02*
X0065726Y0026103D01*
X0065726Y0027047D01*
X0070214Y0027047D01*
X0070214Y0026732D02*
X0065726Y0026732D01*
X0070214Y0029252D02*
X0070214Y0030196D01*
X0070214Y0029252D02*
X0065726Y0029252D01*
X0065726Y0030196D01*
X0070214Y0030196D01*
X0070214Y0029881D02*
X0065726Y0029881D01*
X0070214Y0032402D02*
X0070214Y0033346D01*
X0070214Y0032402D02*
X0065726Y0032402D01*
X0065726Y0033346D01*
X0070214Y0033346D01*
X0070214Y0033031D02*
X0065726Y0033031D01*
X0070214Y0035552D02*
X0070214Y0036496D01*
X0070214Y0035552D02*
X0065726Y0035552D01*
X0065726Y0036496D01*
X0070214Y0036496D01*
X0070214Y0036181D02*
X0065726Y0036181D01*
D19*
X0060790Y0051038D03*
X0060790Y0058038D03*
X0068790Y0054538D03*
D20*
X0075390Y0041590D03*
X0081690Y0041590D03*
X0081690Y0025448D03*
X0075390Y0025448D03*
D21*
X0030040Y0069688D03*
X0021040Y0069688D03*
X0012040Y0069688D03*
D22*
X0021040Y0094688D03*
D23*
X0021808Y0047372D03*
X0021808Y0044813D03*
X0021808Y0042254D03*
X0021808Y0039695D03*
X0021808Y0037136D03*
D24*
X0021808Y0029656D03*
X0021808Y0054852D03*
D25*
X0013658Y0055246D02*
X0013656Y0055308D01*
X0013650Y0055369D01*
X0013641Y0055430D01*
X0013627Y0055491D01*
X0013610Y0055550D01*
X0013589Y0055608D01*
X0013564Y0055665D01*
X0013536Y0055720D01*
X0013505Y0055773D01*
X0013470Y0055824D01*
X0013432Y0055873D01*
X0013391Y0055920D01*
X0013348Y0055963D01*
X0013301Y0056004D01*
X0013252Y0056042D01*
X0013201Y0056077D01*
X0013148Y0056108D01*
X0013093Y0056136D01*
X0013036Y0056161D01*
X0012978Y0056182D01*
X0012919Y0056199D01*
X0012858Y0056213D01*
X0012797Y0056222D01*
X0012736Y0056228D01*
X0012674Y0056230D01*
X0009918Y0056230D01*
X0008934Y0055246D02*
X0008936Y0055184D01*
X0008942Y0055123D01*
X0008951Y0055062D01*
X0008965Y0055001D01*
X0008982Y0054942D01*
X0009003Y0054884D01*
X0009028Y0054827D01*
X0009056Y0054772D01*
X0009087Y0054719D01*
X0009122Y0054668D01*
X0009160Y0054619D01*
X0009201Y0054572D01*
X0009244Y0054529D01*
X0009291Y0054488D01*
X0009340Y0054450D01*
X0009391Y0054415D01*
X0009444Y0054384D01*
X0009499Y0054356D01*
X0009556Y0054331D01*
X0009614Y0054310D01*
X0009673Y0054293D01*
X0009734Y0054279D01*
X0009795Y0054270D01*
X0009856Y0054264D01*
X0009918Y0054262D01*
X0012674Y0054262D01*
X0012736Y0054264D01*
X0012797Y0054270D01*
X0012858Y0054279D01*
X0012919Y0054293D01*
X0012978Y0054310D01*
X0013036Y0054331D01*
X0013093Y0054356D01*
X0013148Y0054384D01*
X0013201Y0054415D01*
X0013252Y0054450D01*
X0013301Y0054488D01*
X0013348Y0054529D01*
X0013391Y0054572D01*
X0013432Y0054619D01*
X0013470Y0054668D01*
X0013505Y0054719D01*
X0013536Y0054772D01*
X0013564Y0054827D01*
X0013589Y0054884D01*
X0013610Y0054942D01*
X0013627Y0055001D01*
X0013641Y0055062D01*
X0013650Y0055123D01*
X0013656Y0055184D01*
X0013658Y0055246D01*
X0009918Y0056230D02*
X0009856Y0056228D01*
X0009795Y0056222D01*
X0009734Y0056213D01*
X0009673Y0056199D01*
X0009614Y0056182D01*
X0009556Y0056161D01*
X0009499Y0056136D01*
X0009444Y0056108D01*
X0009391Y0056077D01*
X0009340Y0056042D01*
X0009291Y0056004D01*
X0009244Y0055963D01*
X0009201Y0055920D01*
X0009160Y0055873D01*
X0009122Y0055824D01*
X0009087Y0055773D01*
X0009056Y0055720D01*
X0009028Y0055665D01*
X0009003Y0055608D01*
X0008982Y0055550D01*
X0008965Y0055491D01*
X0008951Y0055430D01*
X0008942Y0055369D01*
X0008936Y0055308D01*
X0008934Y0055246D01*
X0009918Y0030246D02*
X0012674Y0030246D01*
X0012736Y0030244D01*
X0012797Y0030238D01*
X0012858Y0030229D01*
X0012919Y0030215D01*
X0012978Y0030198D01*
X0013036Y0030177D01*
X0013093Y0030152D01*
X0013148Y0030124D01*
X0013201Y0030093D01*
X0013252Y0030058D01*
X0013301Y0030020D01*
X0013348Y0029979D01*
X0013391Y0029936D01*
X0013432Y0029889D01*
X0013470Y0029840D01*
X0013505Y0029789D01*
X0013536Y0029736D01*
X0013564Y0029681D01*
X0013589Y0029624D01*
X0013610Y0029566D01*
X0013627Y0029507D01*
X0013641Y0029446D01*
X0013650Y0029385D01*
X0013656Y0029324D01*
X0013658Y0029262D01*
X0013656Y0029200D01*
X0013650Y0029139D01*
X0013641Y0029078D01*
X0013627Y0029017D01*
X0013610Y0028958D01*
X0013589Y0028900D01*
X0013564Y0028843D01*
X0013536Y0028788D01*
X0013505Y0028735D01*
X0013470Y0028684D01*
X0013432Y0028635D01*
X0013391Y0028588D01*
X0013348Y0028545D01*
X0013301Y0028504D01*
X0013252Y0028466D01*
X0013201Y0028431D01*
X0013148Y0028400D01*
X0013093Y0028372D01*
X0013036Y0028347D01*
X0012978Y0028326D01*
X0012919Y0028309D01*
X0012858Y0028295D01*
X0012797Y0028286D01*
X0012736Y0028280D01*
X0012674Y0028278D01*
X0009918Y0028278D01*
X0009856Y0028280D01*
X0009795Y0028286D01*
X0009734Y0028295D01*
X0009673Y0028309D01*
X0009614Y0028326D01*
X0009556Y0028347D01*
X0009499Y0028372D01*
X0009444Y0028400D01*
X0009391Y0028431D01*
X0009340Y0028466D01*
X0009291Y0028504D01*
X0009244Y0028545D01*
X0009201Y0028588D01*
X0009160Y0028635D01*
X0009122Y0028684D01*
X0009087Y0028735D01*
X0009056Y0028788D01*
X0009028Y0028843D01*
X0009003Y0028900D01*
X0008982Y0028958D01*
X0008965Y0029017D01*
X0008951Y0029078D01*
X0008942Y0029139D01*
X0008936Y0029200D01*
X0008934Y0029262D01*
X0008936Y0029324D01*
X0008942Y0029385D01*
X0008951Y0029446D01*
X0008965Y0029507D01*
X0008982Y0029566D01*
X0009003Y0029624D01*
X0009028Y0029681D01*
X0009056Y0029736D01*
X0009087Y0029789D01*
X0009122Y0029840D01*
X0009160Y0029889D01*
X0009201Y0029936D01*
X0009244Y0029979D01*
X0009291Y0030020D01*
X0009340Y0030058D01*
X0009391Y0030093D01*
X0009444Y0030124D01*
X0009499Y0030152D01*
X0009556Y0030177D01*
X0009614Y0030198D01*
X0009673Y0030215D01*
X0009734Y0030229D01*
X0009795Y0030238D01*
X0009856Y0030244D01*
X0009918Y0030246D01*
D26*
X0011276Y0037530D03*
X0011276Y0046978D03*
D27*
X0012674Y0055246D02*
X0012674Y0055246D01*
X0009918Y0055246D01*
X0009918Y0055246D01*
X0012674Y0055246D01*
X0012674Y0029262D02*
X0012674Y0029262D01*
X0009918Y0029262D01*
X0009918Y0029262D01*
X0012674Y0029262D01*
M02*
