G75*
%MOIN*%
%OFA0B0*%
%FSLAX25Y25*%
%IPPOS*%
%LPD*%
%AMOC8*
5,1,8,0,0,1.08239X$1,22.5*
%
%ADD10C,0.00000*%
%ADD11C,0.04800*%
%ADD12C,0.03750*%
%ADD13C,0.07400*%
%ADD14R,0.04600X0.06300*%
%ADD15C,0.02362*%
%ADD16C,0.00039*%
%ADD17C,0.03543*%
%ADD18C,0.00796*%
%ADD19C,0.01000*%
%ADD20C,0.01593*%
%ADD21C,0.01195*%
D10*
X0006040Y0013081D02*
X0006040Y0133159D01*
X0010961Y0133159D02*
X0010963Y0133312D01*
X0010969Y0133466D01*
X0010979Y0133619D01*
X0010993Y0133771D01*
X0011011Y0133924D01*
X0011033Y0134075D01*
X0011058Y0134226D01*
X0011088Y0134377D01*
X0011122Y0134527D01*
X0011159Y0134675D01*
X0011200Y0134823D01*
X0011245Y0134969D01*
X0011294Y0135115D01*
X0011347Y0135259D01*
X0011403Y0135401D01*
X0011463Y0135542D01*
X0011527Y0135682D01*
X0011594Y0135820D01*
X0011665Y0135956D01*
X0011740Y0136090D01*
X0011817Y0136222D01*
X0011899Y0136352D01*
X0011983Y0136480D01*
X0012071Y0136606D01*
X0012162Y0136729D01*
X0012256Y0136850D01*
X0012354Y0136968D01*
X0012454Y0137084D01*
X0012558Y0137197D01*
X0012664Y0137308D01*
X0012773Y0137416D01*
X0012885Y0137521D01*
X0012999Y0137622D01*
X0013117Y0137721D01*
X0013236Y0137817D01*
X0013358Y0137910D01*
X0013483Y0137999D01*
X0013610Y0138086D01*
X0013739Y0138168D01*
X0013870Y0138248D01*
X0014003Y0138324D01*
X0014138Y0138397D01*
X0014275Y0138466D01*
X0014414Y0138531D01*
X0014554Y0138593D01*
X0014696Y0138651D01*
X0014839Y0138706D01*
X0014984Y0138757D01*
X0015130Y0138804D01*
X0015277Y0138847D01*
X0015425Y0138886D01*
X0015574Y0138922D01*
X0015724Y0138953D01*
X0015875Y0138981D01*
X0016026Y0139005D01*
X0016179Y0139025D01*
X0016331Y0139041D01*
X0016484Y0139053D01*
X0016637Y0139061D01*
X0016790Y0139065D01*
X0016944Y0139065D01*
X0017097Y0139061D01*
X0017250Y0139053D01*
X0017403Y0139041D01*
X0017555Y0139025D01*
X0017708Y0139005D01*
X0017859Y0138981D01*
X0018010Y0138953D01*
X0018160Y0138922D01*
X0018309Y0138886D01*
X0018457Y0138847D01*
X0018604Y0138804D01*
X0018750Y0138757D01*
X0018895Y0138706D01*
X0019038Y0138651D01*
X0019180Y0138593D01*
X0019320Y0138531D01*
X0019459Y0138466D01*
X0019596Y0138397D01*
X0019731Y0138324D01*
X0019864Y0138248D01*
X0019995Y0138168D01*
X0020124Y0138086D01*
X0020251Y0137999D01*
X0020376Y0137910D01*
X0020498Y0137817D01*
X0020617Y0137721D01*
X0020735Y0137622D01*
X0020849Y0137521D01*
X0020961Y0137416D01*
X0021070Y0137308D01*
X0021176Y0137197D01*
X0021280Y0137084D01*
X0021380Y0136968D01*
X0021478Y0136850D01*
X0021572Y0136729D01*
X0021663Y0136606D01*
X0021751Y0136480D01*
X0021835Y0136352D01*
X0021917Y0136222D01*
X0021994Y0136090D01*
X0022069Y0135956D01*
X0022140Y0135820D01*
X0022207Y0135682D01*
X0022271Y0135542D01*
X0022331Y0135401D01*
X0022387Y0135259D01*
X0022440Y0135115D01*
X0022489Y0134969D01*
X0022534Y0134823D01*
X0022575Y0134675D01*
X0022612Y0134527D01*
X0022646Y0134377D01*
X0022676Y0134226D01*
X0022701Y0134075D01*
X0022723Y0133924D01*
X0022741Y0133771D01*
X0022755Y0133619D01*
X0022765Y0133466D01*
X0022771Y0133312D01*
X0022773Y0133159D01*
X0022771Y0133006D01*
X0022765Y0132852D01*
X0022755Y0132699D01*
X0022741Y0132547D01*
X0022723Y0132394D01*
X0022701Y0132243D01*
X0022676Y0132092D01*
X0022646Y0131941D01*
X0022612Y0131791D01*
X0022575Y0131643D01*
X0022534Y0131495D01*
X0022489Y0131349D01*
X0022440Y0131203D01*
X0022387Y0131059D01*
X0022331Y0130917D01*
X0022271Y0130776D01*
X0022207Y0130636D01*
X0022140Y0130498D01*
X0022069Y0130362D01*
X0021994Y0130228D01*
X0021917Y0130096D01*
X0021835Y0129966D01*
X0021751Y0129838D01*
X0021663Y0129712D01*
X0021572Y0129589D01*
X0021478Y0129468D01*
X0021380Y0129350D01*
X0021280Y0129234D01*
X0021176Y0129121D01*
X0021070Y0129010D01*
X0020961Y0128902D01*
X0020849Y0128797D01*
X0020735Y0128696D01*
X0020617Y0128597D01*
X0020498Y0128501D01*
X0020376Y0128408D01*
X0020251Y0128319D01*
X0020124Y0128232D01*
X0019995Y0128150D01*
X0019864Y0128070D01*
X0019731Y0127994D01*
X0019596Y0127921D01*
X0019459Y0127852D01*
X0019320Y0127787D01*
X0019180Y0127725D01*
X0019038Y0127667D01*
X0018895Y0127612D01*
X0018750Y0127561D01*
X0018604Y0127514D01*
X0018457Y0127471D01*
X0018309Y0127432D01*
X0018160Y0127396D01*
X0018010Y0127365D01*
X0017859Y0127337D01*
X0017708Y0127313D01*
X0017555Y0127293D01*
X0017403Y0127277D01*
X0017250Y0127265D01*
X0017097Y0127257D01*
X0016944Y0127253D01*
X0016790Y0127253D01*
X0016637Y0127257D01*
X0016484Y0127265D01*
X0016331Y0127277D01*
X0016179Y0127293D01*
X0016026Y0127313D01*
X0015875Y0127337D01*
X0015724Y0127365D01*
X0015574Y0127396D01*
X0015425Y0127432D01*
X0015277Y0127471D01*
X0015130Y0127514D01*
X0014984Y0127561D01*
X0014839Y0127612D01*
X0014696Y0127667D01*
X0014554Y0127725D01*
X0014414Y0127787D01*
X0014275Y0127852D01*
X0014138Y0127921D01*
X0014003Y0127994D01*
X0013870Y0128070D01*
X0013739Y0128150D01*
X0013610Y0128232D01*
X0013483Y0128319D01*
X0013358Y0128408D01*
X0013236Y0128501D01*
X0013117Y0128597D01*
X0012999Y0128696D01*
X0012885Y0128797D01*
X0012773Y0128902D01*
X0012664Y0129010D01*
X0012558Y0129121D01*
X0012454Y0129234D01*
X0012354Y0129350D01*
X0012256Y0129468D01*
X0012162Y0129589D01*
X0012071Y0129712D01*
X0011983Y0129838D01*
X0011899Y0129966D01*
X0011817Y0130096D01*
X0011740Y0130228D01*
X0011665Y0130362D01*
X0011594Y0130498D01*
X0011527Y0130636D01*
X0011463Y0130776D01*
X0011403Y0130917D01*
X0011347Y0131059D01*
X0011294Y0131203D01*
X0011245Y0131349D01*
X0011200Y0131495D01*
X0011159Y0131643D01*
X0011122Y0131791D01*
X0011088Y0131941D01*
X0011058Y0132092D01*
X0011033Y0132243D01*
X0011011Y0132394D01*
X0010993Y0132547D01*
X0010979Y0132699D01*
X0010969Y0132852D01*
X0010963Y0133006D01*
X0010961Y0133159D01*
X0006040Y0133159D02*
X0006043Y0133421D01*
X0006053Y0133682D01*
X0006068Y0133943D01*
X0006091Y0134204D01*
X0006119Y0134464D01*
X0006154Y0134723D01*
X0006195Y0134982D01*
X0006242Y0135239D01*
X0006295Y0135495D01*
X0006355Y0135750D01*
X0006420Y0136003D01*
X0006492Y0136255D01*
X0006570Y0136505D01*
X0006654Y0136753D01*
X0006744Y0136998D01*
X0006839Y0137242D01*
X0006941Y0137483D01*
X0007048Y0137722D01*
X0007161Y0137957D01*
X0007280Y0138191D01*
X0007405Y0138421D01*
X0007534Y0138648D01*
X0007670Y0138872D01*
X0007811Y0139092D01*
X0007957Y0139309D01*
X0008108Y0139523D01*
X0008264Y0139733D01*
X0008425Y0139939D01*
X0008592Y0140141D01*
X0008763Y0140339D01*
X0008939Y0140532D01*
X0009119Y0140722D01*
X0009304Y0140907D01*
X0009494Y0141087D01*
X0009687Y0141263D01*
X0009885Y0141434D01*
X0010087Y0141601D01*
X0010293Y0141762D01*
X0010503Y0141918D01*
X0010717Y0142069D01*
X0010934Y0142215D01*
X0011154Y0142356D01*
X0011378Y0142492D01*
X0011605Y0142621D01*
X0011835Y0142746D01*
X0012069Y0142865D01*
X0012304Y0142978D01*
X0012543Y0143085D01*
X0012784Y0143187D01*
X0013028Y0143282D01*
X0013273Y0143372D01*
X0013521Y0143456D01*
X0013771Y0143534D01*
X0014023Y0143606D01*
X0014276Y0143671D01*
X0014531Y0143731D01*
X0014787Y0143784D01*
X0015044Y0143831D01*
X0015303Y0143872D01*
X0015562Y0143907D01*
X0015822Y0143935D01*
X0016083Y0143958D01*
X0016344Y0143973D01*
X0016605Y0143983D01*
X0016867Y0143986D01*
X0136946Y0143986D01*
X0131040Y0133159D02*
X0131042Y0133312D01*
X0131048Y0133466D01*
X0131058Y0133619D01*
X0131072Y0133771D01*
X0131090Y0133924D01*
X0131112Y0134075D01*
X0131137Y0134226D01*
X0131167Y0134377D01*
X0131201Y0134527D01*
X0131238Y0134675D01*
X0131279Y0134823D01*
X0131324Y0134969D01*
X0131373Y0135115D01*
X0131426Y0135259D01*
X0131482Y0135401D01*
X0131542Y0135542D01*
X0131606Y0135682D01*
X0131673Y0135820D01*
X0131744Y0135956D01*
X0131819Y0136090D01*
X0131896Y0136222D01*
X0131978Y0136352D01*
X0132062Y0136480D01*
X0132150Y0136606D01*
X0132241Y0136729D01*
X0132335Y0136850D01*
X0132433Y0136968D01*
X0132533Y0137084D01*
X0132637Y0137197D01*
X0132743Y0137308D01*
X0132852Y0137416D01*
X0132964Y0137521D01*
X0133078Y0137622D01*
X0133196Y0137721D01*
X0133315Y0137817D01*
X0133437Y0137910D01*
X0133562Y0137999D01*
X0133689Y0138086D01*
X0133818Y0138168D01*
X0133949Y0138248D01*
X0134082Y0138324D01*
X0134217Y0138397D01*
X0134354Y0138466D01*
X0134493Y0138531D01*
X0134633Y0138593D01*
X0134775Y0138651D01*
X0134918Y0138706D01*
X0135063Y0138757D01*
X0135209Y0138804D01*
X0135356Y0138847D01*
X0135504Y0138886D01*
X0135653Y0138922D01*
X0135803Y0138953D01*
X0135954Y0138981D01*
X0136105Y0139005D01*
X0136258Y0139025D01*
X0136410Y0139041D01*
X0136563Y0139053D01*
X0136716Y0139061D01*
X0136869Y0139065D01*
X0137023Y0139065D01*
X0137176Y0139061D01*
X0137329Y0139053D01*
X0137482Y0139041D01*
X0137634Y0139025D01*
X0137787Y0139005D01*
X0137938Y0138981D01*
X0138089Y0138953D01*
X0138239Y0138922D01*
X0138388Y0138886D01*
X0138536Y0138847D01*
X0138683Y0138804D01*
X0138829Y0138757D01*
X0138974Y0138706D01*
X0139117Y0138651D01*
X0139259Y0138593D01*
X0139399Y0138531D01*
X0139538Y0138466D01*
X0139675Y0138397D01*
X0139810Y0138324D01*
X0139943Y0138248D01*
X0140074Y0138168D01*
X0140203Y0138086D01*
X0140330Y0137999D01*
X0140455Y0137910D01*
X0140577Y0137817D01*
X0140696Y0137721D01*
X0140814Y0137622D01*
X0140928Y0137521D01*
X0141040Y0137416D01*
X0141149Y0137308D01*
X0141255Y0137197D01*
X0141359Y0137084D01*
X0141459Y0136968D01*
X0141557Y0136850D01*
X0141651Y0136729D01*
X0141742Y0136606D01*
X0141830Y0136480D01*
X0141914Y0136352D01*
X0141996Y0136222D01*
X0142073Y0136090D01*
X0142148Y0135956D01*
X0142219Y0135820D01*
X0142286Y0135682D01*
X0142350Y0135542D01*
X0142410Y0135401D01*
X0142466Y0135259D01*
X0142519Y0135115D01*
X0142568Y0134969D01*
X0142613Y0134823D01*
X0142654Y0134675D01*
X0142691Y0134527D01*
X0142725Y0134377D01*
X0142755Y0134226D01*
X0142780Y0134075D01*
X0142802Y0133924D01*
X0142820Y0133771D01*
X0142834Y0133619D01*
X0142844Y0133466D01*
X0142850Y0133312D01*
X0142852Y0133159D01*
X0142850Y0133006D01*
X0142844Y0132852D01*
X0142834Y0132699D01*
X0142820Y0132547D01*
X0142802Y0132394D01*
X0142780Y0132243D01*
X0142755Y0132092D01*
X0142725Y0131941D01*
X0142691Y0131791D01*
X0142654Y0131643D01*
X0142613Y0131495D01*
X0142568Y0131349D01*
X0142519Y0131203D01*
X0142466Y0131059D01*
X0142410Y0130917D01*
X0142350Y0130776D01*
X0142286Y0130636D01*
X0142219Y0130498D01*
X0142148Y0130362D01*
X0142073Y0130228D01*
X0141996Y0130096D01*
X0141914Y0129966D01*
X0141830Y0129838D01*
X0141742Y0129712D01*
X0141651Y0129589D01*
X0141557Y0129468D01*
X0141459Y0129350D01*
X0141359Y0129234D01*
X0141255Y0129121D01*
X0141149Y0129010D01*
X0141040Y0128902D01*
X0140928Y0128797D01*
X0140814Y0128696D01*
X0140696Y0128597D01*
X0140577Y0128501D01*
X0140455Y0128408D01*
X0140330Y0128319D01*
X0140203Y0128232D01*
X0140074Y0128150D01*
X0139943Y0128070D01*
X0139810Y0127994D01*
X0139675Y0127921D01*
X0139538Y0127852D01*
X0139399Y0127787D01*
X0139259Y0127725D01*
X0139117Y0127667D01*
X0138974Y0127612D01*
X0138829Y0127561D01*
X0138683Y0127514D01*
X0138536Y0127471D01*
X0138388Y0127432D01*
X0138239Y0127396D01*
X0138089Y0127365D01*
X0137938Y0127337D01*
X0137787Y0127313D01*
X0137634Y0127293D01*
X0137482Y0127277D01*
X0137329Y0127265D01*
X0137176Y0127257D01*
X0137023Y0127253D01*
X0136869Y0127253D01*
X0136716Y0127257D01*
X0136563Y0127265D01*
X0136410Y0127277D01*
X0136258Y0127293D01*
X0136105Y0127313D01*
X0135954Y0127337D01*
X0135803Y0127365D01*
X0135653Y0127396D01*
X0135504Y0127432D01*
X0135356Y0127471D01*
X0135209Y0127514D01*
X0135063Y0127561D01*
X0134918Y0127612D01*
X0134775Y0127667D01*
X0134633Y0127725D01*
X0134493Y0127787D01*
X0134354Y0127852D01*
X0134217Y0127921D01*
X0134082Y0127994D01*
X0133949Y0128070D01*
X0133818Y0128150D01*
X0133689Y0128232D01*
X0133562Y0128319D01*
X0133437Y0128408D01*
X0133315Y0128501D01*
X0133196Y0128597D01*
X0133078Y0128696D01*
X0132964Y0128797D01*
X0132852Y0128902D01*
X0132743Y0129010D01*
X0132637Y0129121D01*
X0132533Y0129234D01*
X0132433Y0129350D01*
X0132335Y0129468D01*
X0132241Y0129589D01*
X0132150Y0129712D01*
X0132062Y0129838D01*
X0131978Y0129966D01*
X0131896Y0130096D01*
X0131819Y0130228D01*
X0131744Y0130362D01*
X0131673Y0130498D01*
X0131606Y0130636D01*
X0131542Y0130776D01*
X0131482Y0130917D01*
X0131426Y0131059D01*
X0131373Y0131203D01*
X0131324Y0131349D01*
X0131279Y0131495D01*
X0131238Y0131643D01*
X0131201Y0131791D01*
X0131167Y0131941D01*
X0131137Y0132092D01*
X0131112Y0132243D01*
X0131090Y0132394D01*
X0131072Y0132547D01*
X0131058Y0132699D01*
X0131048Y0132852D01*
X0131042Y0133006D01*
X0131040Y0133159D01*
X0136946Y0143986D02*
X0137208Y0143983D01*
X0137469Y0143973D01*
X0137730Y0143958D01*
X0137991Y0143935D01*
X0138251Y0143907D01*
X0138510Y0143872D01*
X0138769Y0143831D01*
X0139026Y0143784D01*
X0139282Y0143731D01*
X0139537Y0143671D01*
X0139790Y0143606D01*
X0140042Y0143534D01*
X0140292Y0143456D01*
X0140540Y0143372D01*
X0140785Y0143282D01*
X0141029Y0143187D01*
X0141270Y0143085D01*
X0141509Y0142978D01*
X0141744Y0142865D01*
X0141978Y0142746D01*
X0142208Y0142621D01*
X0142435Y0142492D01*
X0142659Y0142356D01*
X0142879Y0142215D01*
X0143096Y0142069D01*
X0143310Y0141918D01*
X0143520Y0141762D01*
X0143726Y0141601D01*
X0143928Y0141434D01*
X0144126Y0141263D01*
X0144319Y0141087D01*
X0144509Y0140907D01*
X0144694Y0140722D01*
X0144874Y0140532D01*
X0145050Y0140339D01*
X0145221Y0140141D01*
X0145388Y0139939D01*
X0145549Y0139733D01*
X0145705Y0139523D01*
X0145856Y0139309D01*
X0146002Y0139092D01*
X0146143Y0138872D01*
X0146279Y0138648D01*
X0146408Y0138421D01*
X0146533Y0138191D01*
X0146652Y0137957D01*
X0146765Y0137722D01*
X0146872Y0137483D01*
X0146974Y0137242D01*
X0147069Y0136998D01*
X0147159Y0136753D01*
X0147243Y0136505D01*
X0147321Y0136255D01*
X0147393Y0136003D01*
X0147458Y0135750D01*
X0147518Y0135495D01*
X0147571Y0135239D01*
X0147618Y0134982D01*
X0147659Y0134723D01*
X0147694Y0134464D01*
X0147722Y0134204D01*
X0147745Y0133943D01*
X0147760Y0133682D01*
X0147770Y0133421D01*
X0147773Y0133159D01*
X0147772Y0133159D02*
X0147772Y0013081D01*
X0131040Y0013081D02*
X0131042Y0013234D01*
X0131048Y0013388D01*
X0131058Y0013541D01*
X0131072Y0013693D01*
X0131090Y0013846D01*
X0131112Y0013997D01*
X0131137Y0014148D01*
X0131167Y0014299D01*
X0131201Y0014449D01*
X0131238Y0014597D01*
X0131279Y0014745D01*
X0131324Y0014891D01*
X0131373Y0015037D01*
X0131426Y0015181D01*
X0131482Y0015323D01*
X0131542Y0015464D01*
X0131606Y0015604D01*
X0131673Y0015742D01*
X0131744Y0015878D01*
X0131819Y0016012D01*
X0131896Y0016144D01*
X0131978Y0016274D01*
X0132062Y0016402D01*
X0132150Y0016528D01*
X0132241Y0016651D01*
X0132335Y0016772D01*
X0132433Y0016890D01*
X0132533Y0017006D01*
X0132637Y0017119D01*
X0132743Y0017230D01*
X0132852Y0017338D01*
X0132964Y0017443D01*
X0133078Y0017544D01*
X0133196Y0017643D01*
X0133315Y0017739D01*
X0133437Y0017832D01*
X0133562Y0017921D01*
X0133689Y0018008D01*
X0133818Y0018090D01*
X0133949Y0018170D01*
X0134082Y0018246D01*
X0134217Y0018319D01*
X0134354Y0018388D01*
X0134493Y0018453D01*
X0134633Y0018515D01*
X0134775Y0018573D01*
X0134918Y0018628D01*
X0135063Y0018679D01*
X0135209Y0018726D01*
X0135356Y0018769D01*
X0135504Y0018808D01*
X0135653Y0018844D01*
X0135803Y0018875D01*
X0135954Y0018903D01*
X0136105Y0018927D01*
X0136258Y0018947D01*
X0136410Y0018963D01*
X0136563Y0018975D01*
X0136716Y0018983D01*
X0136869Y0018987D01*
X0137023Y0018987D01*
X0137176Y0018983D01*
X0137329Y0018975D01*
X0137482Y0018963D01*
X0137634Y0018947D01*
X0137787Y0018927D01*
X0137938Y0018903D01*
X0138089Y0018875D01*
X0138239Y0018844D01*
X0138388Y0018808D01*
X0138536Y0018769D01*
X0138683Y0018726D01*
X0138829Y0018679D01*
X0138974Y0018628D01*
X0139117Y0018573D01*
X0139259Y0018515D01*
X0139399Y0018453D01*
X0139538Y0018388D01*
X0139675Y0018319D01*
X0139810Y0018246D01*
X0139943Y0018170D01*
X0140074Y0018090D01*
X0140203Y0018008D01*
X0140330Y0017921D01*
X0140455Y0017832D01*
X0140577Y0017739D01*
X0140696Y0017643D01*
X0140814Y0017544D01*
X0140928Y0017443D01*
X0141040Y0017338D01*
X0141149Y0017230D01*
X0141255Y0017119D01*
X0141359Y0017006D01*
X0141459Y0016890D01*
X0141557Y0016772D01*
X0141651Y0016651D01*
X0141742Y0016528D01*
X0141830Y0016402D01*
X0141914Y0016274D01*
X0141996Y0016144D01*
X0142073Y0016012D01*
X0142148Y0015878D01*
X0142219Y0015742D01*
X0142286Y0015604D01*
X0142350Y0015464D01*
X0142410Y0015323D01*
X0142466Y0015181D01*
X0142519Y0015037D01*
X0142568Y0014891D01*
X0142613Y0014745D01*
X0142654Y0014597D01*
X0142691Y0014449D01*
X0142725Y0014299D01*
X0142755Y0014148D01*
X0142780Y0013997D01*
X0142802Y0013846D01*
X0142820Y0013693D01*
X0142834Y0013541D01*
X0142844Y0013388D01*
X0142850Y0013234D01*
X0142852Y0013081D01*
X0142850Y0012928D01*
X0142844Y0012774D01*
X0142834Y0012621D01*
X0142820Y0012469D01*
X0142802Y0012316D01*
X0142780Y0012165D01*
X0142755Y0012014D01*
X0142725Y0011863D01*
X0142691Y0011713D01*
X0142654Y0011565D01*
X0142613Y0011417D01*
X0142568Y0011271D01*
X0142519Y0011125D01*
X0142466Y0010981D01*
X0142410Y0010839D01*
X0142350Y0010698D01*
X0142286Y0010558D01*
X0142219Y0010420D01*
X0142148Y0010284D01*
X0142073Y0010150D01*
X0141996Y0010018D01*
X0141914Y0009888D01*
X0141830Y0009760D01*
X0141742Y0009634D01*
X0141651Y0009511D01*
X0141557Y0009390D01*
X0141459Y0009272D01*
X0141359Y0009156D01*
X0141255Y0009043D01*
X0141149Y0008932D01*
X0141040Y0008824D01*
X0140928Y0008719D01*
X0140814Y0008618D01*
X0140696Y0008519D01*
X0140577Y0008423D01*
X0140455Y0008330D01*
X0140330Y0008241D01*
X0140203Y0008154D01*
X0140074Y0008072D01*
X0139943Y0007992D01*
X0139810Y0007916D01*
X0139675Y0007843D01*
X0139538Y0007774D01*
X0139399Y0007709D01*
X0139259Y0007647D01*
X0139117Y0007589D01*
X0138974Y0007534D01*
X0138829Y0007483D01*
X0138683Y0007436D01*
X0138536Y0007393D01*
X0138388Y0007354D01*
X0138239Y0007318D01*
X0138089Y0007287D01*
X0137938Y0007259D01*
X0137787Y0007235D01*
X0137634Y0007215D01*
X0137482Y0007199D01*
X0137329Y0007187D01*
X0137176Y0007179D01*
X0137023Y0007175D01*
X0136869Y0007175D01*
X0136716Y0007179D01*
X0136563Y0007187D01*
X0136410Y0007199D01*
X0136258Y0007215D01*
X0136105Y0007235D01*
X0135954Y0007259D01*
X0135803Y0007287D01*
X0135653Y0007318D01*
X0135504Y0007354D01*
X0135356Y0007393D01*
X0135209Y0007436D01*
X0135063Y0007483D01*
X0134918Y0007534D01*
X0134775Y0007589D01*
X0134633Y0007647D01*
X0134493Y0007709D01*
X0134354Y0007774D01*
X0134217Y0007843D01*
X0134082Y0007916D01*
X0133949Y0007992D01*
X0133818Y0008072D01*
X0133689Y0008154D01*
X0133562Y0008241D01*
X0133437Y0008330D01*
X0133315Y0008423D01*
X0133196Y0008519D01*
X0133078Y0008618D01*
X0132964Y0008719D01*
X0132852Y0008824D01*
X0132743Y0008932D01*
X0132637Y0009043D01*
X0132533Y0009156D01*
X0132433Y0009272D01*
X0132335Y0009390D01*
X0132241Y0009511D01*
X0132150Y0009634D01*
X0132062Y0009760D01*
X0131978Y0009888D01*
X0131896Y0010018D01*
X0131819Y0010150D01*
X0131744Y0010284D01*
X0131673Y0010420D01*
X0131606Y0010558D01*
X0131542Y0010698D01*
X0131482Y0010839D01*
X0131426Y0010981D01*
X0131373Y0011125D01*
X0131324Y0011271D01*
X0131279Y0011417D01*
X0131238Y0011565D01*
X0131201Y0011713D01*
X0131167Y0011863D01*
X0131137Y0012014D01*
X0131112Y0012165D01*
X0131090Y0012316D01*
X0131072Y0012469D01*
X0131058Y0012621D01*
X0131048Y0012774D01*
X0131042Y0012928D01*
X0131040Y0013081D01*
X0136946Y0002254D02*
X0137208Y0002257D01*
X0137469Y0002267D01*
X0137730Y0002282D01*
X0137991Y0002305D01*
X0138251Y0002333D01*
X0138510Y0002368D01*
X0138769Y0002409D01*
X0139026Y0002456D01*
X0139282Y0002509D01*
X0139537Y0002569D01*
X0139790Y0002634D01*
X0140042Y0002706D01*
X0140292Y0002784D01*
X0140540Y0002868D01*
X0140785Y0002958D01*
X0141029Y0003053D01*
X0141270Y0003155D01*
X0141509Y0003262D01*
X0141744Y0003375D01*
X0141978Y0003494D01*
X0142208Y0003619D01*
X0142435Y0003748D01*
X0142659Y0003884D01*
X0142879Y0004025D01*
X0143096Y0004171D01*
X0143310Y0004322D01*
X0143520Y0004478D01*
X0143726Y0004639D01*
X0143928Y0004806D01*
X0144126Y0004977D01*
X0144319Y0005153D01*
X0144509Y0005333D01*
X0144694Y0005518D01*
X0144874Y0005708D01*
X0145050Y0005901D01*
X0145221Y0006099D01*
X0145388Y0006301D01*
X0145549Y0006507D01*
X0145705Y0006717D01*
X0145856Y0006931D01*
X0146002Y0007148D01*
X0146143Y0007368D01*
X0146279Y0007592D01*
X0146408Y0007819D01*
X0146533Y0008049D01*
X0146652Y0008283D01*
X0146765Y0008518D01*
X0146872Y0008757D01*
X0146974Y0008998D01*
X0147069Y0009242D01*
X0147159Y0009487D01*
X0147243Y0009735D01*
X0147321Y0009985D01*
X0147393Y0010237D01*
X0147458Y0010490D01*
X0147518Y0010745D01*
X0147571Y0011001D01*
X0147618Y0011258D01*
X0147659Y0011517D01*
X0147694Y0011776D01*
X0147722Y0012036D01*
X0147745Y0012297D01*
X0147760Y0012558D01*
X0147770Y0012819D01*
X0147773Y0013081D01*
X0136946Y0002254D02*
X0016867Y0002254D01*
X0010961Y0013081D02*
X0010963Y0013234D01*
X0010969Y0013388D01*
X0010979Y0013541D01*
X0010993Y0013693D01*
X0011011Y0013846D01*
X0011033Y0013997D01*
X0011058Y0014148D01*
X0011088Y0014299D01*
X0011122Y0014449D01*
X0011159Y0014597D01*
X0011200Y0014745D01*
X0011245Y0014891D01*
X0011294Y0015037D01*
X0011347Y0015181D01*
X0011403Y0015323D01*
X0011463Y0015464D01*
X0011527Y0015604D01*
X0011594Y0015742D01*
X0011665Y0015878D01*
X0011740Y0016012D01*
X0011817Y0016144D01*
X0011899Y0016274D01*
X0011983Y0016402D01*
X0012071Y0016528D01*
X0012162Y0016651D01*
X0012256Y0016772D01*
X0012354Y0016890D01*
X0012454Y0017006D01*
X0012558Y0017119D01*
X0012664Y0017230D01*
X0012773Y0017338D01*
X0012885Y0017443D01*
X0012999Y0017544D01*
X0013117Y0017643D01*
X0013236Y0017739D01*
X0013358Y0017832D01*
X0013483Y0017921D01*
X0013610Y0018008D01*
X0013739Y0018090D01*
X0013870Y0018170D01*
X0014003Y0018246D01*
X0014138Y0018319D01*
X0014275Y0018388D01*
X0014414Y0018453D01*
X0014554Y0018515D01*
X0014696Y0018573D01*
X0014839Y0018628D01*
X0014984Y0018679D01*
X0015130Y0018726D01*
X0015277Y0018769D01*
X0015425Y0018808D01*
X0015574Y0018844D01*
X0015724Y0018875D01*
X0015875Y0018903D01*
X0016026Y0018927D01*
X0016179Y0018947D01*
X0016331Y0018963D01*
X0016484Y0018975D01*
X0016637Y0018983D01*
X0016790Y0018987D01*
X0016944Y0018987D01*
X0017097Y0018983D01*
X0017250Y0018975D01*
X0017403Y0018963D01*
X0017555Y0018947D01*
X0017708Y0018927D01*
X0017859Y0018903D01*
X0018010Y0018875D01*
X0018160Y0018844D01*
X0018309Y0018808D01*
X0018457Y0018769D01*
X0018604Y0018726D01*
X0018750Y0018679D01*
X0018895Y0018628D01*
X0019038Y0018573D01*
X0019180Y0018515D01*
X0019320Y0018453D01*
X0019459Y0018388D01*
X0019596Y0018319D01*
X0019731Y0018246D01*
X0019864Y0018170D01*
X0019995Y0018090D01*
X0020124Y0018008D01*
X0020251Y0017921D01*
X0020376Y0017832D01*
X0020498Y0017739D01*
X0020617Y0017643D01*
X0020735Y0017544D01*
X0020849Y0017443D01*
X0020961Y0017338D01*
X0021070Y0017230D01*
X0021176Y0017119D01*
X0021280Y0017006D01*
X0021380Y0016890D01*
X0021478Y0016772D01*
X0021572Y0016651D01*
X0021663Y0016528D01*
X0021751Y0016402D01*
X0021835Y0016274D01*
X0021917Y0016144D01*
X0021994Y0016012D01*
X0022069Y0015878D01*
X0022140Y0015742D01*
X0022207Y0015604D01*
X0022271Y0015464D01*
X0022331Y0015323D01*
X0022387Y0015181D01*
X0022440Y0015037D01*
X0022489Y0014891D01*
X0022534Y0014745D01*
X0022575Y0014597D01*
X0022612Y0014449D01*
X0022646Y0014299D01*
X0022676Y0014148D01*
X0022701Y0013997D01*
X0022723Y0013846D01*
X0022741Y0013693D01*
X0022755Y0013541D01*
X0022765Y0013388D01*
X0022771Y0013234D01*
X0022773Y0013081D01*
X0022771Y0012928D01*
X0022765Y0012774D01*
X0022755Y0012621D01*
X0022741Y0012469D01*
X0022723Y0012316D01*
X0022701Y0012165D01*
X0022676Y0012014D01*
X0022646Y0011863D01*
X0022612Y0011713D01*
X0022575Y0011565D01*
X0022534Y0011417D01*
X0022489Y0011271D01*
X0022440Y0011125D01*
X0022387Y0010981D01*
X0022331Y0010839D01*
X0022271Y0010698D01*
X0022207Y0010558D01*
X0022140Y0010420D01*
X0022069Y0010284D01*
X0021994Y0010150D01*
X0021917Y0010018D01*
X0021835Y0009888D01*
X0021751Y0009760D01*
X0021663Y0009634D01*
X0021572Y0009511D01*
X0021478Y0009390D01*
X0021380Y0009272D01*
X0021280Y0009156D01*
X0021176Y0009043D01*
X0021070Y0008932D01*
X0020961Y0008824D01*
X0020849Y0008719D01*
X0020735Y0008618D01*
X0020617Y0008519D01*
X0020498Y0008423D01*
X0020376Y0008330D01*
X0020251Y0008241D01*
X0020124Y0008154D01*
X0019995Y0008072D01*
X0019864Y0007992D01*
X0019731Y0007916D01*
X0019596Y0007843D01*
X0019459Y0007774D01*
X0019320Y0007709D01*
X0019180Y0007647D01*
X0019038Y0007589D01*
X0018895Y0007534D01*
X0018750Y0007483D01*
X0018604Y0007436D01*
X0018457Y0007393D01*
X0018309Y0007354D01*
X0018160Y0007318D01*
X0018010Y0007287D01*
X0017859Y0007259D01*
X0017708Y0007235D01*
X0017555Y0007215D01*
X0017403Y0007199D01*
X0017250Y0007187D01*
X0017097Y0007179D01*
X0016944Y0007175D01*
X0016790Y0007175D01*
X0016637Y0007179D01*
X0016484Y0007187D01*
X0016331Y0007199D01*
X0016179Y0007215D01*
X0016026Y0007235D01*
X0015875Y0007259D01*
X0015724Y0007287D01*
X0015574Y0007318D01*
X0015425Y0007354D01*
X0015277Y0007393D01*
X0015130Y0007436D01*
X0014984Y0007483D01*
X0014839Y0007534D01*
X0014696Y0007589D01*
X0014554Y0007647D01*
X0014414Y0007709D01*
X0014275Y0007774D01*
X0014138Y0007843D01*
X0014003Y0007916D01*
X0013870Y0007992D01*
X0013739Y0008072D01*
X0013610Y0008154D01*
X0013483Y0008241D01*
X0013358Y0008330D01*
X0013236Y0008423D01*
X0013117Y0008519D01*
X0012999Y0008618D01*
X0012885Y0008719D01*
X0012773Y0008824D01*
X0012664Y0008932D01*
X0012558Y0009043D01*
X0012454Y0009156D01*
X0012354Y0009272D01*
X0012256Y0009390D01*
X0012162Y0009511D01*
X0012071Y0009634D01*
X0011983Y0009760D01*
X0011899Y0009888D01*
X0011817Y0010018D01*
X0011740Y0010150D01*
X0011665Y0010284D01*
X0011594Y0010420D01*
X0011527Y0010558D01*
X0011463Y0010698D01*
X0011403Y0010839D01*
X0011347Y0010981D01*
X0011294Y0011125D01*
X0011245Y0011271D01*
X0011200Y0011417D01*
X0011159Y0011565D01*
X0011122Y0011713D01*
X0011088Y0011863D01*
X0011058Y0012014D01*
X0011033Y0012165D01*
X0011011Y0012316D01*
X0010993Y0012469D01*
X0010979Y0012621D01*
X0010969Y0012774D01*
X0010963Y0012928D01*
X0010961Y0013081D01*
X0006040Y0013081D02*
X0006043Y0012819D01*
X0006053Y0012558D01*
X0006068Y0012297D01*
X0006091Y0012036D01*
X0006119Y0011776D01*
X0006154Y0011517D01*
X0006195Y0011258D01*
X0006242Y0011001D01*
X0006295Y0010745D01*
X0006355Y0010490D01*
X0006420Y0010237D01*
X0006492Y0009985D01*
X0006570Y0009735D01*
X0006654Y0009487D01*
X0006744Y0009242D01*
X0006839Y0008998D01*
X0006941Y0008757D01*
X0007048Y0008518D01*
X0007161Y0008283D01*
X0007280Y0008049D01*
X0007405Y0007819D01*
X0007534Y0007592D01*
X0007670Y0007368D01*
X0007811Y0007148D01*
X0007957Y0006931D01*
X0008108Y0006717D01*
X0008264Y0006507D01*
X0008425Y0006301D01*
X0008592Y0006099D01*
X0008763Y0005901D01*
X0008939Y0005708D01*
X0009119Y0005518D01*
X0009304Y0005333D01*
X0009494Y0005153D01*
X0009687Y0004977D01*
X0009885Y0004806D01*
X0010087Y0004639D01*
X0010293Y0004478D01*
X0010503Y0004322D01*
X0010717Y0004171D01*
X0010934Y0004025D01*
X0011154Y0003884D01*
X0011378Y0003748D01*
X0011605Y0003619D01*
X0011835Y0003494D01*
X0012069Y0003375D01*
X0012304Y0003262D01*
X0012543Y0003155D01*
X0012784Y0003053D01*
X0013028Y0002958D01*
X0013273Y0002868D01*
X0013521Y0002784D01*
X0013771Y0002706D01*
X0014023Y0002634D01*
X0014276Y0002569D01*
X0014531Y0002509D01*
X0014787Y0002456D01*
X0015044Y0002409D01*
X0015303Y0002368D01*
X0015562Y0002333D01*
X0015822Y0002305D01*
X0016083Y0002282D01*
X0016344Y0002267D01*
X0016605Y0002257D01*
X0016867Y0002254D01*
D11*
X0113909Y0044943D03*
X0113909Y0063943D03*
D12*
X0111209Y0082254D03*
X0116609Y0082254D03*
D13*
X0039173Y0126004D03*
X0039173Y0136004D03*
X0022290Y0116004D03*
X0012290Y0116004D03*
X0012290Y0106004D03*
X0022290Y0106004D03*
D14*
X0051790Y0066654D03*
X0057790Y0066654D03*
D15*
X0065388Y0077628D03*
X0065388Y0081803D03*
X0065388Y0085978D03*
X0065388Y0090154D03*
X0065388Y0094329D03*
X0061638Y0092254D03*
X0057290Y0016004D03*
X0053540Y0016004D03*
X0049790Y0016004D03*
X0046040Y0016004D03*
X0042290Y0016004D03*
D16*
X0012674Y0028278D02*
X0009918Y0028278D01*
X0009856Y0028280D01*
X0009795Y0028286D01*
X0009734Y0028295D01*
X0009673Y0028309D01*
X0009614Y0028326D01*
X0009556Y0028347D01*
X0009499Y0028372D01*
X0009444Y0028400D01*
X0009391Y0028431D01*
X0009340Y0028466D01*
X0009291Y0028504D01*
X0009244Y0028545D01*
X0009201Y0028588D01*
X0009160Y0028635D01*
X0009122Y0028684D01*
X0009087Y0028735D01*
X0009056Y0028788D01*
X0009028Y0028843D01*
X0009003Y0028900D01*
X0008982Y0028958D01*
X0008965Y0029017D01*
X0008951Y0029078D01*
X0008942Y0029139D01*
X0008936Y0029200D01*
X0008934Y0029262D01*
X0008936Y0029324D01*
X0008942Y0029385D01*
X0008951Y0029446D01*
X0008965Y0029507D01*
X0008982Y0029566D01*
X0009003Y0029624D01*
X0009028Y0029681D01*
X0009056Y0029736D01*
X0009087Y0029789D01*
X0009122Y0029840D01*
X0009160Y0029889D01*
X0009201Y0029936D01*
X0009244Y0029979D01*
X0009291Y0030020D01*
X0009340Y0030058D01*
X0009391Y0030093D01*
X0009444Y0030124D01*
X0009499Y0030152D01*
X0009556Y0030177D01*
X0009614Y0030198D01*
X0009673Y0030215D01*
X0009734Y0030229D01*
X0009795Y0030238D01*
X0009856Y0030244D01*
X0009918Y0030246D01*
X0012674Y0030246D01*
X0012736Y0030244D01*
X0012797Y0030238D01*
X0012858Y0030229D01*
X0012919Y0030215D01*
X0012978Y0030198D01*
X0013036Y0030177D01*
X0013093Y0030152D01*
X0013148Y0030124D01*
X0013201Y0030093D01*
X0013252Y0030058D01*
X0013301Y0030020D01*
X0013348Y0029979D01*
X0013391Y0029936D01*
X0013432Y0029889D01*
X0013470Y0029840D01*
X0013505Y0029789D01*
X0013536Y0029736D01*
X0013564Y0029681D01*
X0013589Y0029624D01*
X0013610Y0029566D01*
X0013627Y0029507D01*
X0013641Y0029446D01*
X0013650Y0029385D01*
X0013656Y0029324D01*
X0013658Y0029262D01*
X0013656Y0029200D01*
X0013650Y0029139D01*
X0013641Y0029078D01*
X0013627Y0029017D01*
X0013610Y0028958D01*
X0013589Y0028900D01*
X0013564Y0028843D01*
X0013536Y0028788D01*
X0013505Y0028735D01*
X0013470Y0028684D01*
X0013432Y0028635D01*
X0013391Y0028588D01*
X0013348Y0028545D01*
X0013301Y0028504D01*
X0013252Y0028466D01*
X0013201Y0028431D01*
X0013148Y0028400D01*
X0013093Y0028372D01*
X0013036Y0028347D01*
X0012978Y0028326D01*
X0012919Y0028309D01*
X0012858Y0028295D01*
X0012797Y0028286D01*
X0012736Y0028280D01*
X0012674Y0028278D01*
X0012674Y0054262D02*
X0009918Y0054262D01*
X0009856Y0054264D01*
X0009795Y0054270D01*
X0009734Y0054279D01*
X0009673Y0054293D01*
X0009614Y0054310D01*
X0009556Y0054331D01*
X0009499Y0054356D01*
X0009444Y0054384D01*
X0009391Y0054415D01*
X0009340Y0054450D01*
X0009291Y0054488D01*
X0009244Y0054529D01*
X0009201Y0054572D01*
X0009160Y0054619D01*
X0009122Y0054668D01*
X0009087Y0054719D01*
X0009056Y0054772D01*
X0009028Y0054827D01*
X0009003Y0054884D01*
X0008982Y0054942D01*
X0008965Y0055001D01*
X0008951Y0055062D01*
X0008942Y0055123D01*
X0008936Y0055184D01*
X0008934Y0055246D01*
X0008936Y0055308D01*
X0008942Y0055369D01*
X0008951Y0055430D01*
X0008965Y0055491D01*
X0008982Y0055550D01*
X0009003Y0055608D01*
X0009028Y0055665D01*
X0009056Y0055720D01*
X0009087Y0055773D01*
X0009122Y0055824D01*
X0009160Y0055873D01*
X0009201Y0055920D01*
X0009244Y0055963D01*
X0009291Y0056004D01*
X0009340Y0056042D01*
X0009391Y0056077D01*
X0009444Y0056108D01*
X0009499Y0056136D01*
X0009556Y0056161D01*
X0009614Y0056182D01*
X0009673Y0056199D01*
X0009734Y0056213D01*
X0009795Y0056222D01*
X0009856Y0056228D01*
X0009918Y0056230D01*
X0012674Y0056230D01*
X0012736Y0056228D01*
X0012797Y0056222D01*
X0012858Y0056213D01*
X0012919Y0056199D01*
X0012978Y0056182D01*
X0013036Y0056161D01*
X0013093Y0056136D01*
X0013148Y0056108D01*
X0013201Y0056077D01*
X0013252Y0056042D01*
X0013301Y0056004D01*
X0013348Y0055963D01*
X0013391Y0055920D01*
X0013432Y0055873D01*
X0013470Y0055824D01*
X0013505Y0055773D01*
X0013536Y0055720D01*
X0013564Y0055665D01*
X0013589Y0055608D01*
X0013610Y0055550D01*
X0013627Y0055491D01*
X0013641Y0055430D01*
X0013650Y0055369D01*
X0013656Y0055308D01*
X0013658Y0055246D01*
X0013656Y0055184D01*
X0013650Y0055123D01*
X0013641Y0055062D01*
X0013627Y0055001D01*
X0013610Y0054942D01*
X0013589Y0054884D01*
X0013564Y0054827D01*
X0013536Y0054772D01*
X0013505Y0054719D01*
X0013470Y0054668D01*
X0013432Y0054619D01*
X0013391Y0054572D01*
X0013348Y0054529D01*
X0013301Y0054488D01*
X0013252Y0054450D01*
X0013201Y0054415D01*
X0013148Y0054384D01*
X0013093Y0054356D01*
X0013036Y0054331D01*
X0012978Y0054310D01*
X0012919Y0054293D01*
X0012858Y0054279D01*
X0012797Y0054270D01*
X0012736Y0054264D01*
X0012674Y0054262D01*
D17*
X0012674Y0055246D02*
X0012674Y0055246D01*
X0009918Y0055246D01*
X0009918Y0055246D01*
X0012674Y0055246D01*
X0012674Y0029262D02*
X0012674Y0029262D01*
X0009918Y0029262D01*
X0009918Y0029262D01*
X0012674Y0029262D01*
D18*
X0024132Y0026376D02*
X0024132Y0039808D01*
X0025228Y0040904D01*
X0026599Y0040356D02*
X0026599Y0039259D01*
X0027421Y0038437D01*
X0072376Y0038437D01*
X0081421Y0047483D01*
X0111300Y0047483D01*
X0111574Y0047209D01*
X0126102Y0061737D01*
X0126102Y0062833D01*
X0121716Y0067219D01*
X0094853Y0067219D01*
X0097868Y0062285D02*
X0083066Y0077087D01*
X0083614Y0079554D02*
X0114041Y0079554D01*
X0116508Y0082021D01*
X0116609Y0082254D01*
X0117604Y0085036D02*
X0128295Y0074346D01*
X0128295Y0050498D01*
X0103351Y0025554D01*
X0108285Y0025828D02*
X0109107Y0026650D01*
X0112945Y0026650D01*
X0132133Y0045838D01*
X0132133Y0075442D01*
X0121442Y0086133D01*
X0121442Y0102306D01*
X0120346Y0099290D02*
X0120346Y0085585D01*
X0130762Y0075168D01*
X0130762Y0053239D01*
X0134051Y0046112D02*
X0113219Y0025280D01*
X0115686Y0031310D02*
X0129391Y0045016D01*
X0129391Y0074894D01*
X0119249Y0085036D01*
X0119249Y0098742D01*
X0097320Y0120671D01*
X0081970Y0120671D01*
X0084163Y0122042D02*
X0088548Y0126428D01*
X0099239Y0126428D01*
X0134051Y0091615D01*
X0134051Y0046112D01*
X0113909Y0044943D02*
X0113767Y0045016D01*
X0111574Y0047209D01*
X0100609Y0046112D02*
X0094305Y0046112D01*
X0057025Y0008833D01*
X0053462Y0008833D01*
X0046335Y0015960D01*
X0046040Y0016004D01*
X0046609Y0016234D01*
X0046609Y0022812D01*
X0046040Y0016004D02*
X0045787Y0015960D01*
X0043868Y0014041D01*
X0042290Y0016004D02*
X0042223Y0016234D01*
X0036193Y0016234D01*
X0035918Y0014863D02*
X0035644Y0014863D01*
X0024132Y0026376D01*
X0035918Y0014863D02*
X0038111Y0012670D01*
X0049790Y0016004D02*
X0049898Y0015960D01*
X0050721Y0015960D01*
X0052914Y0018153D01*
X0053736Y0018153D01*
X0079777Y0044193D01*
X0082518Y0044193D01*
X0082518Y0049127D02*
X0056751Y0049127D01*
X0038660Y0067219D01*
X0038660Y0092712D01*
X0040304Y0094356D01*
X0050721Y0094356D01*
X0050721Y0083940D01*
X0053462Y0081199D01*
X0053462Y0071331D01*
X0053188Y0071057D01*
X0049350Y0071057D01*
X0047979Y0069686D01*
X0051790Y0066654D02*
X0051817Y0066397D01*
X0048254Y0062833D01*
X0054832Y0062559D02*
X0086630Y0062559D01*
X0087726Y0061463D01*
X0087726Y0060092D01*
X0086355Y0060914D02*
X0072102Y0060914D01*
X0069360Y0058173D01*
X0064700Y0058173D01*
X0064426Y0057899D01*
X0064426Y0053239D01*
X0063056Y0052691D02*
X0063056Y0053787D01*
X0056203Y0060640D01*
X0054558Y0054610D02*
X0060315Y0054610D01*
X0063056Y0052691D02*
X0064152Y0051594D01*
X0065797Y0051594D01*
X0065797Y0047757D02*
X0035918Y0047757D01*
X0027969Y0039808D01*
X0026599Y0040356D02*
X0031533Y0045290D01*
X0031533Y0080925D01*
X0039756Y0080925D02*
X0039756Y0067767D01*
X0057299Y0050224D01*
X0081970Y0050224D01*
X0089371Y0057625D01*
X0088000Y0051594D02*
X0087726Y0051320D01*
X0084711Y0051320D01*
X0082518Y0049127D01*
X0078680Y0052417D02*
X0072102Y0058996D01*
X0071279Y0067219D02*
X0066893Y0067219D01*
X0065249Y0067493D02*
X0065249Y0077361D01*
X0065388Y0077628D01*
X0065249Y0081747D02*
X0060589Y0081747D01*
X0060315Y0082021D01*
X0056477Y0082021D01*
X0053736Y0084762D01*
X0053736Y0110803D01*
X0057848Y0117930D02*
X0057025Y0118752D01*
X0057025Y0119849D01*
X0059218Y0122042D01*
X0084163Y0122042D01*
X0083888Y0126428D02*
X0086904Y0126428D01*
X0088000Y0127524D01*
X0100061Y0127524D01*
X0133503Y0094082D01*
X0120346Y0099290D02*
X0094579Y0125057D01*
X0089097Y0125057D01*
X0097046Y0119301D02*
X0058396Y0119301D01*
X0057848Y0117930D02*
X0080325Y0117930D01*
X0081970Y0116285D01*
X0096224Y0108062D02*
X0086355Y0098194D01*
X0058122Y0098194D01*
X0060863Y0094356D02*
X0056203Y0089696D01*
X0056203Y0086133D01*
X0056751Y0085585D01*
X0056751Y0083666D02*
X0063056Y0089970D01*
X0065249Y0089970D01*
X0065388Y0090154D01*
X0065388Y0094329D02*
X0065249Y0094356D01*
X0060863Y0094356D01*
X0061638Y0092254D02*
X0061411Y0092163D01*
X0057573Y0088326D01*
X0060863Y0085859D02*
X0065249Y0085859D01*
X0065388Y0085978D01*
X0065388Y0081803D02*
X0065249Y0081747D01*
X0068264Y0068590D02*
X0071005Y0068590D01*
X0083066Y0080651D01*
X0109655Y0080651D01*
X0111026Y0082021D01*
X0111209Y0082254D01*
X0110203Y0085036D02*
X0117604Y0085036D01*
X0110203Y0085036D02*
X0106914Y0081747D01*
X0104721Y0081747D01*
X0088274Y0098194D01*
X0096224Y0108062D02*
X0100061Y0104224D01*
X0105269Y0105595D02*
X0107462Y0107788D01*
X0107462Y0108884D01*
X0097046Y0119301D01*
X0105269Y0105595D02*
X0105269Y0083118D01*
X0083614Y0079554D02*
X0071279Y0067219D01*
X0054558Y0054610D02*
X0041127Y0068041D01*
X0041127Y0080376D01*
X0039756Y0080925D02*
X0040852Y0082021D01*
X0040852Y0092986D01*
X0034548Y0097920D02*
X0034548Y0098194D01*
X0049350Y0098194D01*
X0050721Y0098742D02*
X0043594Y0105869D01*
X0022487Y0105869D01*
X0022290Y0106004D01*
X0020020Y0098194D02*
X0012345Y0105869D01*
X0012290Y0106004D01*
X0020020Y0098194D02*
X0034548Y0098194D01*
X0050721Y0098742D02*
X0050721Y0094356D01*
X0088000Y0051594D02*
X0092660Y0051594D01*
X0078680Y0040904D02*
X0054010Y0016234D01*
X0053540Y0016004D01*
X0053736Y0015960D01*
X0057848Y0011848D01*
X0056477Y0010203D02*
X0050721Y0015960D01*
X0057290Y0016004D02*
X0057299Y0016234D01*
X0062508Y0016234D01*
X0063330Y0017056D01*
D19*
X0063330Y0017056D03*
X0057848Y0011848D03*
X0056477Y0010203D03*
X0043868Y0014041D03*
X0038111Y0012670D03*
X0036193Y0016234D03*
X0046609Y0022812D03*
X0027969Y0039808D03*
X0025228Y0040904D03*
X0025776Y0037066D03*
X0025776Y0033503D03*
X0048254Y0062833D03*
X0054832Y0062559D03*
X0056203Y0060640D03*
X0060315Y0054610D03*
X0064426Y0053239D03*
X0065797Y0051594D03*
X0065797Y0047757D03*
X0064700Y0058173D03*
X0072102Y0058996D03*
X0078680Y0052417D03*
X0086355Y0060914D03*
X0087726Y0060092D03*
X0089645Y0059818D03*
X0089371Y0057625D03*
X0092386Y0057077D03*
X0092660Y0051594D03*
X0088000Y0051594D03*
X0082518Y0044193D03*
X0078680Y0040904D03*
X0097868Y0062285D03*
X0094853Y0067219D03*
X0083066Y0077087D03*
X0068264Y0068590D03*
X0066893Y0067219D03*
X0065249Y0067493D03*
X0053462Y0071331D03*
X0047979Y0069686D03*
X0041127Y0080376D03*
X0031533Y0080925D03*
X0040852Y0092986D03*
X0034548Y0097920D03*
X0049350Y0098194D03*
X0058122Y0098194D03*
X0057573Y0088326D03*
X0056751Y0085585D03*
X0056751Y0083666D03*
X0060589Y0081747D03*
X0060863Y0085859D03*
X0053736Y0110803D03*
X0049350Y0113818D03*
X0042771Y0112996D03*
X0058396Y0119301D03*
X0061959Y0123412D03*
X0079777Y0116285D03*
X0081970Y0116285D03*
X0081970Y0120671D03*
X0083888Y0126428D03*
X0089097Y0125057D03*
X0096224Y0108062D03*
X0100061Y0104224D03*
X0106092Y0108336D03*
X0121442Y0102306D03*
X0133503Y0094082D03*
X0105269Y0083118D03*
X0088274Y0098194D03*
X0124731Y0062285D03*
X0130762Y0053239D03*
X0115686Y0031310D03*
X0113219Y0025280D03*
X0108285Y0025828D03*
X0103351Y0025554D03*
X0100609Y0046112D03*
D20*
X0092386Y0057077D02*
X0089645Y0059818D01*
X0042771Y0112996D02*
X0042771Y0116011D01*
X0022487Y0116011D01*
X0022290Y0116004D01*
X0039208Y0125879D02*
X0039173Y0126004D01*
X0039208Y0125879D02*
X0042771Y0122316D01*
X0042771Y0116011D01*
X0025776Y0037066D02*
X0025776Y0033503D01*
D21*
X0057573Y0066671D02*
X0057790Y0066654D01*
X0058122Y0066397D01*
X0058944Y0065574D01*
X0086355Y0065574D01*
X0091290Y0060640D01*
X0115412Y0060640D01*
X0117056Y0062285D01*
X0124731Y0062285D01*
X0106092Y0108336D02*
X0098142Y0108336D01*
X0091838Y0114641D01*
X0081147Y0114641D01*
X0080051Y0115737D01*
X0079777Y0116285D01*
X0057299Y0116285D01*
X0054421Y0119164D01*
X0058670Y0123412D01*
X0061959Y0123412D01*
X0054421Y0119164D02*
X0049624Y0114367D01*
X0049350Y0113818D01*
X0049624Y0113270D01*
X0052091Y0110803D01*
X0052091Y0084488D01*
X0057573Y0079006D01*
X0057573Y0066671D01*
X0043320Y0111077D02*
X0017005Y0111077D01*
X0012345Y0115737D01*
X0012290Y0116004D01*
X0043320Y0111077D02*
X0046061Y0113818D01*
X0049350Y0113818D01*
M02*
