%
M48
M72
T01C0.0040
T02C0.0250
T03C0.0320
T04C0.0400
T05C0.1181
%
T01
X3619Y1623
X3811Y1267
X4387Y1404
X4661Y2281
X5785Y1185
X5648Y1020
X6333Y1706
X7868Y4090
X8252Y4419
X8800Y5159
X9266Y5159
X9239Y5708
X8937Y5763
X8964Y5982
X8773Y6009
X8636Y6091
X7868Y5242
X7210Y5900
X6470Y5817
X6031Y5461
X6443Y5324
X6580Y5159
X6580Y4776
X5620Y6064
X5483Y6256
X4825Y6283
X4798Y6969
X5346Y7133
X6059Y8175
X5675Y8367
X5675Y8558
X5757Y8833
X6086Y8586
X5812Y9819
X4935Y9819
X4085Y9299
X3455Y9792
X4277Y11300
X4935Y11382
X5374Y11080
X5840Y11930
X6196Y12341
X7978Y11629
X8197Y11629
X8197Y12067
X8389Y12643
X8910Y12506
X9622Y10806
X10006Y10422
X10609Y10834
X12144Y10231
X13350Y9408
X10527Y8312
X9485Y6722
X9787Y6228
X10061Y4611
X11569Y3131
X11322Y2528
X10828Y2583
X10335Y2555
X13076Y5324
X12473Y6228
X8827Y9819
X8307Y7709
X6826Y6859
X6689Y6722
X6525Y6749
X4113Y8038
X3153Y8092
X2523Y4090
X2797Y3981
X2578Y3707
X2578Y3350
T02
X11121Y8225
X11661Y8225
T03
X11391Y4494
X11391Y6394
T04
X1229Y10600
X2229Y10600
X2229Y11600
X1229Y11600
X3917Y12600
X3917Y13600
T05
X1687Y1308
X13695Y1308
X13695Y13316
X1687Y13316
M30
